<svg width="18" height="18" viewBox="0 0 18 18" fill="none" xmlns="http://www.w3.org/2000/svg">
<path d="M4.03753 4.03753V7.58133M14.1626 4.03753V7.58133M13.6564 11.1251H15.6814C16.5202 11.1251 17.2002 10.4451 17.2002 9.60635V2.51877C17.2002 1.67998 16.5202 1 15.6814 1H2.51877C1.67998 1 1 1.67998 1 2.51877V9.60635C1 10.4451 1.67998 11.1251 2.51877 11.1251H4.54379M6.23547 14.3362L9.09929 17.2M9.09929 17.2L11.7702 14.5291M9.09929 17.2L9.0994 11.3423M11.1251 6.06256C11.1251 7.18095 10.2185 8.08758 9.10009 8.08758C7.9817 8.08758 7.07507 7.18095 7.07507 6.06256C7.07507 4.94417 7.9817 4.03753 9.10009 4.03753C10.2185 4.03753 11.1251 4.94417 11.1251 6.06256Z" stroke="#E6AE00" stroke-width="1.5" stroke-linecap="round" stroke-linejoin="round"/>
</svg>
