<svg width="13" height="16" viewBox="0 0 13 16" fill="none" xmlns="http://www.w3.org/2000/svg">
<path d="M6.94971 0.299988C4.88196 0.299988 3.19971 1.98224 3.19971 4.04999V6.29999H2.44971C1.62246 6.29999 0.949707 6.97274 0.949707 7.79999V13.8C0.949707 14.6272 1.62246 15.3 2.44971 15.3H11.4497C12.277 15.3 12.9497 14.6272 12.9497 13.8V7.79999C12.9497 6.97274 12.277 6.29999 11.4497 6.29999H10.6997V4.04999C10.6997 1.98224 9.01746 0.299988 6.94971 0.299988ZM11.4497 7.79999L11.4512 13.8H2.44971V7.79999H11.4497ZM4.69971 6.29999V4.04999C4.69971 2.80949 5.70921 1.79999 6.94971 1.79999C8.19021 1.79999 9.19971 2.80949 9.19971 4.04999V6.29999H4.69971Z" fill="white"/>
</svg>
