<svg width="16" height="16" viewBox="0 0 16 16" fill="none" xmlns="http://www.w3.org/2000/svg">
<path d="M7.91992 0.299988C3.78442 0.299988 0.419922 3.66449 0.419922 7.79999C0.419922 11.9355 3.78442 15.3 7.91992 15.3C12.0554 15.3 15.4199 11.9355 15.4199 7.79999C15.4199 3.66449 12.0554 0.299988 7.91992 0.299988ZM8.66992 11.4862V12.3H7.16992V11.49C5.41567 11.2147 4.91992 9.98849 4.91992 9.29999H6.41992C6.42817 9.40724 6.53917 10.05 7.91992 10.05C8.95492 10.05 9.41992 9.61124 9.41992 9.29999C9.41992 9.05699 9.41992 8.54999 7.91992 8.54999C5.30992 8.54999 4.91992 7.13999 4.91992 6.29999C4.91992 5.33399 5.69167 4.36199 7.16992 4.11374V3.30899H8.66992V4.14074C9.97042 4.44824 10.4699 5.53049 10.4699 6.29999H9.71992L8.96992 6.31349C8.95942 6.02849 8.80867 5.54999 7.91992 5.54999C6.94567 5.54999 6.41992 5.93699 6.41992 6.29999C6.41992 6.58049 6.41992 7.04999 7.91992 7.04999C10.5299 7.04999 10.9199 8.45999 10.9199 9.29999C10.9199 10.266 10.1482 11.238 8.66992 11.4862Z" fill="white"/>
</svg>
