<svg width="16" height="14" viewBox="0 0 16 14" fill="none" xmlns="http://www.w3.org/2000/svg">
<path d="M15.3591 4.17274C15.0208 3.37028 14.5297 2.64125 13.9131 2.02624C12.9798 1.09291 11.7934 0.453566 10.5006 0.18724C9.60334 0.00460342 8.67844 0.00460342 7.78114 0.18724C6.48714 0.451865 5.29974 1.09174 4.36714 2.02699C3.75205 2.64265 3.26114 3.37088 2.92114 4.17199C2.56947 5.00345 2.38888 5.89722 2.39014 6.79999L2.39089 6.81874H0.890137L3.14014 9.79999L5.39014 6.81874H3.89089L3.89014 6.79999C3.88798 5.75402 4.20023 4.73154 4.78639 3.86524C5.16448 3.30625 5.64585 2.82462 6.20464 2.44624C6.77309 2.06329 7.41073 1.79479 8.08189 1.65574C9.44579 1.37532 10.8652 1.64796 12.0282 2.41374C13.1911 3.17952 14.0024 4.37576 14.2836 5.73949C14.4251 6.4384 14.4251 7.15858 14.2836 7.85749C14.1464 8.52922 13.8778 9.1672 13.4931 9.73474C13.3056 10.013 13.0904 10.2747 12.8526 10.5117C12.3735 10.9903 11.807 11.3724 11.1839 11.6375C10.8665 11.7716 10.5367 11.8741 10.1991 11.9435C9.50047 12.0849 8.78056 12.0849 8.08189 11.9435C7.41086 11.8059 6.77349 11.5376 6.20614 11.1537C5.9271 10.9652 5.66667 10.7505 5.42839 10.5125L4.36789 11.573C4.99423 12.2002 5.73816 12.6977 6.55706 13.0369C7.37596 13.3762 8.25375 13.5505 9.14014 13.55C10.0424 13.5496 10.9356 13.3694 11.7674 13.0197C12.9731 12.5096 14.0047 11.6602 14.7366 10.5747C15.49 9.46016 15.8918 8.14528 15.8901 6.79999C15.892 5.8974 15.7114 5.00375 15.3591 4.17274Z" fill="white"/>
</svg>
