<svg width="23" height="24" viewBox="0 0 23 24" fill="none" xmlns="http://www.w3.org/2000/svg">
<path fill-rule="evenodd" clip-rule="evenodd" d="M20.0054 6.0313C20.094 6.16575 20.1335 6.32666 20.1172 6.48684C20.1009 6.64702 20.0298 6.79667 19.9159 6.91051L11.3448 15.4807C11.2571 15.5684 11.1477 15.6311 11.0278 15.6625L7.45777 16.5949C7.33976 16.6257 7.21576 16.6251 7.09806 16.5931C6.98037 16.5611 6.87308 16.499 6.78684 16.4127C6.70061 16.3265 6.63842 16.2192 6.60647 16.1015C6.57451 15.9838 6.57389 15.8598 6.60467 15.7418L7.53702 12.1727C7.5649 12.0658 7.61617 11.9665 7.68713 11.8818L16.29 3.28458C16.4211 3.15363 16.5988 3.08008 16.7841 3.08008C16.9694 3.08008 17.1472 3.15363 17.2783 3.28458L19.9159 5.92128C19.9485 5.95563 19.9784 5.99241 20.0054 6.0313ZM18.4325 6.41543L16.7841 4.76796L8.84232 12.7098L8.2596 14.9409L10.4907 14.3582L18.4325 6.41543Z" fill="white"/>
<path d="M18.3136 16.9809C18.5685 14.8029 18.6498 12.608 18.557 10.4171C18.5548 10.3655 18.5633 10.3139 18.5821 10.2658C18.6009 10.2176 18.6295 10.1739 18.666 10.1374L19.5835 9.21996C19.6086 9.19475 19.6404 9.17731 19.6751 9.16974C19.7099 9.16218 19.746 9.16481 19.7793 9.17731C19.8126 9.18982 19.8416 9.21167 19.8627 9.24024C19.8839 9.26881 19.8964 9.30288 19.8986 9.33837C20.0708 11.9408 20.0053 14.5535 19.7028 17.1441C19.4828 19.0293 17.9686 20.5071 16.0918 20.7168C12.8335 21.0774 9.54543 21.0774 6.28716 20.7168C4.41126 20.5071 2.89618 19.0293 2.67614 17.1441C2.29024 13.8392 2.29024 10.5007 2.67614 7.19581C2.89618 5.31059 4.41032 3.8328 6.28716 3.62302C8.76018 3.34989 11.2517 3.28346 13.7358 3.42443C13.7713 3.42698 13.8054 3.43967 13.8339 3.46099C13.8625 3.48231 13.8844 3.51137 13.8969 3.54472C13.9095 3.57808 13.9122 3.61434 13.9048 3.6492C13.8974 3.68406 13.8801 3.71607 13.8551 3.74143L12.9293 4.66633C12.8931 4.70255 12.8498 4.73092 12.8022 4.74969C12.7545 4.76846 12.7035 4.77722 12.6524 4.77542C10.5795 4.70442 8.50422 4.78388 6.44286 5.01317C5.8405 5.07984 5.27821 5.34762 4.84681 5.77327C4.41541 6.19892 4.1401 6.75757 4.06535 7.35897C3.69134 10.5554 3.69134 13.7845 4.06535 16.9809C4.1401 17.5823 4.41541 18.1409 4.84681 18.5666C5.27821 18.9922 5.8405 19.26 6.44286 19.3267C9.57091 19.6763 12.8081 19.6763 15.937 19.3267C16.5394 19.26 17.1017 18.9922 17.5331 18.5666C17.9645 18.1409 18.2389 17.5823 18.3136 16.9809Z" fill="white"/>
</svg>
