<svg width="21" height="21" viewBox="0 0 21 21" fill="none" xmlns="http://www.w3.org/2000/svg">
<g clip-path="url(#clip0_145_222)">
<g clip-path="url(#clip1_145_222)">
<g clip-path="url(#clip2_145_222)">
<path d="M17.8764 0.829983H2.22415C1.02356 0.829983 0.050293 1.80325 0.050293 3.00384V18.6561C0.050293 19.8567 1.02356 20.83 2.22415 20.83H17.8764C19.077 20.83 20.0503 19.8567 20.0503 18.6561V3.00384C20.0503 1.80325 19.077 0.829983 17.8764 0.829983Z" fill="#191719"/>
<path d="M5.96045 16.0479C5.28391 16.0479 4.69195 15.9087 4.18457 15.6305C3.67717 15.3622 3.26769 14.9796 2.95612 14.4827L3.91751 13.4094C4.17566 13.7672 4.46941 14.0355 4.79877 14.2143C5.12814 14.3932 5.52426 14.4827 5.98715 14.4827C6.56576 14.4827 7.02422 14.3137 7.3625 13.9758C7.70076 13.6479 7.86989 13.1957 7.86989 12.6193V10.8604L8.12358 9.28036L7.86989 7.68537V5.76237H9.33871V12.6195C9.33871 13.3052 9.19628 13.9015 8.91143 14.4083C8.62657 14.925 8.23043 15.3275 7.72304 15.6157C7.21565 15.9039 6.62806 16.0479 5.96045 16.0479ZM5.89368 12.7685C5.32397 12.7685 4.80766 12.6144 4.34475 12.3064C3.89076 11.9884 3.53025 11.5561 3.2632 11.0095C3.00505 10.4629 2.87598 9.85172 2.87598 9.17592C2.87598 8.50013 3.00505 7.89391 3.2632 7.35728C3.53025 6.82064 3.89076 6.39829 4.34475 6.09022C4.80764 5.77221 5.32395 5.6132 5.89368 5.6132C6.40108 5.6132 6.84616 5.72749 7.22891 5.95606C7.61166 6.18463 7.90987 6.50264 8.12353 6.91009C8.33717 7.3076 8.44399 7.77467 8.44399 8.31131V10.0702C8.44399 10.5969 8.33272 11.064 8.11017 11.4715C7.89653 11.8789 7.59833 12.1969 7.21555 12.4255C6.83277 12.6541 6.39214 12.7685 5.89368 12.7685ZM6.18745 11.2181C6.54352 11.2181 6.85507 11.1337 7.12213 10.9647C7.38918 10.7958 7.59392 10.5622 7.73635 10.2641C7.88768 9.95603 7.96334 9.59827 7.96334 9.19082C7.96334 8.78337 7.88768 8.43058 7.73635 8.13245C7.59392 7.82438 7.38918 7.58587 7.12213 7.41692C6.85507 7.24798 6.54352 7.16352 6.18745 7.16352C5.83138 7.16352 5.51537 7.24798 5.23941 7.41692C4.97235 7.58586 4.76316 7.82437 4.61184 8.13245C4.46051 8.43059 4.38485 8.78338 4.38485 9.19082C4.38485 9.58833 4.46051 9.94112 4.61184 10.2492C4.76316 10.5573 4.97235 10.7958 5.23941 10.9647C5.51536 11.1337 5.83138 11.2181 6.18745 11.2181Z" fill="white"/>
<path d="M13.8452 16.0479C13.1687 16.0479 12.5767 15.9087 12.0693 15.6305C11.5619 15.3622 11.1525 14.9796 10.8409 14.4827L11.8023 13.4094C12.0604 13.7672 12.3542 14.0355 12.6835 14.2143C13.0129 14.3932 13.409 14.4827 13.8719 14.4827C14.4505 14.4827 14.909 14.3137 15.2473 13.9758C15.5855 13.6479 15.7547 13.1957 15.7547 12.6193V10.8604L16.0083 9.28036L15.7547 7.68537V5.76237H17.2235V12.6195C17.2235 13.3052 17.0811 13.9015 16.7962 14.4083C16.5113 14.925 16.1152 15.3275 15.6078 15.6157C15.1004 15.9039 14.5128 16.0479 13.8452 16.0479ZM13.7785 12.7685C13.2087 12.7685 12.6924 12.6144 12.2295 12.3064C11.7755 11.9884 11.415 11.5561 11.148 11.0095C10.8898 10.4629 10.7607 9.85172 10.7607 9.17592C10.7607 8.50013 10.8898 7.89391 11.148 7.35728C11.415 6.82064 11.7755 6.39829 12.2295 6.09022C12.6924 5.77221 13.2087 5.6132 13.7785 5.6132C14.2859 5.6132 14.7309 5.72749 15.1137 5.95606C15.4964 6.18463 15.7946 6.50264 16.0083 6.91009C16.2219 7.3076 16.3288 7.77467 16.3288 8.31131V10.0702C16.3288 10.5969 16.2175 11.064 15.9949 11.4715C15.7813 11.8789 15.4831 12.1969 15.1003 12.4255C14.7175 12.6541 14.2769 12.7685 13.7785 12.7685ZM14.0722 11.2181C14.4283 11.2181 14.7398 11.1337 15.0069 10.9647C15.2739 10.7958 15.4787 10.5622 15.6211 10.2641C15.7724 9.95603 15.8481 9.59827 15.8481 9.19082C15.8481 8.78337 15.7724 8.43058 15.6211 8.13245C15.4787 7.82438 15.2739 7.58587 15.0069 7.41692C14.7398 7.24798 14.4283 7.16352 14.0722 7.16352C13.7161 7.16352 13.4001 7.24798 13.1242 7.41692C12.8571 7.58586 12.6479 7.82437 12.4966 8.13245C12.3453 8.43059 12.2696 8.78338 12.2696 9.19082C12.2696 9.58833 12.3453 9.94112 12.4966 10.2492C12.6479 10.5573 12.8571 10.7958 13.1242 10.9647C13.4001 11.1337 13.7161 11.2181 14.0722 11.2181Z" fill="white"/>
</g>
</g>
</g>
<defs>
<clipPath id="clip0_145_222">
<rect x="0.050293" y="0.829983" width="20" height="20" rx="10" fill="white"/>
</clipPath>
<clipPath id="clip1_145_222">
<rect width="20" height="20" fill="white" transform="translate(0.050293 0.829983)"/>
</clipPath>
<clipPath id="clip2_145_222">
<rect width="20" height="20" fill="white" transform="translate(0.050293 0.829983)"/>
</clipPath>
</defs>
</svg>
