<svg width="16" height="16" viewBox="0 0 16 16" fill="none" xmlns="http://www.w3.org/2000/svg">
<path d="M1.3335 10.6666C1.3335 8.78129 1.3335 7.83796 1.9195 7.25263C2.50483 6.66663 3.44816 6.66663 5.3335 6.66663H10.6668C12.5522 6.66663 13.4955 6.66663 14.0808 7.25263C14.6668 7.83796 14.6668 8.78129 14.6668 10.6666C14.6668 12.552 14.6668 13.4953 14.0808 14.0806C13.4955 14.6666 12.5522 14.6666 10.6668 14.6666H5.3335C3.44816 14.6666 2.50483 14.6666 1.9195 14.0806C1.3335 13.4953 1.3335 12.552 1.3335 10.6666Z" stroke="white"/>
<path d="M4 6.66659V5.33325C4 4.27239 4.42143 3.25497 5.17157 2.50482C5.92172 1.75468 6.93913 1.33325 8 1.33325C9.06087 1.33325 10.0783 1.75468 10.8284 2.50482C11.5786 3.25497 12 4.27239 12 5.33325V6.66659" stroke="white" stroke-linecap="round"/>
</svg>
