<svg width="19" height="13" viewBox="0 0 19 13" fill="none" xmlns="http://www.w3.org/2000/svg">
<g clip-path="url(#clip0_2060_20128)">
<path d="M9.44879 0C13.5357 0.178225 16.6389 1.9577 18.7138 5.51756C19.0958 6.17291 19.0943 6.85176 18.7159 7.50899C16.9942 10.4993 14.4603 12.3234 11.0916 12.8679C6.74034 13.5711 2.44569 11.4211 0.278648 7.51289C-0.0936908 6.84138 -0.0949829 6.16686 0.287429 5.50233C1.97802 2.56453 4.47017 0.789599 7.76386 0.177531C8.33181 0.0717135 8.91562 0.0540147 9.44879 0ZM9.46529 1.23317C9.02271 1.27809 8.52748 1.29805 8.0431 1.38247C5.09115 1.89691 2.86221 3.48296 1.33967 6.10295C1.17818 6.38084 1.18552 6.64829 1.34011 6.92949C3.20212 10.3164 7.05938 12.2661 10.8144 11.6737C13.8102 11.2011 16.0812 9.6115 17.6355 6.96139C17.8157 6.65408 17.8152 6.37083 17.6339 6.06536C15.7887 2.95718 13.0599 1.3972 9.46529 1.23317Z" fill="white"/>
<path d="M9.5064 2.76175C9.99074 2.76207 10.4703 2.85955 10.9175 3.04861C11.3648 3.23767 11.771 3.51459 12.1129 3.86353C12.4548 4.21247 12.7257 4.62658 12.91 5.08214C13.0944 5.5377 13.1886 6.02577 13.1873 6.51842C13.1876 7.01278 13.0918 7.50231 12.9052 7.9588C12.7187 8.41529 12.4451 8.82972 12.1004 9.17819C11.7557 9.52667 11.3465 9.8023 10.8966 9.98921C10.4467 10.1761 9.96481 10.2706 9.4788 10.2672C8.99448 10.2655 8.51523 10.1667 8.0685 9.97644C7.62176 9.78615 7.21629 9.50813 6.87531 9.15828C6.53433 8.80842 6.26451 8.3936 6.08131 7.93757C5.89812 7.48153 5.80513 6.99322 5.80767 6.50059C5.80875 6.00794 5.90532 5.52035 6.09187 5.0657C6.27841 4.61106 6.55126 4.19829 6.89481 3.85102C7.23835 3.50375 7.64584 3.22879 8.09397 3.04188C8.54209 2.85497 9.02206 2.75978 9.5064 2.76175ZM9.49735 3.99014C8.83953 3.99169 8.20909 4.25817 7.74393 4.73129C7.27878 5.20442 7.01676 5.84567 7.01522 6.51477C7.01706 7.18392 7.27921 7.82511 7.74439 8.29826C8.20957 8.77141 8.83997 9.03804 9.49782 9.03989C10.1557 9.03811 10.7862 8.77143 11.2513 8.29815C11.7164 7.82488 11.9784 7.18353 11.9799 6.51434C11.9785 5.84514 11.7165 5.20375 11.2512 4.73064C10.7859 4.25753 10.1553 3.99126 9.49735 3.99014Z" fill="white"/>
</g>
<defs>
<clipPath id="clip0_2060_20128">
<rect width="19" height="13" fill="white"/>
</clipPath>
</defs>
</svg>
