<svg width="18" height="18" viewBox="0 0 18 18" fill="none" xmlns="http://www.w3.org/2000/svg">
<path d="M17 8C16.7554 6.24022 15.9391 4.60966 14.6766 3.3595C13.4142 2.10933 11.7758 1.30892 10.0137 1.08155C8.25159 0.854187 6.46362 1.21248 4.9252 2.10125C3.38678 2.99001 2.18325 4.35994 1.5 6M1 2V6H5M1 10C1.24456 11.7598 2.06093 13.3903 3.32336 14.6405C4.58579 15.8907 6.22424 16.6911 7.98633 16.9184C9.74841 17.1458 11.5364 16.7875 13.0748 15.8988C14.6132 15.01 15.8168 13.6401 16.5 12M17 16V12H13" stroke="black" stroke-width="2" stroke-linecap="round" stroke-linejoin="round"/>
</svg>
