<svg width="30" height="30" viewBox="0 0 30 30" fill="none" xmlns="http://www.w3.org/2000/svg">
<path d="M15.5 3.85C8.54216 3.85 2.85 9.54216 2.85 16.5C2.85 23.4578 8.54216 29.15 15.5 29.15C22.4578 29.15 28.15 23.4578 28.15 16.5C28.15 9.54216 22.4578 3.85 15.5 3.85ZM15.5 27.8083C9.28076 27.8083 4.19167 22.7192 4.19167 16.5C4.19167 10.2808 9.28076 5.19167 15.5 5.19167C21.7192 5.19167 26.8083 10.2808 26.8083 16.5C26.8083 22.7192 21.7192 27.8083 15.5 27.8083Z" fill="white" stroke="white" stroke-width="0.3"/>
<path d="M14.8889 10.0463L14.8885 10.0462L14.8857 10.0574C14.8857 10.0574 14.8857 10.0574 14.8857 10.0574C14.8857 10.0576 14.8852 10.0594 14.884 10.0632L14.879 10.079C14.8747 10.0923 14.8689 10.1097 14.8615 10.1313C14.8467 10.1745 14.8263 10.2325 14.801 10.3041C14.789 10.3381 14.7759 10.3752 14.7618 10.415C14.7167 10.5423 14.6615 10.6983 14.5991 10.8768C14.4353 11.3455 14.2215 11.9705 14.0092 12.6465C13.7971 13.3221 13.5859 14.0503 13.4277 14.725C13.2701 15.3972 13.1625 16.0263 13.1625 16.5C13.1625 17.7808 14.2192 18.8375 15.5 18.8375C16.7808 18.8375 17.8375 17.7808 17.8375 16.5C17.8375 16.0263 17.7299 15.3972 17.5723 14.725C17.4141 14.0503 17.2029 13.3221 16.9908 12.6465C16.7785 11.9705 16.5647 11.3455 16.4009 10.8768C16.3385 10.6983 16.2833 10.5423 16.2382 10.415C16.2241 10.3752 16.211 10.3381 16.199 10.3041C16.1737 10.2325 16.1533 10.1745 16.1385 10.1313C16.1311 10.1097 16.1253 10.0923 16.121 10.079L16.116 10.0632C16.1148 10.0594 16.1143 10.0576 16.1143 10.0574L16.1143 10.0574L16.1147 10.0573L16.1111 10.0463C15.9092 9.44081 15.0908 9.44081 14.8889 10.0463ZM15.5 17.4958C14.9578 17.4958 14.5042 17.0422 14.5042 16.5C14.5042 16.0266 14.6555 15.2622 14.877 14.4088C15.0575 13.7131 15.2819 12.9686 15.5 12.2935C15.7181 12.9686 15.9425 13.7131 16.123 14.4088C16.3445 15.2622 16.4958 16.0266 16.4958 16.5C16.4958 17.0422 16.0422 17.4958 15.5 17.4958Z" fill="white" stroke="white" stroke-width="0.3"/>
<path d="M15.5003 8.36879C15.6907 8.36879 15.8609 8.30469 15.984 8.18163C16.1071 8.05856 16.1712 7.88829 16.1712 7.69796V6.76046C16.1712 6.57012 16.1071 6.39985 15.984 6.27679C15.8609 6.15372 15.6907 6.08962 15.5003 6.08962C15.31 6.08962 15.1397 6.15372 15.0167 6.27679C14.8936 6.39985 14.8295 6.57012 14.8295 6.76046V7.69796C14.8295 8.0313 15.0954 8.36879 15.5003 8.36879Z" fill="white" stroke="white" stroke-width="0.3"/>
<path d="M12.4093 7.22476C12.2805 6.90381 11.882 6.68157 11.5264 6.88612C11.2111 7.01932 10.9958 7.41297 11.1982 7.76473L11.5585 8.63977C11.6873 8.96072 12.0858 9.18296 12.4414 8.97841C12.7567 8.84521 12.972 8.45156 12.7696 8.0998L12.4093 7.22476Z" fill="white" stroke="white" stroke-width="0.3"/>
<path d="M9.09597 9.10231C8.82906 8.8354 8.42159 8.8354 8.15468 9.10231C7.88776 9.36922 7.88776 9.77669 8.15468 10.0436L8.83176 10.7207C9.09867 10.9876 9.50615 10.9876 9.77306 10.7207C10.04 10.4538 10.04 10.0463 9.77306 9.77939L9.09597 9.10231Z" fill="white" stroke="white" stroke-width="0.3"/>
<path d="M6.75458 12.1425L6.75458 12.1425L6.75318 12.142C6.42982 12.0126 6.02136 12.1354 5.88111 12.486C5.75231 12.808 5.87346 13.2144 6.22069 13.3562L7.10235 13.7711L7.10224 13.7714L7.11051 13.7747C7.43387 13.904 7.84233 13.7813 7.98257 13.4307L7.98281 13.4308L7.9856 13.4224C8.10589 13.0616 7.99649 12.6502 7.63935 12.5069L6.75458 12.1425Z" fill="white" stroke="white" stroke-width="0.3"/>
<path d="M7.36842 16.5C7.36842 16.3096 7.30432 16.1394 7.18126 16.0163C7.0582 15.8932 6.88793 15.8291 6.69759 15.8291H5.76009C5.56975 15.8291 5.39948 15.8932 5.27642 16.0163C5.15336 16.1394 5.08926 16.3096 5.08926 16.5C5.08926 16.6903 5.15336 16.8606 5.27642 16.9836C5.39948 17.1067 5.56975 17.1708 5.76009 17.1708H6.69759C7.03093 17.1708 7.36842 16.9049 7.36842 16.5Z" fill="white" stroke="white" stroke-width="0.3"/>
<path d="M7.11145 19.2253L7.11145 19.2253L7.11005 19.2259L6.22528 19.5902C5.90433 19.7191 5.68209 20.1175 5.88663 20.4731C6.01984 20.7884 6.41349 21.0037 6.76525 20.8014L7.64029 20.441C7.96288 20.3115 8.18575 19.9097 7.97576 19.5527C7.90421 19.4134 7.77113 19.3019 7.6225 19.2394C7.47061 19.1754 7.28577 19.1556 7.11145 19.2253Z" fill="white" stroke="white" stroke-width="0.3"/>
<path d="M8.79509 22.2133L8.78656 22.2197L8.77903 22.2273L8.10194 22.9043C7.83503 23.1713 7.83503 23.5787 8.10194 23.8456C8.36885 24.1126 8.77633 24.1126 9.04324 23.8456L9.72032 23.1686C9.98724 22.9017 9.98724 22.4942 9.72032 22.2273C9.4382 21.9451 9.03581 22.0328 8.79509 22.2133Z" fill="white" stroke="white" stroke-width="0.3"/>
<path d="M22.221 22.2273C21.9541 21.9604 21.5466 21.9604 21.2797 22.2273C21.0128 22.4942 21.0128 22.9017 21.2797 23.1686L21.9568 23.8457C22.2237 24.1126 22.6311 24.1126 22.8981 23.8457C23.165 23.5788 23.165 23.1713 22.8981 22.9044L22.221 22.2273Z" fill="white" stroke="white" stroke-width="0.3"/>
<path d="M24.7958 19.6006L24.7861 19.5948L24.7757 19.5905L23.8903 19.2259L23.8903 19.2259L23.8889 19.2254C23.5656 19.096 23.1571 19.2187 23.0169 19.5693C22.8876 19.8925 23.0101 20.3006 23.3601 20.4411L24.2448 20.8054L24.2448 20.8054L24.2463 20.806C24.5696 20.9353 24.9781 20.8126 25.1183 20.462C25.2542 20.1223 25.1087 19.7883 24.7958 19.6006Z" fill="white" stroke="white" stroke-width="0.3"/>
<path d="M25.2396 15.8292H24.3021C24.1117 15.8292 23.9415 15.8933 23.8184 16.0163C23.6954 16.1394 23.6312 16.3097 23.6312 16.5C23.6312 16.6903 23.6954 16.8606 23.8184 16.9837C23.9415 17.1067 24.1117 17.1708 24.3021 17.1708H25.2396C25.4299 17.1708 25.6002 17.1067 25.7233 16.9837C25.8463 16.8606 25.9104 16.6903 25.9104 16.5C25.9104 16.3097 25.8463 16.1394 25.7233 16.0163C25.6002 15.8933 25.4299 15.8292 25.2396 15.8292Z" fill="white" stroke="white" stroke-width="0.3"/>
<path d="M23.8889 13.7747L23.8889 13.7747L23.8903 13.7741L24.775 13.4098C25.096 13.2809 25.3182 12.8825 25.1137 12.5269C24.9805 12.2116 24.5868 11.9963 24.2351 12.1986L23.36 12.5589C23.0375 12.6884 22.8146 13.0903 23.0246 13.4473C23.0961 13.5866 23.2292 13.698 23.3778 13.7606C23.5297 13.8246 23.7146 13.8444 23.8889 13.7747Z" fill="white" stroke="white" stroke-width="0.3"/>
<path d="M21.9201 9.08833L21.9116 9.09473L21.904 9.10227L21.2269 9.77935C20.96 10.0463 20.96 10.4537 21.2269 10.7206C21.4939 10.9876 21.9013 10.9876 22.1682 10.7206L22.8453 10.0436C23.1122 9.77665 23.1122 9.36918 22.8453 9.10227C22.5632 8.82015 22.1608 8.90779 21.9201 9.08833Z" fill="white" stroke="white" stroke-width="0.3"/>
<path d="M18.2284 8.10284L18.2282 8.10273L18.2249 8.111C18.0955 8.43436 18.2182 8.84282 18.5688 8.98306C18.892 9.11231 19.3001 8.98986 19.4406 8.63983L19.8009 7.76485C19.9929 7.43206 19.8616 7.0208 19.5136 6.8816C19.1916 6.7528 18.7852 6.87395 18.6433 7.22118L18.2284 8.10284Z" fill="white" stroke="white" stroke-width="0.3"/>
</svg>
