<svg width="30" height="30" viewBox="0 0 30 30" fill="none" xmlns="http://www.w3.org/2000/svg">
<path d="M26.0223 13.6142C25.6857 11.192 24.5621 8.94775 22.8245 7.22703C21.0869 5.50631 18.8317 4.40463 16.4064 4.09168C13.9811 3.77874 11.5201 4.27189 9.40263 5.49518C7.28515 6.71847 5.62862 8.60403 4.6882 10.8614M4 5.35583V10.8614H9.50558M4 16.367C4.33661 18.7891 5.46026 21.0334 7.19786 22.7542C8.93547 24.4749 11.1906 25.5766 13.616 25.8895C16.0413 26.2025 18.5022 25.7093 20.6197 24.486C22.7372 23.2627 24.3937 21.3772 25.3341 19.1198M26.0223 24.6254V19.1198H20.5167" stroke="white" stroke-width="2.75279" stroke-linecap="round" stroke-linejoin="round"/>
</svg>
