<svg width="30" height="30" viewBox="0 0 30 30" fill="none" xmlns="http://www.w3.org/2000/svg">
<path d="M9.51888 21.2145C9.66667 21.2145 9.81582 21.21 9.96216 21.201L9.91102 20.3671C9.78161 20.3751 9.64967 20.3791 9.51888 20.3791C8.58452 20.3791 7.71249 20.1805 7.06344 19.8199C6.50023 19.5071 6.17721 19.1018 6.17721 18.7082C6.1776 18.6146 6.19446 18.5217 6.22703 18.4339L5.4424 18.1472C5.37618 18.3268 5.34212 18.5168 5.3418 18.7082C5.3418 20.1136 7.17659 21.2145 9.51888 21.2145Z" fill="white"/>
<path d="M2.41771 4.92396C2.86069 4.92446 3.28538 5.10066 3.59861 5.41389C3.91184 5.72712 4.08804 6.15181 4.08854 6.59479C4.08854 6.70557 4.13255 6.81182 4.21089 6.89016C4.28922 6.96849 4.39547 7.0125 4.50625 7.0125C4.61703 7.0125 4.72328 6.96849 4.80161 6.89016C4.87995 6.81182 4.92396 6.70557 4.92396 6.59479C4.92446 6.15181 5.10066 5.72712 5.41389 5.41389C5.72712 5.10066 6.15181 4.92446 6.59479 4.92396C6.70557 4.92396 6.81182 4.87995 6.89016 4.80161C6.96849 4.72328 7.0125 4.61703 7.0125 4.50625C7.0125 4.39547 6.96849 4.28922 6.89016 4.21089C6.81182 4.13255 6.70557 4.08854 6.59479 4.08854C6.15181 4.08804 5.72712 3.91184 5.41389 3.59861C5.10066 3.28538 4.92446 2.86069 4.92396 2.41771C4.92396 2.30693 4.87995 2.20068 4.80161 2.12234C4.72328 2.04401 4.61703 2 4.50625 2C4.39547 2 4.28922 2.04401 4.21089 2.12234C4.13255 2.20068 4.08854 2.30693 4.08854 2.41771C4.08804 2.86069 3.91184 3.28538 3.59861 3.59861C3.28538 3.91184 2.86069 4.08804 2.41771 4.08854C2.30693 4.08854 2.20068 4.13255 2.12234 4.21089C2.04401 4.28922 2 4.39547 2 4.50625C2 4.61703 2.04401 4.72328 2.12234 4.80161C2.20068 4.87995 2.30693 4.92396 2.41771 4.92396ZM4.50625 3.80172C4.692 4.081 4.93149 4.32049 5.21075 4.50625C4.93149 4.69201 4.692 4.9315 4.50625 5.21078C4.3205 4.9315 4.08101 4.69201 3.80175 4.50625C4.08101 4.32049 4.3205 4.081 4.50625 3.80172Z" fill="white"/>
<path d="M9.98759 15.2551L10.5557 14.6426C9.50212 13.6653 8.84526 12.3342 8.71047 10.9034C8.57568 9.47261 8.97239 8.04228 9.82491 6.88533C10.6774 5.72838 11.9261 4.92581 13.3326 4.63076C14.7391 4.33571 16.205 4.56884 17.4506 5.28565L17.8682 4.56211C16.4448 3.74216 14.7692 3.47514 13.1614 3.81202C11.5536 4.1489 10.1261 5.06607 9.15153 6.38847C8.17693 7.71086 7.72346 9.34585 7.87767 10.9813C8.03189 12.6168 8.78298 14.1382 9.98759 15.2551Z" fill="white"/>
<path d="M14.5318 16.2021C13.581 16.202 12.6444 15.9706 11.803 15.5279L11.4126 16.2664C12.8082 17.0026 14.4193 17.2213 15.9606 16.8838C17.502 16.5463 18.8743 15.6744 19.8346 14.4224C20.7949 13.1704 21.2814 11.6191 21.2078 10.0429C21.1343 8.46674 20.5055 6.96741 19.4328 5.81027L18.8203 6.3784C19.5938 7.21278 20.1072 8.25469 20.2974 9.37645C20.4876 10.4982 20.3465 11.6511 19.8912 12.6938C19.436 13.7366 18.6865 14.6239 17.7346 15.247C16.7826 15.8702 15.6695 16.2021 14.5318 16.2021Z" fill="white"/>
<path d="M14.3282 5.81191L10.5688 7.90046C10.5037 7.93663 10.4495 7.98957 10.4117 8.05377C10.3739 8.11797 10.354 8.1911 10.354 8.26559V12.4427C10.354 12.5172 10.3739 12.5903 10.4117 12.6545C10.4495 12.7187 10.5037 12.7716 10.5688 12.8078L14.3282 14.8964C14.3903 14.9308 14.4601 14.9489 14.5311 14.9489C14.6021 14.9489 14.6719 14.9308 14.734 14.8964L18.4933 12.8078C18.5584 12.7716 18.6127 12.7187 18.6505 12.6545C18.6882 12.5903 18.7082 12.5172 18.7082 12.4427V8.26559C18.7082 8.1911 18.6882 8.11797 18.6505 8.05377C18.6127 7.98957 18.5584 7.93663 18.4933 7.90046L14.734 5.81191C14.6719 5.77745 14.6021 5.75937 14.5311 5.75937C14.4601 5.75937 14.3903 5.77745 14.3282 5.81191ZM17.8728 12.1969L14.5311 14.0534L11.1894 12.1969V8.51136L14.5311 6.65488L17.8728 8.51136V12.1969Z" fill="white"/>
<path d="M12.6733 8.72747L13.0469 9.47467L14.5127 8.7418L16.2018 9.75527V11.1896H17.0372V9.51878C17.0372 9.44664 17.0185 9.37574 16.983 9.31297C16.9475 9.2502 16.8963 9.1977 16.8344 9.16057L14.7459 7.90745C14.6856 7.87129 14.6172 7.85093 14.547 7.84824C14.4768 7.84555 14.407 7.86061 14.3442 7.89205L12.6733 8.72747Z" fill="white"/>
<path d="M24.7501 12.2778C24.8991 11.6474 24.9742 11.0019 24.974 10.3542C24.974 5.74765 21.2263 2 16.6198 2H14.5312C9.92476 2 6.17708 5.74765 6.17708 10.3542C6.17623 11.3541 6.35578 12.3459 6.7071 13.2821C5.45409 13.6725 4.36714 14.314 3.53739 15.1595C2.53162 16.1844 2 17.4116 2 18.7083V21.6323C2 23.1107 2.80143 24.4907 4.25666 25.5179C5.66772 26.514 7.5365 27.0625 9.51875 27.0625C11.501 27.0625 13.3698 26.514 14.7808 25.5179C15.5338 24.9864 16.1112 24.3603 16.4936 23.6752C17.4807 23.9844 18.5094 24.1407 19.5438 24.1385C21.526 24.1385 23.3948 23.59 24.8058 22.594C26.2611 21.5667 27.0625 20.1868 27.0625 18.7083V16.2021C27.0625 14.712 26.2242 13.2975 24.7501 12.2778ZM26.2271 16.2021C26.2271 18.7357 23.229 20.7969 19.5438 20.7969C18.6969 20.7998 17.8536 20.6865 17.0375 20.4602V19.6042C17.8512 19.8442 18.6954 19.9646 19.5438 19.9615C21.0705 19.9615 22.5118 19.5919 23.6024 18.9208C24.7562 18.2107 25.3917 17.2452 25.3917 16.2021C25.3917 15.3613 24.964 14.5525 24.1829 13.9001C24.3014 13.6483 24.4072 13.3907 24.4998 13.1283C25.6044 13.9707 26.2271 15.0674 26.2271 16.2021ZM19.9615 21.6238C20.523 21.6024 21.0818 21.5348 21.6323 21.4217V23.0731C21.0831 23.1968 20.5239 23.2706 19.9615 23.2939V21.6238ZM22.4513 21.2146C23.0376 21.04 23.6032 20.8026 24.1385 20.5065V22.0419C23.6175 22.3771 23.0561 22.6451 22.4677 22.8394V21.2146H22.4513ZM22.5669 5.75938C22.9641 6.27178 23.2935 6.83337 23.5467 7.43021H22.3569C22.1366 6.84297 21.8507 6.28248 21.5047 5.75938H22.5669ZM24.5562 16.2021C24.5562 16.9442 24.062 17.657 23.1646 18.2092C22.2039 18.8005 20.918 19.126 19.5438 19.126C18.6921 19.131 17.8454 18.9961 17.0375 18.7267V18.7083C17.0375 18.7049 17.0372 18.7014 17.0372 18.6979C18.4061 18.6284 19.7369 18.2234 20.9124 17.5186C22.088 16.8138 23.0722 15.8309 23.7785 14.6562C24.2823 15.1218 24.5562 15.6603 24.5562 16.2021ZM22.875 9.93646C22.8473 9.37234 22.7622 8.81251 22.6211 8.26562H23.8431C24.0007 8.81002 24.0958 9.37057 24.1267 9.93646H22.875ZM22.875 10.7719H24.1267C24.0958 11.3378 24.0007 11.8983 23.8431 12.4427H22.6211C22.7622 11.8958 22.8473 11.336 22.875 10.7719ZM22.3569 13.2781H23.5467C23.2935 13.875 22.9641 14.4366 22.5669 14.949H21.5047C21.8507 14.4259 22.1366 13.8654 22.3569 13.2781ZM20.8745 15.7844H21.8149C20.9472 16.616 19.8929 17.2276 18.7402 17.568C19.5457 17.096 20.2669 16.4932 20.8745 15.7844ZM21.8149 4.92396H20.8745C20.2669 4.21515 19.5457 3.61237 18.7402 3.14034C19.8929 3.4807 20.9472 4.09232 21.8149 4.92396ZM14.5312 2.83542C18.6771 2.83542 22.05 6.20829 22.05 10.3542C22.05 14.5 18.6771 17.8729 14.5312 17.8729C10.3854 17.8729 7.0125 14.5 7.0125 10.3542C7.0125 6.20829 10.3854 2.83542 14.5312 2.83542ZM4.13364 15.7447C4.87369 14.9906 5.89343 14.4 7.04219 14.0533C7.16826 14.3075 7.30719 14.5551 7.45846 14.7952C5.19448 15.3954 3.67083 16.9344 3.67083 18.7083C3.67083 19.3749 3.89312 20.0369 4.31366 20.6227L4.99233 20.1356C4.6698 19.6863 4.50625 19.2061 4.50625 18.7083C4.50625 17.9694 4.8679 17.2663 5.55208 16.6753C6.17425 16.1378 7.02603 15.7377 7.97828 15.53C8.18002 15.785 8.39635 16.0281 8.62619 16.2581C7.74706 16.3699 6.94925 16.6455 6.35838 17.0512L6.83121 17.7398C7.48135 17.2935 8.46092 17.0375 9.51875 17.0375V17.0333C10.5011 17.7736 11.6355 18.2869 12.8401 18.5362C12.8532 18.5926 12.8601 18.6504 12.8604 18.7083C12.8604 19.2926 12.1443 19.8829 11.0784 20.1771L11.3007 20.9824C12.7781 20.5746 13.6958 19.7032 13.6958 18.7083C13.6958 18.6944 13.6953 18.6805 13.6949 18.6666C13.97 18.6941 14.2488 18.708 14.5312 18.7083H16.2021C16.2021 21.4722 13.204 23.7208 9.51875 23.7208C5.83354 23.7208 2.83542 21.4722 2.83542 18.7083C2.83542 17.6349 3.28433 16.6102 4.13364 15.7447ZM4.92396 23.3415C5.45067 23.6562 6.01115 23.9107 6.59479 24.1V25.7634C6.00644 25.5691 5.44504 25.3011 4.92396 24.9658V23.3415ZM7.43021 24.329C7.97962 24.4509 8.53875 24.5239 9.10104 24.5471V26.2178C8.53859 26.1946 7.97939 26.1207 7.43021 25.9971V24.329ZM9.93646 24.5471C10.4988 24.5239 11.0579 24.4509 11.6073 24.329V25.9971C11.0581 26.1207 10.4989 26.1946 9.93646 26.2178V24.5471ZM12.4427 24.1C13.0264 23.9107 13.5868 23.6562 14.1135 23.3415V24.9658C13.5925 25.3011 13.0311 25.5691 12.4427 25.7634V24.1ZM2.83542 21.6323V21.3986C3.18203 21.9122 3.60454 22.3704 4.08854 22.7573V24.3078C3.30028 23.5537 2.83542 22.6297 2.83542 21.6323ZM14.949 24.3078V22.7573C15.433 22.3704 15.8555 21.9122 16.2021 21.3986V21.6323C16.2021 22.6297 15.7372 23.5537 14.949 24.3078ZM17.0375 21.6323V21.3252C17.7213 21.4978 18.4213 21.598 19.126 21.624V23.294C18.3482 23.2619 17.5775 23.1313 16.8324 22.9056C16.968 22.4948 17.0373 22.0649 17.0375 21.6323ZM26.2271 18.7083C26.2271 19.7057 25.7622 20.6298 24.974 21.3838V19.9648C25.4533 19.6106 25.8759 19.1854 26.2271 18.7038V18.7083Z" fill="white"/>
<path d="M6.31013 21.2679L5.90186 21.9968C6.93963 22.5782 8.19053 22.8854 9.51933 22.8854C11.9701 22.8854 14.1777 21.7867 15.0126 20.1514L14.2685 19.7715C13.5727 21.1343 11.6642 22.05 9.51933 22.05C8.35013 22.05 7.21041 21.7723 6.31013 21.2679Z" fill="white"/>
<path d="M19.5429 25.3916C18.868 25.3923 18.1945 25.3311 17.5308 25.2087L17.3779 26.03C18.092 26.1618 18.8167 26.2277 19.5429 26.227C21.4644 26.227 23.3389 25.7626 24.8209 24.9192L24.4078 24.1931C23.0496 24.966 21.3219 25.3916 19.5429 25.3916Z" fill="white"/>
<path d="M25.1426 23.7155L25.6418 24.3853C25.9612 24.1484 26.2592 23.8839 26.5322 23.5948L25.9231 23.0231C25.6837 23.2764 25.4225 23.508 25.1426 23.7155Z" fill="white"/>
<path d="M4.41754 7.74371C4.34394 8.02972 4.28183 8.32255 4.23291 8.61411L5.0568 8.75239C5.1018 8.48424 5.15894 8.21491 5.2266 7.95196L4.41754 7.74371Z" fill="white"/>
<path d="M4.1241 9.48438C4.10039 9.77186 4.08838 10.0645 4.08838 10.3541C4.08795 11.2346 4.19849 12.1116 4.41739 12.9645L5.22645 12.7562C5.02505 11.9714 4.92336 11.1644 4.9238 10.3541C4.9238 10.0873 4.93486 9.81775 4.95671 9.55301L4.1241 9.48438Z" fill="white"/>
</svg>
