<svg width="30" height="30" viewBox="0 0 30 30" fill="none" xmlns="http://www.w3.org/2000/svg">
<mask id="path-1-outside-1_145_122" maskUnits="userSpaceOnUse" x="1" y="1" width="28" height="28" fill="black">
<rect fill="white" x="1" y="1" width="28" height="28"/>
<path d="M7.10979 4.10072H9.90297V3.26913C9.90297 2.91995 10.045 2.60272 10.2753 2.37233C10.5042 2.14341 10.8214 2 11.1721 2C11.5212 2 11.8386 2.14346 12.0674 2.37233C12.2978 2.60272 12.4412 2.91995 12.4412 3.26913V4.10072H15.2329V3.26913C15.2329 2.91995 15.3764 2.60272 15.6053 2.37233C15.8356 2.14341 16.1529 2 16.502 2C16.8512 2 17.1685 2.14346 17.3989 2.37233C17.6292 2.60272 17.7712 2.91995 17.7712 3.26913V4.10072H20.5643V3.27925C20.5643 2.93013 20.7063 2.61279 20.9367 2.38245C21.1655 2.15358 21.4828 2.01017 21.8335 2.01017C22.1826 2.01017 22.4999 2.15358 22.7288 2.38245C22.9592 2.61279 23.1026 2.93013 23.1026 3.27925V4.10072H23.5228C24.1153 4.10072 24.6528 4.34261 25.0425 4.73094C25.4322 5.12064 25.6742 5.65815 25.6742 6.2506V10.2449C25.6742 10.4564 25.5018 10.6288 25.2902 10.6288C25.0787 10.6288 24.9063 10.4564 24.9063 10.2449V9.13946H14.7055C14.4926 9.13946 14.3216 8.9685 14.3216 8.75702C14.3216 8.54405 14.4926 8.37309 14.7055 8.37309H24.9063V6.25065C24.9063 5.86964 24.7513 5.52486 24.5006 5.27417C24.2485 5.0221 23.9037 4.86709 23.5227 4.86709H23.1025V5.68713C23.1025 6.03625 22.9591 6.35353 22.7287 6.58388C22.4998 6.81422 22.1826 6.9562 21.8334 6.9562C21.4827 6.9562 21.1655 6.81422 20.9365 6.58388C20.7062 6.35353 20.5642 6.03625 20.5642 5.68713V4.86709H17.7711V5.67696C17.7711 6.02613 17.6291 6.34336 17.3988 6.57376C17.1684 6.80267 16.8511 6.94608 16.5019 6.94608C16.1528 6.94608 15.8355 6.80262 15.6052 6.57376C15.3762 6.34336 15.2328 6.02613 15.2328 5.67696V4.86709H12.4411V5.67696C12.4411 6.02613 12.2977 6.34336 12.0673 6.57376C11.8384 6.80267 11.5211 6.94608 11.172 6.94608C10.8214 6.94608 10.5041 6.80262 10.2752 6.57376C10.0448 6.34336 9.90287 6.02613 9.90287 5.67696V4.86709H7.10979V5.67696C7.10979 6.02613 6.96632 6.34336 6.73746 6.57376C6.50711 6.80267 6.18983 6.94608 5.84066 6.94608C5.49153 6.94608 5.1742 6.80262 4.94385 6.57376C4.71494 6.34336 4.57153 6.02613 4.57153 5.67696V4.86709H4.14993C3.77035 4.86709 3.42409 5.0221 3.1735 5.27417C2.92287 5.52481 2.76637 5.86958 2.76637 6.25065V8.37314H12.9686C13.1802 8.37314 13.3525 8.5441 13.3525 8.75707C13.3525 8.9686 13.1802 9.13951 12.9686 9.13951H2.76642V20.4587C2.76642 20.6702 2.59547 20.8412 2.38398 20.8412C2.17244 20.8412 2.00005 20.6702 2.00005 20.4587V6.25065C2 5.65815 2.24195 5.12064 2.63165 4.73094C3.02135 4.34261 3.55886 4.10072 4.14993 4.10072H4.57153V3.26913C4.57153 2.91995 4.71351 2.60272 4.94385 2.37233C5.1742 2.14341 5.49153 2 5.84066 2C6.18983 2 6.50706 2.14346 6.73746 2.37233C6.96637 2.60272 7.10979 2.91995 7.10979 3.26913V4.10072ZM22.3856 18.9998C22.3856 18.7883 22.5565 18.6173 22.768 18.6173C22.981 18.6173 23.152 18.7883 23.152 18.9998V22.3754C23.152 22.4797 23.1114 22.5724 23.0433 22.642L20.7006 25.3975C20.5644 25.5598 20.324 25.5801 20.1617 25.4424C20.0009 25.3063 19.9806 25.0658 20.1168 24.9035L22.3856 22.2363V18.9998ZM20.0487 18.6245C19.8763 18.7492 19.6373 18.7101 19.5141 18.5391C19.3895 18.3681 19.4272 18.1291 19.5996 18.0045C20.0517 17.6756 20.5572 17.4163 21.102 17.2396C21.6279 17.0685 22.1886 16.9758 22.7681 16.9758C23.5287 16.9758 24.2517 17.1323 24.9065 17.4163V11.9805C24.9065 11.769 25.0789 11.598 25.2904 11.598C25.502 11.598 25.6744 11.769 25.6744 11.9805V17.8234C26.0047 18.0349 26.3104 18.2812 26.5871 18.5579C27.5635 19.5344 28.1676 20.8846 28.1676 22.3754C28.1676 23.8662 27.5635 25.2164 26.587 26.1929C25.609 27.1709 24.2603 27.775 22.768 27.775C21.2772 27.775 19.9284 27.1709 18.9505 26.1929C18.5797 25.822 18.2624 25.3975 18.0118 24.931H3.99349C3.44443 24.931 2.94602 24.708 2.5853 24.3472C2.22457 23.985 2 23.488 2 22.939V22.1943C2 21.9828 2.17244 21.8119 2.38393 21.8119C2.59542 21.8119 2.76637 21.9828 2.76637 22.1943V22.939C2.76637 23.2751 2.90544 23.5822 3.12715 23.8039C3.35024 24.027 3.65597 24.1647 3.99349 24.1647H17.6728C17.4757 23.6054 17.3685 23.0028 17.3685 22.3754C17.3685 21.8249 17.4526 21.2917 17.6076 20.7876C17.7684 20.2675 18.0046 19.7807 18.303 19.3417C18.4218 19.1664 18.6608 19.1215 18.8346 19.2404C19.0085 19.3591 19.0534 19.5982 18.9346 19.772C18.6782 20.1501 18.4754 20.5674 18.3377 21.0122C18.2073 21.441 18.1364 21.8989 18.1364 22.3755C18.1364 23.6548 18.655 24.8137 19.4923 25.6511C20.3312 26.49 21.4887 27.0086 22.768 27.0086C24.0473 27.0086 25.2063 26.49 26.0451 25.6511C26.8825 24.8137 27.4012 23.6548 27.4012 22.3755C27.4012 21.0962 26.8825 19.9372 26.0451 19.0998C25.2063 18.261 24.0473 17.7423 22.768 17.7423C22.2682 17.7423 21.7873 17.822 21.3381 17.9669C20.8716 18.119 20.437 18.3421 20.0487 18.6245ZM18.3711 10.7665H22.897C23.1085 10.7665 23.281 10.9374 23.281 11.1489V15.6749C23.281 15.8878 23.1085 16.0588 22.897 16.0588H18.3711C18.1595 16.0588 17.9871 15.8878 17.9871 15.6749V11.1489C17.9872 10.9374 18.1596 10.7665 18.3711 10.7665ZM22.5145 11.5328H18.755V15.2924H22.5145V11.5328ZM11.5734 17.2454H16.0994C16.3123 17.2454 16.4833 17.4178 16.4833 17.6293V22.1552C16.4833 22.3668 16.3123 22.5392 16.0994 22.5392H11.5734C11.3619 22.5392 11.191 22.3668 11.191 22.1552V17.6293C11.191 17.4178 11.3619 17.2454 11.5734 17.2454ZM15.7169 18.0132H11.9574V21.7728H15.7169V18.0132ZM11.5734 10.7665H16.0994C16.3123 10.7665 16.4833 10.9374 16.4833 11.1489V15.6749C16.4833 15.8878 16.3123 16.0588 16.0994 16.0588H11.5734C11.3619 16.0588 11.191 15.8878 11.191 15.6749V11.1489C11.191 10.9374 11.3619 10.7665 11.5734 10.7665ZM15.7169 11.5328H11.9574V15.2924H15.7169V11.5328ZM4.77581 17.2454H9.30316C9.5147 17.2454 9.68566 17.4178 9.68566 17.6293V22.1552C9.68566 22.3668 9.5147 22.5392 9.30316 22.5392H4.77581C4.56427 22.5392 4.39336 22.3668 4.39336 22.1552V17.6293C4.39336 17.4178 4.56432 17.2454 4.77581 17.2454ZM8.91929 18.0132H5.15974V21.7728H8.91929V18.0132ZM4.77581 10.7665H9.30316C9.5147 10.7665 9.68566 10.9374 9.68566 11.1489V15.6749C9.68566 15.8878 9.5147 16.0588 9.30316 16.0588H4.77581C4.56427 16.0588 4.39336 15.8878 4.39336 15.6749V11.1489C4.39336 10.9374 4.56432 10.7665 4.77581 10.7665ZM8.91929 11.5328H5.15974V15.2924H8.91929V11.5328ZM21.8336 2.77797C21.696 2.77797 21.5699 2.83445 21.4786 2.92573C21.3874 3.01701 21.3309 3.14166 21.3309 3.27925V4.48321V5.68718C21.3309 5.82476 21.3873 5.9508 21.4786 6.04208C21.5699 6.13336 21.696 6.18988 21.8336 6.18988C21.9712 6.18988 22.0958 6.13341 22.1871 6.04208C22.2784 5.9508 22.3349 5.82476 22.3349 5.68718V4.48321V3.27925C22.3349 3.14166 22.2784 3.01701 22.1871 2.92573C22.0958 2.8345 21.9712 2.77797 21.8336 2.77797ZM6.19566 2.91418C6.10438 2.82295 5.97834 2.76642 5.84071 2.76642C5.70312 2.76642 5.57704 2.8229 5.48576 2.91418C5.39448 3.00546 5.338 3.13149 5.338 3.26913V4.48321V5.67701C5.338 5.81464 5.39448 5.94068 5.48576 6.03196C5.57704 6.12319 5.70312 6.17971 5.84071 6.17971C5.97834 6.17971 6.10438 6.12324 6.19566 6.03196C6.28694 5.94068 6.34341 5.81464 6.34341 5.67701V4.48321V3.26913C6.34341 3.13144 6.28689 3.00546 6.19566 2.91418ZM11.1722 2.76642C11.033 2.76642 10.9085 2.8229 10.8172 2.91418C10.7259 3.00546 10.6694 3.13149 10.6694 3.26913V4.48321V5.67701C10.6694 5.81464 10.7259 5.94068 10.8172 6.03196C10.9085 6.12319 11.0331 6.17971 11.1722 6.17971C11.3097 6.17971 11.4343 6.12324 11.5256 6.03196C11.6169 5.94068 11.6734 5.81464 11.6734 5.67701V4.48321V3.26913C11.6734 3.13149 11.617 3.00546 11.5256 2.91418C11.4343 2.8229 11.3097 2.76642 11.1722 2.76642ZM16.5021 2.76642C16.3645 2.76642 16.2384 2.8229 16.1472 2.91418C16.0559 3.00546 15.9994 3.13149 15.9994 3.26913V4.48321V5.67701C15.9994 5.81464 16.0559 5.94068 16.1472 6.03196C16.2384 6.12319 16.3645 6.17971 16.5021 6.17971C16.6397 6.17971 16.7658 6.12324 16.8571 6.03196C16.9483 5.94068 17.0049 5.81464 17.0049 5.67701V4.48321V3.26913C17.0049 3.13149 16.9484 3.00546 16.8571 2.91418C16.7658 2.8229 16.6397 2.76642 16.5021 2.76642Z"/>
</mask>
<path d="M7.10979 4.10072H9.90297V3.26913C9.90297 2.91995 10.045 2.60272 10.2753 2.37233C10.5042 2.14341 10.8214 2 11.1721 2C11.5212 2 11.8386 2.14346 12.0674 2.37233C12.2978 2.60272 12.4412 2.91995 12.4412 3.26913V4.10072H15.2329V3.26913C15.2329 2.91995 15.3764 2.60272 15.6053 2.37233C15.8356 2.14341 16.1529 2 16.502 2C16.8512 2 17.1685 2.14346 17.3989 2.37233C17.6292 2.60272 17.7712 2.91995 17.7712 3.26913V4.10072H20.5643V3.27925C20.5643 2.93013 20.7063 2.61279 20.9367 2.38245C21.1655 2.15358 21.4828 2.01017 21.8335 2.01017C22.1826 2.01017 22.4999 2.15358 22.7288 2.38245C22.9592 2.61279 23.1026 2.93013 23.1026 3.27925V4.10072H23.5228C24.1153 4.10072 24.6528 4.34261 25.0425 4.73094C25.4322 5.12064 25.6742 5.65815 25.6742 6.2506V10.2449C25.6742 10.4564 25.5018 10.6288 25.2902 10.6288C25.0787 10.6288 24.9063 10.4564 24.9063 10.2449V9.13946H14.7055C14.4926 9.13946 14.3216 8.9685 14.3216 8.75702C14.3216 8.54405 14.4926 8.37309 14.7055 8.37309H24.9063V6.25065C24.9063 5.86964 24.7513 5.52486 24.5006 5.27417C24.2485 5.0221 23.9037 4.86709 23.5227 4.86709H23.1025V5.68713C23.1025 6.03625 22.9591 6.35353 22.7287 6.58388C22.4998 6.81422 22.1826 6.9562 21.8334 6.9562C21.4827 6.9562 21.1655 6.81422 20.9365 6.58388C20.7062 6.35353 20.5642 6.03625 20.5642 5.68713V4.86709H17.7711V5.67696C17.7711 6.02613 17.6291 6.34336 17.3988 6.57376C17.1684 6.80267 16.8511 6.94608 16.5019 6.94608C16.1528 6.94608 15.8355 6.80262 15.6052 6.57376C15.3762 6.34336 15.2328 6.02613 15.2328 5.67696V4.86709H12.4411V5.67696C12.4411 6.02613 12.2977 6.34336 12.0673 6.57376C11.8384 6.80267 11.5211 6.94608 11.172 6.94608C10.8214 6.94608 10.5041 6.80262 10.2752 6.57376C10.0448 6.34336 9.90287 6.02613 9.90287 5.67696V4.86709H7.10979V5.67696C7.10979 6.02613 6.96632 6.34336 6.73746 6.57376C6.50711 6.80267 6.18983 6.94608 5.84066 6.94608C5.49153 6.94608 5.1742 6.80262 4.94385 6.57376C4.71494 6.34336 4.57153 6.02613 4.57153 5.67696V4.86709H4.14993C3.77035 4.86709 3.42409 5.0221 3.1735 5.27417C2.92287 5.52481 2.76637 5.86958 2.76637 6.25065V8.37314H12.9686C13.1802 8.37314 13.3525 8.5441 13.3525 8.75707C13.3525 8.9686 13.1802 9.13951 12.9686 9.13951H2.76642V20.4587C2.76642 20.6702 2.59547 20.8412 2.38398 20.8412C2.17244 20.8412 2.00005 20.6702 2.00005 20.4587V6.25065C2 5.65815 2.24195 5.12064 2.63165 4.73094C3.02135 4.34261 3.55886 4.10072 4.14993 4.10072H4.57153V3.26913C4.57153 2.91995 4.71351 2.60272 4.94385 2.37233C5.1742 2.14341 5.49153 2 5.84066 2C6.18983 2 6.50706 2.14346 6.73746 2.37233C6.96637 2.60272 7.10979 2.91995 7.10979 3.26913V4.10072ZM22.3856 18.9998C22.3856 18.7883 22.5565 18.6173 22.768 18.6173C22.981 18.6173 23.152 18.7883 23.152 18.9998V22.3754C23.152 22.4797 23.1114 22.5724 23.0433 22.642L20.7006 25.3975C20.5644 25.5598 20.324 25.5801 20.1617 25.4424C20.0009 25.3063 19.9806 25.0658 20.1168 24.9035L22.3856 22.2363V18.9998ZM20.0487 18.6245C19.8763 18.7492 19.6373 18.7101 19.5141 18.5391C19.3895 18.3681 19.4272 18.1291 19.5996 18.0045C20.0517 17.6756 20.5572 17.4163 21.102 17.2396C21.6279 17.0685 22.1886 16.9758 22.7681 16.9758C23.5287 16.9758 24.2517 17.1323 24.9065 17.4163V11.9805C24.9065 11.769 25.0789 11.598 25.2904 11.598C25.502 11.598 25.6744 11.769 25.6744 11.9805V17.8234C26.0047 18.0349 26.3104 18.2812 26.5871 18.5579C27.5635 19.5344 28.1676 20.8846 28.1676 22.3754C28.1676 23.8662 27.5635 25.2164 26.587 26.1929C25.609 27.1709 24.2603 27.775 22.768 27.775C21.2772 27.775 19.9284 27.1709 18.9505 26.1929C18.5797 25.822 18.2624 25.3975 18.0118 24.931H3.99349C3.44443 24.931 2.94602 24.708 2.5853 24.3472C2.22457 23.985 2 23.488 2 22.939V22.1943C2 21.9828 2.17244 21.8119 2.38393 21.8119C2.59542 21.8119 2.76637 21.9828 2.76637 22.1943V22.939C2.76637 23.2751 2.90544 23.5822 3.12715 23.8039C3.35024 24.027 3.65597 24.1647 3.99349 24.1647H17.6728C17.4757 23.6054 17.3685 23.0028 17.3685 22.3754C17.3685 21.8249 17.4526 21.2917 17.6076 20.7876C17.7684 20.2675 18.0046 19.7807 18.303 19.3417C18.4218 19.1664 18.6608 19.1215 18.8346 19.2404C19.0085 19.3591 19.0534 19.5982 18.9346 19.772C18.6782 20.1501 18.4754 20.5674 18.3377 21.0122C18.2073 21.441 18.1364 21.8989 18.1364 22.3755C18.1364 23.6548 18.655 24.8137 19.4923 25.6511C20.3312 26.49 21.4887 27.0086 22.768 27.0086C24.0473 27.0086 25.2063 26.49 26.0451 25.6511C26.8825 24.8137 27.4012 23.6548 27.4012 22.3755C27.4012 21.0962 26.8825 19.9372 26.0451 19.0998C25.2063 18.261 24.0473 17.7423 22.768 17.7423C22.2682 17.7423 21.7873 17.822 21.3381 17.9669C20.8716 18.119 20.437 18.3421 20.0487 18.6245ZM18.3711 10.7665H22.897C23.1085 10.7665 23.281 10.9374 23.281 11.1489V15.6749C23.281 15.8878 23.1085 16.0588 22.897 16.0588H18.3711C18.1595 16.0588 17.9871 15.8878 17.9871 15.6749V11.1489C17.9872 10.9374 18.1596 10.7665 18.3711 10.7665ZM22.5145 11.5328H18.755V15.2924H22.5145V11.5328ZM11.5734 17.2454H16.0994C16.3123 17.2454 16.4833 17.4178 16.4833 17.6293V22.1552C16.4833 22.3668 16.3123 22.5392 16.0994 22.5392H11.5734C11.3619 22.5392 11.191 22.3668 11.191 22.1552V17.6293C11.191 17.4178 11.3619 17.2454 11.5734 17.2454ZM15.7169 18.0132H11.9574V21.7728H15.7169V18.0132ZM11.5734 10.7665H16.0994C16.3123 10.7665 16.4833 10.9374 16.4833 11.1489V15.6749C16.4833 15.8878 16.3123 16.0588 16.0994 16.0588H11.5734C11.3619 16.0588 11.191 15.8878 11.191 15.6749V11.1489C11.191 10.9374 11.3619 10.7665 11.5734 10.7665ZM15.7169 11.5328H11.9574V15.2924H15.7169V11.5328ZM4.77581 17.2454H9.30316C9.5147 17.2454 9.68566 17.4178 9.68566 17.6293V22.1552C9.68566 22.3668 9.5147 22.5392 9.30316 22.5392H4.77581C4.56427 22.5392 4.39336 22.3668 4.39336 22.1552V17.6293C4.39336 17.4178 4.56432 17.2454 4.77581 17.2454ZM8.91929 18.0132H5.15974V21.7728H8.91929V18.0132ZM4.77581 10.7665H9.30316C9.5147 10.7665 9.68566 10.9374 9.68566 11.1489V15.6749C9.68566 15.8878 9.5147 16.0588 9.30316 16.0588H4.77581C4.56427 16.0588 4.39336 15.8878 4.39336 15.6749V11.1489C4.39336 10.9374 4.56432 10.7665 4.77581 10.7665ZM8.91929 11.5328H5.15974V15.2924H8.91929V11.5328ZM21.8336 2.77797C21.696 2.77797 21.5699 2.83445 21.4786 2.92573C21.3874 3.01701 21.3309 3.14166 21.3309 3.27925V4.48321V5.68718C21.3309 5.82476 21.3873 5.9508 21.4786 6.04208C21.5699 6.13336 21.696 6.18988 21.8336 6.18988C21.9712 6.18988 22.0958 6.13341 22.1871 6.04208C22.2784 5.9508 22.3349 5.82476 22.3349 5.68718V4.48321V3.27925C22.3349 3.14166 22.2784 3.01701 22.1871 2.92573C22.0958 2.8345 21.9712 2.77797 21.8336 2.77797ZM6.19566 2.91418C6.10438 2.82295 5.97834 2.76642 5.84071 2.76642C5.70312 2.76642 5.57704 2.8229 5.48576 2.91418C5.39448 3.00546 5.338 3.13149 5.338 3.26913V4.48321V5.67701C5.338 5.81464 5.39448 5.94068 5.48576 6.03196C5.57704 6.12319 5.70312 6.17971 5.84071 6.17971C5.97834 6.17971 6.10438 6.12324 6.19566 6.03196C6.28694 5.94068 6.34341 5.81464 6.34341 5.67701V4.48321V3.26913C6.34341 3.13144 6.28689 3.00546 6.19566 2.91418ZM11.1722 2.76642C11.033 2.76642 10.9085 2.8229 10.8172 2.91418C10.7259 3.00546 10.6694 3.13149 10.6694 3.26913V4.48321V5.67701C10.6694 5.81464 10.7259 5.94068 10.8172 6.03196C10.9085 6.12319 11.0331 6.17971 11.1722 6.17971C11.3097 6.17971 11.4343 6.12324 11.5256 6.03196C11.6169 5.94068 11.6734 5.81464 11.6734 5.67701V4.48321V3.26913C11.6734 3.13149 11.617 3.00546 11.5256 2.91418C11.4343 2.8229 11.3097 2.76642 11.1722 2.76642ZM16.5021 2.76642C16.3645 2.76642 16.2384 2.8229 16.1472 2.91418C16.0559 3.00546 15.9994 3.13149 15.9994 3.26913V4.48321V5.67701C15.9994 5.81464 16.0559 5.94068 16.1472 6.03196C16.2384 6.12319 16.3645 6.17971 16.5021 6.17971C16.6397 6.17971 16.7658 6.12324 16.8571 6.03196C16.9483 5.94068 17.0049 5.81464 17.0049 5.67701V4.48321V3.26913C17.0049 3.13149 16.9484 3.00546 16.8571 2.91418C16.7658 2.8229 16.6397 2.76642 16.5021 2.76642Z" fill="white"/>
<path d="M7.10979 4.10072H9.90297V3.26913C9.90297 2.91995 10.045 2.60272 10.2753 2.37233C10.5042 2.14341 10.8214 2 11.1721 2C11.5212 2 11.8386 2.14346 12.0674 2.37233C12.2978 2.60272 12.4412 2.91995 12.4412 3.26913V4.10072H15.2329V3.26913C15.2329 2.91995 15.3764 2.60272 15.6053 2.37233C15.8356 2.14341 16.1529 2 16.502 2C16.8512 2 17.1685 2.14346 17.3989 2.37233C17.6292 2.60272 17.7712 2.91995 17.7712 3.26913V4.10072H20.5643V3.27925C20.5643 2.93013 20.7063 2.61279 20.9367 2.38245C21.1655 2.15358 21.4828 2.01017 21.8335 2.01017C22.1826 2.01017 22.4999 2.15358 22.7288 2.38245C22.9592 2.61279 23.1026 2.93013 23.1026 3.27925V4.10072H23.5228C24.1153 4.10072 24.6528 4.34261 25.0425 4.73094C25.4322 5.12064 25.6742 5.65815 25.6742 6.2506V10.2449C25.6742 10.4564 25.5018 10.6288 25.2902 10.6288C25.0787 10.6288 24.9063 10.4564 24.9063 10.2449V9.13946H14.7055C14.4926 9.13946 14.3216 8.9685 14.3216 8.75702C14.3216 8.54405 14.4926 8.37309 14.7055 8.37309H24.9063V6.25065C24.9063 5.86964 24.7513 5.52486 24.5006 5.27417C24.2485 5.0221 23.9037 4.86709 23.5227 4.86709H23.1025V5.68713C23.1025 6.03625 22.9591 6.35353 22.7287 6.58388C22.4998 6.81422 22.1826 6.9562 21.8334 6.9562C21.4827 6.9562 21.1655 6.81422 20.9365 6.58388C20.7062 6.35353 20.5642 6.03625 20.5642 5.68713V4.86709H17.7711V5.67696C17.7711 6.02613 17.6291 6.34336 17.3988 6.57376C17.1684 6.80267 16.8511 6.94608 16.5019 6.94608C16.1528 6.94608 15.8355 6.80262 15.6052 6.57376C15.3762 6.34336 15.2328 6.02613 15.2328 5.67696V4.86709H12.4411V5.67696C12.4411 6.02613 12.2977 6.34336 12.0673 6.57376C11.8384 6.80267 11.5211 6.94608 11.172 6.94608C10.8214 6.94608 10.5041 6.80262 10.2752 6.57376C10.0448 6.34336 9.90287 6.02613 9.90287 5.67696V4.86709H7.10979V5.67696C7.10979 6.02613 6.96632 6.34336 6.73746 6.57376C6.50711 6.80267 6.18983 6.94608 5.84066 6.94608C5.49153 6.94608 5.1742 6.80262 4.94385 6.57376C4.71494 6.34336 4.57153 6.02613 4.57153 5.67696V4.86709H4.14993C3.77035 4.86709 3.42409 5.0221 3.1735 5.27417C2.92287 5.52481 2.76637 5.86958 2.76637 6.25065V8.37314H12.9686C13.1802 8.37314 13.3525 8.5441 13.3525 8.75707C13.3525 8.9686 13.1802 9.13951 12.9686 9.13951H2.76642V20.4587C2.76642 20.6702 2.59547 20.8412 2.38398 20.8412C2.17244 20.8412 2.00005 20.6702 2.00005 20.4587V6.25065C2 5.65815 2.24195 5.12064 2.63165 4.73094C3.02135 4.34261 3.55886 4.10072 4.14993 4.10072H4.57153V3.26913C4.57153 2.91995 4.71351 2.60272 4.94385 2.37233C5.1742 2.14341 5.49153 2 5.84066 2C6.18983 2 6.50706 2.14346 6.73746 2.37233C6.96637 2.60272 7.10979 2.91995 7.10979 3.26913V4.10072ZM22.3856 18.9998C22.3856 18.7883 22.5565 18.6173 22.768 18.6173C22.981 18.6173 23.152 18.7883 23.152 18.9998V22.3754C23.152 22.4797 23.1114 22.5724 23.0433 22.642L20.7006 25.3975C20.5644 25.5598 20.324 25.5801 20.1617 25.4424C20.0009 25.3063 19.9806 25.0658 20.1168 24.9035L22.3856 22.2363V18.9998ZM20.0487 18.6245C19.8763 18.7492 19.6373 18.7101 19.5141 18.5391C19.3895 18.3681 19.4272 18.1291 19.5996 18.0045C20.0517 17.6756 20.5572 17.4163 21.102 17.2396C21.6279 17.0685 22.1886 16.9758 22.7681 16.9758C23.5287 16.9758 24.2517 17.1323 24.9065 17.4163V11.9805C24.9065 11.769 25.0789 11.598 25.2904 11.598C25.502 11.598 25.6744 11.769 25.6744 11.9805V17.8234C26.0047 18.0349 26.3104 18.2812 26.5871 18.5579C27.5635 19.5344 28.1676 20.8846 28.1676 22.3754C28.1676 23.8662 27.5635 25.2164 26.587 26.1929C25.609 27.1709 24.2603 27.775 22.768 27.775C21.2772 27.775 19.9284 27.1709 18.9505 26.1929C18.5797 25.822 18.2624 25.3975 18.0118 24.931H3.99349C3.44443 24.931 2.94602 24.708 2.5853 24.3472C2.22457 23.985 2 23.488 2 22.939V22.1943C2 21.9828 2.17244 21.8119 2.38393 21.8119C2.59542 21.8119 2.76637 21.9828 2.76637 22.1943V22.939C2.76637 23.2751 2.90544 23.5822 3.12715 23.8039C3.35024 24.027 3.65597 24.1647 3.99349 24.1647H17.6728C17.4757 23.6054 17.3685 23.0028 17.3685 22.3754C17.3685 21.8249 17.4526 21.2917 17.6076 20.7876C17.7684 20.2675 18.0046 19.7807 18.303 19.3417C18.4218 19.1664 18.6608 19.1215 18.8346 19.2404C19.0085 19.3591 19.0534 19.5982 18.9346 19.772C18.6782 20.1501 18.4754 20.5674 18.3377 21.0122C18.2073 21.441 18.1364 21.8989 18.1364 22.3755C18.1364 23.6548 18.655 24.8137 19.4923 25.6511C20.3312 26.49 21.4887 27.0086 22.768 27.0086C24.0473 27.0086 25.2063 26.49 26.0451 25.6511C26.8825 24.8137 27.4012 23.6548 27.4012 22.3755C27.4012 21.0962 26.8825 19.9372 26.0451 19.0998C25.2063 18.261 24.0473 17.7423 22.768 17.7423C22.2682 17.7423 21.7873 17.822 21.3381 17.9669C20.8716 18.119 20.437 18.3421 20.0487 18.6245ZM18.3711 10.7665H22.897C23.1085 10.7665 23.281 10.9374 23.281 11.1489V15.6749C23.281 15.8878 23.1085 16.0588 22.897 16.0588H18.3711C18.1595 16.0588 17.9871 15.8878 17.9871 15.6749V11.1489C17.9872 10.9374 18.1596 10.7665 18.3711 10.7665ZM22.5145 11.5328H18.755V15.2924H22.5145V11.5328ZM11.5734 17.2454H16.0994C16.3123 17.2454 16.4833 17.4178 16.4833 17.6293V22.1552C16.4833 22.3668 16.3123 22.5392 16.0994 22.5392H11.5734C11.3619 22.5392 11.191 22.3668 11.191 22.1552V17.6293C11.191 17.4178 11.3619 17.2454 11.5734 17.2454ZM15.7169 18.0132H11.9574V21.7728H15.7169V18.0132ZM11.5734 10.7665H16.0994C16.3123 10.7665 16.4833 10.9374 16.4833 11.1489V15.6749C16.4833 15.8878 16.3123 16.0588 16.0994 16.0588H11.5734C11.3619 16.0588 11.191 15.8878 11.191 15.6749V11.1489C11.191 10.9374 11.3619 10.7665 11.5734 10.7665ZM15.7169 11.5328H11.9574V15.2924H15.7169V11.5328ZM4.77581 17.2454H9.30316C9.5147 17.2454 9.68566 17.4178 9.68566 17.6293V22.1552C9.68566 22.3668 9.5147 22.5392 9.30316 22.5392H4.77581C4.56427 22.5392 4.39336 22.3668 4.39336 22.1552V17.6293C4.39336 17.4178 4.56432 17.2454 4.77581 17.2454ZM8.91929 18.0132H5.15974V21.7728H8.91929V18.0132ZM4.77581 10.7665H9.30316C9.5147 10.7665 9.68566 10.9374 9.68566 11.1489V15.6749C9.68566 15.8878 9.5147 16.0588 9.30316 16.0588H4.77581C4.56427 16.0588 4.39336 15.8878 4.39336 15.6749V11.1489C4.39336 10.9374 4.56432 10.7665 4.77581 10.7665ZM8.91929 11.5328H5.15974V15.2924H8.91929V11.5328ZM21.8336 2.77797C21.696 2.77797 21.5699 2.83445 21.4786 2.92573C21.3874 3.01701 21.3309 3.14166 21.3309 3.27925V4.48321V5.68718C21.3309 5.82476 21.3873 5.9508 21.4786 6.04208C21.5699 6.13336 21.696 6.18988 21.8336 6.18988C21.9712 6.18988 22.0958 6.13341 22.1871 6.04208C22.2784 5.9508 22.3349 5.82476 22.3349 5.68718V4.48321V3.27925C22.3349 3.14166 22.2784 3.01701 22.1871 2.92573C22.0958 2.8345 21.9712 2.77797 21.8336 2.77797ZM6.19566 2.91418C6.10438 2.82295 5.97834 2.76642 5.84071 2.76642C5.70312 2.76642 5.57704 2.8229 5.48576 2.91418C5.39448 3.00546 5.338 3.13149 5.338 3.26913V4.48321V5.67701C5.338 5.81464 5.39448 5.94068 5.48576 6.03196C5.57704 6.12319 5.70312 6.17971 5.84071 6.17971C5.97834 6.17971 6.10438 6.12324 6.19566 6.03196C6.28694 5.94068 6.34341 5.81464 6.34341 5.67701V4.48321V3.26913C6.34341 3.13144 6.28689 3.00546 6.19566 2.91418ZM11.1722 2.76642C11.033 2.76642 10.9085 2.8229 10.8172 2.91418C10.7259 3.00546 10.6694 3.13149 10.6694 3.26913V4.48321V5.67701C10.6694 5.81464 10.7259 5.94068 10.8172 6.03196C10.9085 6.12319 11.0331 6.17971 11.1722 6.17971C11.3097 6.17971 11.4343 6.12324 11.5256 6.03196C11.6169 5.94068 11.6734 5.81464 11.6734 5.67701V4.48321V3.26913C11.6734 3.13149 11.617 3.00546 11.5256 2.91418C11.4343 2.8229 11.3097 2.76642 11.1722 2.76642ZM16.5021 2.76642C16.3645 2.76642 16.2384 2.8229 16.1472 2.91418C16.0559 3.00546 15.9994 3.13149 15.9994 3.26913V4.48321V5.67701C15.9994 5.81464 16.0559 5.94068 16.1472 6.03196C16.2384 6.12319 16.3645 6.17971 16.5021 6.17971C16.6397 6.17971 16.7658 6.12324 16.8571 6.03196C16.9483 5.94068 17.0049 5.81464 17.0049 5.67701V4.48321V3.26913C17.0049 3.13149 16.9484 3.00546 16.8571 2.91418C16.7658 2.8229 16.6397 2.76642 16.5021 2.76642Z" stroke="white" stroke-width="0.6" mask="url(#path-1-outside-1_145_122)"/>
</svg>
