<svg width="24" height="24" viewBox="0 0 24 24" fill="none" xmlns="http://www.w3.org/2000/svg">
<path d="M7.03753 7.03753V10.5813M17.1626 7.03753V10.5813M16.6564 14.1251H18.6814C19.5202 14.1251 20.2002 13.4451 20.2002 12.6063V5.51877C20.2002 4.67998 19.5202 4 18.6814 4H5.51877C4.67998 4 4 4.67998 4 5.51877V12.6063C4 13.4451 4.67998 14.1251 5.51877 14.1251H7.54379M9.23547 17.3362L12.0993 20.2M12.0993 20.2L14.7702 17.5291M12.0993 20.2L12.0994 14.3423M14.1251 9.06256C14.1251 10.1809 13.2185 11.0876 12.1001 11.0876C10.9817 11.0876 10.0751 10.1809 10.0751 9.06256C10.0751 7.94417 10.9817 7.03753 12.1001 7.03753C13.2185 7.03753 14.1251 7.94417 14.1251 9.06256Z" stroke="white" stroke-width="1.5" stroke-linecap="round" stroke-linejoin="round"/>
</svg>
