<svg width="21" height="21" viewBox="0 0 21 21" fill="none" xmlns="http://www.w3.org/2000/svg">
<path d="M17.577 18V16.3333C17.577 15.4493 17.2258 14.6014 16.6007 13.9763C15.9756 13.3512 15.1277 13 14.2437 13H7.57699C6.69293 13 5.84508 13.3512 5.21996 13.9763C4.59484 14.6014 4.24365 15.4493 4.24365 16.3333V18" stroke="white" stroke-width="1.66667" stroke-linecap="round" stroke-linejoin="round"/>
<path d="M10.91 3C10.0259 3 9.17809 3.35119 8.55297 3.97631C7.92785 4.60143 7.57666 5.44928 7.57666 6.33333C7.57666 7.21739 7.92785 8.06523 8.55297 8.69036C9.17809 9.31548 10.0259 9.66667 10.91 9.66667C11.794 9.66667 12.6419 9.31548 13.267 8.69036C13.8921 8.06523 14.2433 7.21739 14.2433 6.33333C14.2433 5.44928 13.8921 4.60143 13.267 3.97631C12.6419 3.35119 11.794 3 10.91 3Z" stroke="white" stroke-width="1.66667" stroke-linecap="round" stroke-linejoin="round"/>
</svg>
