<svg width="31" height="31" viewBox="0 0 31 31" fill="none" xmlns="http://www.w3.org/2000/svg">
<g clip-path="url(#clip0_145_420)">
<g clip-path="url(#clip1_145_420)">
<g clip-path="url(#clip2_145_420)">
<path d="M25.0815 6.05975H6.55859V22.9061H25.0815V6.05975Z" fill="white"/>
<path fill-rule="evenodd" clip-rule="evenodd" d="M30.8199 15.92C30.8199 24.1989 24.1087 30.91 15.8299 30.91C7.5511 30.91 0.839844 24.1989 0.839844 15.92C0.839844 7.64127 7.5511 0.930008 15.8299 0.930008C24.1087 0.930008 30.8199 7.64127 30.8199 15.92ZM11.5821 21.8853H8.67298C8.06168 21.8853 7.75972 21.8853 7.57561 21.7675C7.37675 21.6386 7.25523 21.425 7.2405 21.1893C7.22944 20.9721 7.38044 20.7069 7.6824 20.1766L14.8654 7.51554C15.1711 6.97789 15.3257 6.70907 15.5209 6.60965C15.7308 6.50286 15.9812 6.50286 16.1911 6.60965C16.3863 6.70907 16.541 6.97789 16.8466 7.51554L18.3233 10.0933L18.3308 10.1064C18.6609 10.6832 18.8283 10.9757 18.9014 11.2827C18.9824 11.6178 18.9824 11.9713 18.9014 12.3064C18.8278 12.6157 18.6621 12.9103 18.327 13.4959L14.5539 20.1656L14.5441 20.1827C14.2118 20.7642 14.0434 21.0589 13.81 21.2813C13.5559 21.5244 13.2503 21.7011 12.9152 21.8007C12.6095 21.8853 12.2671 21.8853 11.5821 21.8853ZM18.9287 21.8853H23.0971C23.7121 21.8853 24.0215 21.8853 24.2057 21.7639C24.4045 21.635 24.5297 21.4176 24.5408 21.1821C24.5514 20.9719 24.4037 20.717 24.1143 20.2176C24.1043 20.2006 24.0943 20.1833 24.0842 20.1657L21.9961 16.5937L21.9724 16.5535C21.679 16.0573 21.5309 15.8067 21.3406 15.7099C21.1309 15.6031 20.884 15.6031 20.6742 15.7099C20.4827 15.8093 20.328 16.0708 20.0224 16.5974L17.9418 20.1693L17.9346 20.1816C17.6301 20.7074 17.4778 20.9701 17.4888 21.1857C17.5036 21.4214 17.6251 21.6386 17.8239 21.7675C18.0044 21.8853 18.3137 21.8853 18.9287 21.8853Z" fill="#E84142"/>
</g>
</g>
</g>
<defs>
<clipPath id="clip0_145_420">
<rect width="30" height="30.02" fill="white" transform="translate(0.830078 0.910034)"/>
</clipPath>
<clipPath id="clip1_145_420">
<rect width="30" height="30.02" fill="white" transform="translate(0.830078 0.910034)"/>
</clipPath>
<clipPath id="clip2_145_420">
<rect width="30" height="30.02" fill="white" transform="translate(0.830078 0.910049)"/>
</clipPath>
</defs>
</svg>
