<svg width="31" height="31" viewBox="0 0 31 31" fill="none" xmlns="http://www.w3.org/2000/svg">
<g clip-path="url(#clip0_145_430)">
<g clip-path="url(#clip1_145_430)">
<g clip-path="url(#clip2_145_430)">
<path d="M29.6816 9.95753C28.2754 8.65909 26.3301 6.67628 24.7457 5.27003L24.652 5.20441C24.496 5.07915 24.3201 4.98091 24.1316 4.91378C20.3113 4.20128 2.53164 0.877843 2.18477 0.92003C2.08757 0.933643 1.99466 0.968883 1.91289 1.02316L1.82383 1.09347C1.71416 1.20484 1.63087 1.33939 1.58008 1.48722L1.55664 1.54816V1.88097V1.93253C3.5582 7.50597 11.4613 25.7638 13.0176 30.0482C13.1113 30.3388 13.2895 30.8919 13.6223 30.92H13.6973C13.8754 30.92 14.6348 29.9169 14.6348 29.9169C14.6348 29.9169 28.2098 13.4544 29.5832 11.7013C29.761 11.4853 29.9179 11.253 30.052 11.0075C30.0862 10.8154 30.07 10.6178 30.0051 10.4337C29.9402 10.2497 29.8288 10.0857 29.6816 9.95753ZM18.1176 11.8747L23.9113 7.07003L27.3098 10.2013L18.1176 11.8747ZM15.8676 11.5607L5.89258 3.38566L22.0316 6.36222L15.8676 11.5607ZM16.7676 13.7028L26.977 12.0575L15.3051 26.12L16.7676 13.7028ZM4.53789 4.20128L15.0332 13.1075L13.5145 26.1294L4.53789 4.20128Z" fill="#FF060A"/>
</g>
</g>
</g>
<defs>
<clipPath id="clip0_145_430">
<rect width="30" height="30.02" fill="white" transform="translate(0.830078 0.910034)"/>
</clipPath>
<clipPath id="clip1_145_430">
<rect width="30" height="30.02" fill="white" transform="translate(0.830078 0.910034)"/>
</clipPath>
<clipPath id="clip2_145_430">
<rect width="30" height="30" fill="white" transform="translate(0.830078 0.920029)"/>
</clipPath>
</defs>
</svg>
