<svg width="31" height="31" viewBox="0 0 31 31" fill="none" xmlns="http://www.w3.org/2000/svg">
<g clip-path="url(#clip0_145_425)">
<g clip-path="url(#clip1_145_425)">
<g clip-path="url(#clip2_145_425)">
<path d="M15.8301 30.92C24.1143 30.92 30.8301 24.2043 30.8301 15.92C30.8301 7.63576 24.1143 0.920029 15.8301 0.920029C7.54581 0.920029 0.830078 7.63576 0.830078 15.92C0.830078 24.2043 7.54581 30.92 15.8301 30.92Z" fill="#0AC18E"/>
<path d="M20.5089 10.8832C19.7551 9.17383 18.0229 8.80835 15.9023 9.16241L15.2209 6.52028L13.6143 6.93525L14.2843 9.56977C13.8617 9.67637 13.4277 9.76774 12.9975 9.88957L12.3275 7.27028L10.7209 7.68525L11.4023 10.3274C11.0559 10.4264 8.15869 11.1688 8.15869 11.1688L8.60032 12.8896C8.60032 12.8896 9.78052 12.5583 9.7691 12.585C10.4239 12.4137 10.7323 12.7411 10.877 13.0495L12.7501 20.2906C12.7729 20.5 12.7348 20.8578 12.2856 20.9797C12.3122 20.9949 11.1168 21.2804 11.1168 21.2804L11.2919 23.2868C11.2919 23.2868 14.1625 22.552 14.5394 22.4568L15.2285 25.1294L16.8351 24.7144L16.146 22.0228C16.5876 21.92 17.0178 21.8134 17.4366 21.703L18.1219 24.3794L19.7285 23.9644L19.0394 21.2957C21.514 20.6941 23.2615 19.1332 22.9036 16.7462C22.6752 15.3071 21.1029 14.1269 19.797 13.9936C20.6003 13.2817 21.0077 12.2424 20.5089 10.8832ZM19.7361 17.184C20.0559 19.5482 16.7704 19.8375 15.6853 20.1231L14.7412 16.5863C15.83 16.3007 19.1955 15.1015 19.7361 17.184ZM17.7564 12.368C18.0952 14.4695 15.2856 14.7132 14.3795 14.9454L13.5191 11.736C14.429 11.5114 17.0673 10.4226 17.7564 12.368Z" fill="white"/>
</g>
</g>
</g>
<defs>
<clipPath id="clip0_145_425">
<rect width="30" height="30.02" fill="white" transform="translate(0.830078 0.910034)"/>
</clipPath>
<clipPath id="clip1_145_425">
<rect width="30" height="30.02" fill="white" transform="translate(0.830078 0.910034)"/>
</clipPath>
<clipPath id="clip2_145_425">
<rect width="30" height="30" fill="white" transform="translate(0.830078 0.920029)"/>
</clipPath>
</defs>
</svg>
