<svg width="31" height="31" viewBox="0 0 31 31" fill="none" xmlns="http://www.w3.org/2000/svg">
<g clip-path="url(#clip0_145_256)">
<g clip-path="url(#clip1_145_256)">
<g clip-path="url(#clip2_145_256)">
<mask id="mask0_145_256" style="mask-type:luminance" maskUnits="userSpaceOnUse" x="0" y="0" width="31" height="31">
<path d="M30.8301 0.920029H0.830078V30.92H30.8301V0.920029Z" fill="white"/>
</mask>
<g mask="url(#mask0_145_256)">
<path d="M15.8301 30.92C24.1144 30.92 30.8301 24.2043 30.8301 15.92C30.8301 7.63575 24.1144 0.920029 15.8301 0.920029C7.5458 0.920029 0.830078 7.63575 0.830078 15.92C0.830078 24.2043 7.5458 30.92 15.8301 30.92Z" fill="#26A17B"/>
<path fill-rule="evenodd" clip-rule="evenodd" d="M17.632 17.2164V17.2145C17.5288 17.222 16.9973 17.2539 15.8113 17.2539C14.8645 17.2539 14.1979 17.2258 13.9635 17.2145V17.2173C10.3185 17.057 7.59789 16.4223 7.59789 15.663C7.59789 14.9045 10.3185 14.2698 13.9635 14.1067V16.5855C14.2016 16.6023 14.8841 16.6427 15.8273 16.6427C16.9588 16.6427 17.526 16.5958 17.632 16.5864V14.1086C21.2695 14.2708 23.9835 14.9055 23.9835 15.663C23.9835 16.4223 21.2695 17.0552 17.632 17.2164ZM17.632 13.8508V11.6327H22.7076V8.2502H8.8879V11.6327H13.9635V13.8498C9.83852 14.0392 6.73633 14.8567 6.73633 15.8355C6.73633 16.8142 9.83852 17.6308 13.9635 17.8211V24.9292H17.632V17.8192C21.7504 17.6298 24.8451 16.8133 24.8451 15.8355C24.8451 14.8577 21.7504 14.0411 17.632 13.8508Z" fill="white"/>
</g>
</g>
</g>
</g>
<defs>
<clipPath id="clip0_145_256">
<rect width="30" height="30.02" fill="white" transform="translate(0.830078 0.910034)"/>
</clipPath>
<clipPath id="clip1_145_256">
<rect width="30" height="30.02" fill="white" transform="translate(0.830078 0.910034)"/>
</clipPath>
<clipPath id="clip2_145_256">
<rect width="30" height="30" fill="white" transform="translate(0.830078 0.920029)"/>
</clipPath>
</defs>
</svg>
