<svg width="31" height="31" viewBox="0 0 31 31" fill="none" xmlns="http://www.w3.org/2000/svg">
<g clip-path="url(#clip0_145_276)">
<g clip-path="url(#clip1_145_276)">
<g clip-path="url(#clip2_145_276)">
<path d="M15.8301 30.92C24.1143 30.92 30.8301 24.2043 30.8301 15.92C30.8301 7.63576 24.1143 0.920029 15.8301 0.920029C7.54581 0.920029 0.830078 7.63576 0.830078 15.92C0.830078 24.2043 7.54581 30.92 15.8301 30.92Z" fill="#2E3742"/>
<path d="M23.2656 7.07237H26.3008L19.9844 13.3264C17.697 15.5901 13.9883 15.5901 11.6992 13.3264L5.38037 7.07237H8.41799L13.2168 11.8232C13.916 12.5123 14.8583 12.8986 15.84 12.8986C16.8217 12.8986 17.7639 12.5123 18.4631 11.8232L23.2656 7.07237Z" fill="white"/>
<path d="M8.379 24.463H5.3418L11.6992 18.1704C13.9867 15.9067 17.6953 15.9067 19.9844 18.1704L26.3418 24.463H23.3066L18.4668 19.6736C17.7676 18.9845 16.8253 18.5982 15.8436 18.5982C14.8619 18.5982 13.9197 18.9845 13.2205 19.6736L8.379 24.463Z" fill="white"/>
</g>
</g>
</g>
<defs>
<clipPath id="clip0_145_276">
<rect width="30" height="30.02" fill="white" transform="translate(0.830078 0.910034)"/>
</clipPath>
<clipPath id="clip1_145_276">
<rect width="30" height="30.02" fill="white" transform="translate(0.830078 0.910034)"/>
</clipPath>
<clipPath id="clip2_145_276">
<rect width="30" height="30" fill="white" transform="translate(0.830078 0.920029)"/>
</clipPath>
</defs>
</svg>
