<svg width="31" height="31" viewBox="0 0 31 31" fill="none" xmlns="http://www.w3.org/2000/svg">
<g clip-path="url(#clip0_145_284)">
<g clip-path="url(#clip1_145_284)">
<g clip-path="url(#clip2_145_284)">
<path d="M15.8301 30.92C24.1144 30.92 30.8301 24.2043 30.8301 15.92C30.8301 7.63576 24.1144 0.920029 15.8301 0.920029C7.54581 0.920029 0.830078 7.63576 0.830078 15.92C0.830078 24.2043 7.54581 30.92 15.8301 30.92Z" fill="#988430"/>
<path d="M15.8301 30.4396C23.849 30.4396 30.3496 23.9389 30.3496 15.92C30.3496 7.90112 23.849 1.40051 15.8301 1.40051C7.81116 1.40051 1.31055 7.90112 1.31055 15.92C1.31055 23.9389 7.81116 30.4396 15.8301 30.4396Z" fill="#7A6A2A"/>
<path d="M15.8303 30.1336C23.6803 30.1336 30.0439 23.77 30.0439 15.92C30.0439 8.07008 23.6803 1.70644 15.8303 1.70644C7.98034 1.70644 1.6167 8.07008 1.6167 15.92C1.6167 23.77 7.98034 30.1336 15.8303 30.1336Z" fill="#BA9F33"/>
<path fill-rule="evenodd" clip-rule="evenodd" d="M7.38813 14.3181C7.30317 14.2405 7.21341 14.1628 7.13085 14.0852C7.04829 14.0076 6.96349 13.9298 6.87853 13.8522L6.62605 13.6122C6.58477 13.5709 6.54109 13.5346 6.49981 13.4932C6.45853 13.4568 6.41005 13.4156 6.36877 13.3791C6.03373 13.0612 5.69677 12.7432 5.36637 12.4252C5.70861 12.7383 6.04365 13.0492 6.38589 13.3669L6.50477 13.486C6.54605 13.5271 6.58973 13.5636 6.63101 13.6048L6.88333 13.8378C6.96829 13.9154 7.05085 13.9932 7.13581 14.0778C7.22077 14.1624 7.30333 14.2404 7.38829 14.3178L7.38813 14.3181ZM2.94157 14.2701C2.94157 14.2701 4.15997 14.3962 4.75469 14.4812C5.30557 14.5589 7.02893 14.8234 7.02893 14.8234L2.94157 14.2701ZM2.94157 14.2701C3.28381 14.2992 3.62605 14.3356 3.96829 14.372C4.14301 14.389 4.31053 14.4084 4.47805 14.4253L4.73517 14.4546C4.82013 14.4666 4.90269 14.4788 4.98765 14.4909L6.00717 14.6535L6.51677 14.7384C6.68429 14.7676 6.85181 14.7992 7.02653 14.8284C6.85901 14.8114 6.68429 14.7871 6.51677 14.7628L6.00717 14.69L4.98765 14.5396C4.90269 14.5274 4.82013 14.5103 4.73517 14.4983L4.47789 14.4687C4.31037 14.4517 4.13565 14.4274 3.96813 14.4079C3.62589 14.3668 3.28365 14.3229 2.94141 14.2696L2.94157 14.2701ZM6.90765 15.1408C6.90765 15.1408 5.60669 15.4711 5.16733 15.5973C4.73533 15.7162 3.42701 16.1143 3.42701 16.1143L6.90749 15.141L6.90765 15.1408Z" fill="#CFB66C"/>
<path fill-rule="evenodd" clip-rule="evenodd" d="M6.90773 15.1408C6.61893 15.2258 6.33173 15.3083 6.03877 15.3861L5.16981 15.6191C4.88101 15.704 4.59381 15.7866 4.30581 15.8715L3.87381 15.9904C3.73061 16.0317 3.58501 16.068 3.43701 16.1095C3.58005 16.0615 3.72581 16.0123 3.86901 15.9711L4.30101 15.8328C4.58981 15.7429 4.87701 15.6579 5.16501 15.5682C5.45861 15.4954 5.74757 15.4176 6.04117 15.3472C6.32021 15.2768 6.61397 15.2066 6.90773 15.141V15.1408ZM3.60933 16.9152C3.75237 16.8618 5.40293 16.0925 5.78645 15.9128C5.97845 15.8229 6.53653 15.6248 6.53653 15.6248L3.60933 16.9152Z" fill="#CFB66C"/>
<path fill-rule="evenodd" clip-rule="evenodd" d="M3.60905 16.9152C3.73513 16.8672 3.85417 16.8085 3.97545 16.7527L4.33465 16.5851L5.05561 16.2381C5.29561 16.124 5.52889 15.9981 5.77641 15.8909C5.90265 15.8376 6.02889 15.7939 6.15497 15.7527L6.34697 15.692C6.41241 15.6751 6.47321 15.6555 6.53897 15.6386C6.29897 15.7527 6.04633 15.8498 5.80601 15.9613C5.56601 16.0803 5.32057 16.1775 5.07289 16.2842L4.33993 16.6069C4.09385 16.7066 3.85385 16.8133 3.60889 16.9152H3.60905ZM3.76905 17.5872C3.76905 17.5872 5.26409 16.7111 5.77865 16.4295C6.04809 16.2791 6.91945 15.8469 6.91945 15.8469L3.76905 17.5872Z" fill="#CFB66C"/>
<path fill-rule="evenodd" clip-rule="evenodd" d="M3.76953 17.5875C4.02185 17.4322 4.27913 17.2744 4.53641 17.1143L4.92041 16.8811C5.05145 16.8035 5.17769 16.7307 5.31129 16.6531C5.44233 16.5754 5.56857 16.4978 5.70201 16.425C5.76554 16.3858 5.83209 16.3517 5.90105 16.3231L6.10489 16.2211C6.37433 16.0901 6.64377 15.9565 6.92777 15.8424C6.67049 16.0051 6.40585 16.1435 6.14137 16.2866C6.01033 16.3594 5.87673 16.425 5.74569 16.4978C5.61465 16.5706 5.48841 16.6483 5.35481 16.7187C5.22377 16.7963 5.09753 16.8691 4.96409 16.9395L4.56841 17.1555L3.76985 17.5875H3.76953ZM6.90777 16.0389C6.90777 16.0389 5.97817 16.7525 5.67721 16.9807C5.37625 17.2088 4.49033 17.8496 4.49033 17.8496L6.90777 16.0389Z" fill="#CFB66C"/>
<path fill-rule="evenodd" clip-rule="evenodd" d="M12.2428 21.7938L11.7671 20.8933L12.0437 19.7671L14.017 19.005L13.1772 17.2818L13.5922 15.5415L14.3714 13.9831L16.7793 13.6045L18.5485 11.9176L22.369 12.2064L23.1189 16.2914L21.6748 21.4346L20.852 24.0973L17.517 24.2236L15.9685 23.1508L14.1554 22.3933L12.2428 21.7938Z" fill="#E2CC85"/>
<path fill-rule="evenodd" clip-rule="evenodd" d="M18.0921 21.7647C18.0921 21.7647 17.6308 21.9759 16.8441 21.9272C16.6164 21.6215 15.0219 21.4783 15.0219 21.4783C15.0219 21.4783 14.8228 21.4176 14.4708 21.5632C14.1166 21.7072 13.7815 21.6895 13.4684 21.7671C13.1553 21.8447 12.8444 21.437 12.6044 21.352C12.3644 21.2623 12.0462 21.0463 12.0462 21.0463L11.3742 20.9807L10.0247 20.4103L7.88089 18.2744L7.29833 19.1864L7.11865 20.3151L7.76681 21.6525L9.51193 23.2423L12.9148 24.1063L14.9318 23.512L17.4585 22.444L18.0921 21.7645V21.7647Z" fill="#F1D789"/>
<path fill-rule="evenodd" clip-rule="evenodd" d="M6.00254 14.2162L6.43454 12.908L6.94926 12.0632L8.60686 11.9248L8.10926 13.3764L6.7235 15.8424L7.2987 18.0439L6.27934 18.5535L5.96606 18.073L5.71374 16.9711L5.69678 15.7332L6.00254 14.2162Z" fill="#F4ECB4"/>
<path fill-rule="evenodd" clip-rule="evenodd" d="M7.86149 21.6749L7.54357 21.2308C7.54357 21.2308 7.45861 21.0195 7.50725 20.8351C7.55525 20.6482 7.54837 20.636 7.52421 20.5656C7.50005 20.4952 7.29605 20.2525 7.30821 20.0437C7.32021 19.8325 7.29125 19.7621 7.44645 19.5948C7.60901 19.4322 7.56053 19.1506 7.56053 19.1506L7.77173 19.2816L7.81973 19.2088C7.81973 19.2088 7.89733 19.2695 7.89733 19.3642C7.91429 19.2332 7.84389 18.6263 8.00405 18.488C8.16421 18.3498 8.44821 19.136 8.44821 19.136L8.27349 17.9952L7.82437 16.8255L7.02581 15.7575L6.97781 14.5802V14.4783C6.97781 14.4783 6.61125 15.0415 6.50933 15.4863C6.43653 15.792 6.61125 16.1634 6.57493 16.6028C6.54565 17.0397 6.50933 17.0056 6.61605 17.1788C6.72277 17.3519 6.98261 17.7079 6.88069 17.9652C6.79093 18.1861 6.48501 18.0308 6.48501 18.0308C6.48501 18.0308 6.42437 18.2103 6.34181 18.2759C6.31269 18.1692 6.28117 18.1012 6.22293 18.0359C6.21797 18.0772 6.20597 18.133 6.20597 18.133C6.20597 18.133 6.15253 17.9655 6.09909 17.7543C6.02645 17.4728 5.94869 17.1015 5.87829 16.9024C5.84917 17.0165 5.77637 17.3636 5.77637 17.3636L5.81765 17.8976L6.01669 18.6306L6.20869 19.1106L6.39557 19.698L6.55797 20.0925L6.68901 20.3935L6.80309 21.0708L7.35397 21.6532L7.64773 21.7844L7.86117 21.6751L7.86149 21.6749Z" fill="#F3E19D"/>
<path fill-rule="evenodd" clip-rule="evenodd" d="M6.2914 13.1482C6.2914 13.1482 5.89572 13.8202 5.7818 14.4976C5.66788 15.1751 5.5658 15.8909 5.6378 16.8131C5.7106 17.7429 5.849 18.3131 5.96068 18.721C6.15268 19.3983 6.64996 20.34 6.64996 20.34L6.66692 20.3035C6.58333 20.1451 6.51662 19.9783 6.46788 19.8059C6.40228 19.5487 6.37796 19.2429 6.31732 19.1045C6.26388 18.9663 6.17412 18.8472 6.13044 18.6773C6.08916 18.5147 6.08244 18.2575 5.95572 18.0658C5.90228 17.988 5.83668 17.7842 5.81732 17.5803C5.793 17.2744 5.82948 16.9322 5.80036 16.6507C5.74692 16.1823 5.7106 15.8643 5.75908 15.6191C5.80756 15.3738 6.0602 14.6775 6.21556 14.124C6.31748 13.7696 6.25668 13.4711 6.44356 13.1627C6.63044 12.857 6.74468 12.5875 6.7858 12.4007C6.8338 12.2307 6.29076 13.1482 6.29076 13.1482H6.2914Z" fill="#F2E8B0"/>
<path fill-rule="evenodd" clip-rule="evenodd" d="M8.16765 12.8788C8.16765 12.8788 7.96381 12.9396 7.86669 13.0463C7.76957 13.1482 7.72829 13.2332 7.59725 13.4055C7.46621 13.5778 7.45885 13.7186 7.35197 13.9346C7.24525 14.1458 7.00973 14.4637 6.98061 14.5778C6.95149 14.6919 6.90301 15.2258 6.84237 15.4783C6.78893 15.7308 6.90301 16.0415 6.90301 16.0415L7.04125 16.0122C7.04125 16.0122 7.04125 16.1919 7.17965 16.3133C7.31789 16.4322 7.34221 15.9103 7.34221 15.9103L7.85917 14.1652L8.63821 13.636L8.72317 13.2088L8.16733 12.8788H8.16765Z" fill="#F5EEC0"/>
<path fill-rule="evenodd" clip-rule="evenodd" d="M8.54614 13.6701C8.54614 13.6701 8.17958 13.6943 8.00006 13.8255C7.92726 13.8787 7.89814 13.9224 7.82054 13.988C7.67734 14.1069 7.53158 14.2162 7.46134 14.372C7.38358 14.5272 7.29862 14.7627 7.24038 15.2069C7.21606 15.3938 7.21606 15.5661 7.1991 15.7167C7.17478 15.9205 7.13846 16.0831 7.15782 16.1967C7.18214 16.4296 7.42246 16.5511 7.44582 16.8155L7.94342 16.5632L8.4119 14.716L9.4071 14.092L8.8439 13.461L8.5455 13.669L8.54614 13.6701Z" fill="#E6DB9D"/>
<path fill-rule="evenodd" clip-rule="evenodd" d="M5.92106 26.1087C5.92314 26.0904 5.92522 26.0722 5.9273 26.0535C5.99994 25.4295 6.01226 24.9565 6.06554 24.6604C6.14314 24.2405 6.19658 24.0843 6.18442 23.9272C6.16746 23.6749 6.1481 23.4904 6.17242 23.2962C6.20874 23.0389 6.46122 22.7332 6.45402 22.522C6.44906 22.3544 6.3641 22.2453 6.2913 22.1434C6.2185 22.0415 6.16026 21.9565 6.16026 21.9565C6.16026 21.9565 6.65786 21.6143 6.65306 20.2355C6.66322 20.2384 6.673 20.2425 6.68218 20.2477L6.9273 20.9442L7.09482 21.148L7.73802 22.3471L8.5657 23.1506L9.7889 23.9733L10.5559 24.808L10.6335 27.0338L9.63114 28.3348L9.46698 28.632C8.16277 27.9773 6.96681 27.1262 5.9209 26.1085L5.92106 26.1087Z" fill="#E5CB7A"/>
<path fill-rule="evenodd" clip-rule="evenodd" d="M8.98291 28.2379C8.98291 28.2379 8.99987 27.9613 9.22803 27.7816C9.26451 27.8423 9.28867 27.9007 9.28147 27.9442C9.32275 27.8715 9.61155 27.4055 10.2645 27.284C10.9175 27.1651 11.0752 26.6895 11.0752 26.6895L12.461 25.4298L14.046 23.9711L15.9732 23.2938L16.8738 23.0728C16.8738 23.0728 16.8908 23.1384 16.8568 23.284C17.0242 23.272 17.3955 23.1871 17.7815 23.0511C17.9368 22.9904 18.0826 22.9661 18.1602 23.0463C18.2743 23.153 18.2912 23.4055 18.2984 23.5559C18.4853 23.5146 18.7013 23.3351 18.8744 23.352C19.1512 23.3811 19.3964 23.7064 19.678 23.7064C20.0493 23.7064 20.2167 23.4783 20.4765 23.2986C20.6319 23.1919 20.8551 23.0586 20.9813 22.9685C21.2823 22.7475 24.4668 21.7743 24.4668 21.7743L25.5832 21.8471L25.7629 23.0461L25.6669 26.1805C25.6551 26.1919 25.6432 26.2037 25.6312 26.2151L20.5548 28.8664L13.518 29.9451C11.9417 29.6876 10.4206 29.1644 9.01939 28.3978L8.98339 28.2378L8.98291 28.2379Z" fill="#D8C173"/>
<path fill-rule="evenodd" clip-rule="evenodd" d="M6.34766 26.5074C6.44766 26.2983 6.53758 26.1234 6.55342 26.0608C6.5659 26.1869 6.58878 26.4635 6.63486 26.7576C6.53811 26.6754 6.44238 26.5919 6.34766 26.5072V26.5074Z" fill="#F1D789"/>
<path fill-rule="evenodd" clip-rule="evenodd" d="M11.4879 29.4571L12.398 29.204L12.4756 29.2283C12.4756 29.2283 12.5169 29.2527 12.5169 29.3351C12.631 29.2696 12.7281 29.2816 12.7985 29.2381C12.8348 29.3157 12.8711 29.573 13.0315 29.6045C13.1988 29.641 13.3785 29.5317 13.5606 29.3935C13.7401 29.2503 13.9446 29.0706 14.0993 28.9978C14.1561 29.1022 14.2063 29.2099 14.2499 29.3205C14.4537 29.1579 14.8081 28.4978 15.3129 28.5098C15.4588 28.165 15.7026 27.8705 16.014 27.6627C16.4825 27.3448 16.7761 27.3205 17.1427 27.3496C17.2882 27.1605 17.4677 27 17.6718 26.8763C17.7324 26.9007 17.8999 27.0026 18.1087 26.9055C18.3199 26.8085 18.5577 26.4322 18.8708 26.3837C19.0395 26.3605 19.2111 26.3965 19.3563 26.4856C19.3563 26.4856 20.2683 25.5802 20.8975 25.2792C20.8732 25.2064 20.8247 24.9322 21.5625 24.3253C21.6038 24.3618 21.5747 24.4637 21.6038 24.4693C21.6158 24.4693 21.7958 24.3917 22.0236 24.2168C22.3052 24.0058 22.6425 23.7848 22.8463 23.7242C23.2303 23.6101 23.6377 23.8431 23.6377 23.8431C23.6723 23.8188 23.7109 23.8007 23.7518 23.7896C23.8487 23.7727 23.9191 23.7605 23.9726 23.7416C23.9678 23.8679 24.0382 24.0839 23.9726 24.2707C24.0486 24.3135 24.1291 24.3477 24.2126 24.3727C24.1715 24.4624 24.0815 24.6906 23.9311 24.7999C24.0572 24.8605 24.0742 24.9309 24.2539 24.9919C24.1811 25.0938 24.0619 25.2687 24.0087 25.3759C23.9553 25.4899 23.7635 25.9632 23.6785 26.1427C23.5887 26.3224 23.4675 26.6525 23.4091 26.7187C23.3507 26.785 23.1396 27.0658 22.9771 27.204C23.1211 27.1506 23.7102 26.9711 23.9601 26.9031C23.8857 27.0122 23.5086 27.5717 23.146 28.1098C21.4101 29.1503 19.4724 29.8088 17.4619 30.0415C15.4515 30.2743 13.4145 30.0759 11.4868 29.4595L11.4879 29.4571Z" fill="#E0CD81"/>
<path fill-rule="evenodd" clip-rule="evenodd" d="M8.60597 13.6045C8.60597 13.6045 8.39493 13.6045 8.35365 13.6336C8.31237 13.6628 8.56485 13.7236 8.64245 13.7527C8.72005 13.7818 8.88757 13.9152 8.93125 14.0221C8.97253 14.124 10.4482 14.7186 10.4482 14.7186L11.4919 14.6652L11.8517 14.168L11.1672 13.5685L11.6472 12.1535L11.0114 12.2554L9.48229 13.1674L8.71525 13.4612L8.60597 13.6045Z" fill="#DFC57C"/>
<path fill-rule="evenodd" clip-rule="evenodd" d="M10.8982 14.073C10.9133 14.0974 10.9346 14.1174 10.9598 14.1311C10.9851 14.1447 11.0135 14.1514 11.0422 14.1506C11.2582 14.1506 11.4571 14.204 11.5397 14.3131C11.6781 14.488 12.0616 15.0463 12.0616 15.0463L12.979 15.3763L13.0382 14.296L12.0358 13.5995L10.895 14.0194V14.0728H10.8976L10.8982 14.073Z" fill="#E5CC7C"/>
<path fill-rule="evenodd" clip-rule="evenodd" d="M10.7178 14.4735C10.7178 14.4735 10.8852 14.4856 11.0964 14.4079C11.3076 14.3301 11.6546 14.1627 11.8052 14.2283C12.0162 14.3181 11.9726 14.5997 12.2009 14.8523C12.3391 15.0077 12.5916 15.0029 12.7348 15.1704C12.878 15.3379 13.3706 15.2602 13.3706 15.2602L13.5575 16.2682L12.8076 17.2295L12.5623 18.4235H11.5482L10.6218 18.056L10.1655 16.952L10.3937 15.8355L10.7178 14.4735Z" fill="#D2C281"/>
<path fill-rule="evenodd" clip-rule="evenodd" d="M12.6799 14.5219C12.705 14.5297 12.7312 14.5338 12.7575 14.5341C12.7284 14.5584 12.6676 14.6117 12.6919 14.7501C12.7162 14.8885 12.7938 15.0632 12.7284 15.1699C12.7806 15.2271 12.8196 15.295 12.8424 15.369C12.8837 15.488 12.8959 15.5971 13.1652 15.6143C13.1263 15.6382 13.0905 15.6667 13.0584 15.6992C13.0584 15.6992 13.2453 15.8618 13.34 16.0122C13.437 16.008 13.6943 15.928 13.6943 15.928L13.7477 15.9645L13.8618 15.9165C13.8618 15.9165 13.7551 15.8752 13.8327 15.6155C13.9055 15.3874 13.9711 15.3995 13.9767 15.3826C13.9823 15.3656 14.0301 15.1253 14.0301 15.0282C14.0664 14.9021 14.0956 14.5186 14.0956 14.5186L14.018 13.6715L13.5812 13.4069L13.226 13.064L12.8909 13.6951L12.6703 13.9151L12.6533 14.4611L12.6799 14.5219Z" fill="#E2C270"/>
<path fill-rule="evenodd" clip-rule="evenodd" d="M13.7305 13.8133C13.7305 13.8133 13.8081 14.0341 13.8373 14.204C13.8477 14.171 13.8534 14.1367 13.8543 14.1021C13.8543 14.1021 13.9149 14.4371 13.9269 14.5755C13.9513 14.5706 13.9749 14.5634 13.9804 14.5875C13.9858 14.6117 14.0412 14.8813 14.0284 15.0317C14.1295 14.865 14.2693 14.7251 14.4361 14.624C14.5332 14.5632 14.6473 14.4978 14.7663 14.4928C14.9532 14.488 15.089 14.6119 15.3124 14.6119C15.8511 14.6119 16.3391 14.2162 16.6983 14.0949C16.9628 14.005 17.1909 13.9395 17.3511 13.7938C17.4289 13.7283 17.5673 13.5827 17.6933 13.3666C17.8609 13.0786 18.0356 12.8279 18.2105 12.7963C18.1313 12.8109 18.0509 12.8166 17.9705 12.8133C17.9705 12.8133 18.0239 12.7599 18.1145 12.6871C18.205 12.6143 18.3135 12.5245 18.4687 12.5245C18.7455 12.5245 18.8837 12.5656 19.0391 12.5656C19.1945 12.5608 19.2842 12.5245 19.2842 12.5245C19.2842 12.5245 19.4469 12.6386 19.8133 12.6386C20.1799 12.6434 20.425 12.6749 20.6169 12.692C20.8087 12.7091 21.4517 12.6386 21.6362 12.644C21.7565 12.6487 21.8746 12.6776 21.9834 12.729L21.3887 11.001L19.2524 9.13379L17.9805 10.0343L16.0241 11.9906L14.1309 12.692L13.7353 13.1362V13.8133H13.7305Z" fill="#CCB360"/>
<path fill-rule="evenodd" clip-rule="evenodd" d="M17.9783 12.8229C17.9783 12.8229 18.0318 12.7696 18.1214 12.6968C18.211 12.624 18.3206 12.5341 18.4758 12.5341C18.7524 12.5341 18.8908 12.5754 19.0462 12.5754C19.2015 12.5706 19.2913 12.5341 19.2913 12.5341C19.2913 12.5341 19.4542 12.648 19.8204 12.648C20.187 12.6528 20.4321 12.6844 20.6239 12.7013C20.8158 12.7183 21.4588 12.648 21.6433 12.6533C21.7635 12.6578 21.8816 12.6867 21.9903 12.7383L21.7209 11.9591L21.4079 11.3645L20.5147 10.3863C20.5147 10.3863 19.4427 9.75523 19.4345 9.75043C19.4297 9.74563 19.0631 9.64851 19.0631 9.64851L18.0923 10.2359L17.2113 12.5151L17.1943 12.9951L17.7646 13.2645C17.9078 13.0245 18.0657 12.8325 18.2137 12.8082C18.0801 12.8228 17.9782 12.8228 17.9782 12.8228L17.9783 12.8229Z" fill="#D5B457"/>
<path fill-rule="evenodd" clip-rule="evenodd" d="M17.9659 12.9856C17.881 12.9904 17.8107 12.9735 17.7912 12.9128C17.7184 12.709 17.6602 12.6799 17.5992 12.6799C17.5382 12.6799 17.456 12.8109 17.4072 12.8229C17.3584 12.8349 17.3005 12.6725 17.3005 12.6725L17.247 12.6482C17.247 12.6482 16.9339 12.852 16.7131 13.0924C16.4923 13.3327 16.1306 13.7405 15.968 13.8132C15.8054 13.8858 15.247 13.9103 15.056 13.9516C14.865 13.9928 14.6531 14.1312 14.624 14.1628C14.5949 14.1943 14.7091 14.2282 14.7261 14.2597C14.743 14.2888 14.539 14.2767 14.5221 14.3077C14.5101 14.332 14.5701 14.4703 14.5998 14.5407C14.6519 14.5148 14.7091 14.5007 14.7672 14.4994C14.9541 14.4946 15.0901 14.6184 15.3133 14.6184C15.8522 14.6184 16.34 14.2228 16.6992 14.1013C16.9638 14.0116 17.192 13.946 17.3522 13.8004C17.4298 13.7349 17.5682 13.5892 17.6944 13.3732C17.7866 13.2252 17.8765 13.0868 17.9664 12.9848L17.9659 12.9856Z" fill="#D2B257"/>
<path fill-rule="evenodd" clip-rule="evenodd" d="M10.238 24.9978C10.238 24.9978 10.19 24.8181 9.74519 24.3546C9.61895 24.2236 9.54135 24.1146 9.45639 24.0367C9.24519 23.8375 9.12135 23.7842 8.97095 23.6701C8.64087 23.425 8.28167 23.425 8.00503 23.124C7.72839 22.8231 7.40599 22.248 7.18199 21.6604C6.96119 21.073 6.90039 20.8861 6.90039 20.8692C6.90039 20.8522 6.96119 20.7381 7.03879 20.7551C7.11639 20.772 7.11639 20.9224 7.13591 20.9589C7.17457 21.0185 7.21842 21.0745 7.26695 21.1263C7.38103 21.2575 7.54359 21.4143 7.62615 21.6482C7.60919 21.4492 7.54119 21.2284 7.54119 21.2284C7.54119 21.2284 7.96839 21.4978 8.33239 21.7792C8.69895 22.0608 8.84935 22.158 8.95639 22.3375C9.06343 22.517 9.31559 22.9904 9.43639 23.1288C9.55719 23.2672 11.2124 23.789 11.2124 23.789L11.9998 24.376L12.3906 25.2328L12.0847 25.7128L11.4974 25.8391L10.5434 25.4119L10.238 24.9976V24.9978Z" fill="#D2B159"/>
<path fill-rule="evenodd" clip-rule="evenodd" d="M8.11865 22.0463C8.11865 22.0463 8.31769 22.3642 8.80313 22.6651C9.24009 22.9298 9.93177 23.1701 10.5484 23.3133C10.9027 23.3983 11.2571 23.4637 11.575 23.4687C12.4318 23.4807 13.0215 23.2357 13.7523 23.1555C14.1479 23.1143 14.6334 23.0827 15.1382 22.9635C15.7862 22.8082 16.1697 22.6333 16.6916 22.3875C17.0702 22.2128 17.4174 22.0818 17.6988 21.9143C18.0945 21.6813 18.3833 21.4216 18.7183 21.344C18.6771 21.4581 18.6334 21.6619 18.3033 21.8731C18.478 21.8682 18.7183 21.8562 18.7183 21.8562C18.7183 21.8562 18.4854 21.9944 18.0751 22.3051C17.8227 22.4971 17.4878 22.8221 17.1455 23.0381C16.9246 23.1765 16.6843 23.2781 16.5265 23.361C16.1425 23.5722 15.9876 23.6789 15.7353 23.937C15.8251 23.9322 15.8324 23.937 15.8324 23.937C15.8324 23.937 15.5143 23.9783 15.2863 24.0995C15.2383 24.0995 15.1551 24.0826 15.0095 24.1239C14.8955 24.1602 14.7449 24.2429 14.5897 24.2864C14.3687 24.352 14.2961 24.3229 14.2961 24.3229L14.3324 24.3957C14.3324 24.3957 14.0444 24.3907 13.9484 24.4005C13.9654 24.4053 13.9606 24.4127 13.9606 24.4127C13.9437 24.4155 13.9275 24.4212 13.9126 24.4296C13.8664 24.4596 13.8156 24.4817 13.7622 24.4951C13.7331 24.4999 13.7087 24.4999 13.6723 24.5072C13.6844 24.5363 13.7791 24.6992 13.8228 24.7952C13.7865 24.8195 13.2403 25.2322 13.2403 25.2322C13.2572 25.2588 13.271 25.2873 13.2815 25.3171C13.2985 25.3704 13.3059 25.4482 13.3228 25.4845C13.3639 25.5573 13.3883 25.5695 13.3883 25.5695C13.3883 25.5695 13.3228 25.5816 13.2086 25.6107C13.1116 25.6351 12.9926 25.6762 12.8246 25.7005C12.773 25.7072 12.7212 25.7113 12.6692 25.7127C12.6935 25.7661 12.8003 25.9699 12.6036 26.2053C12.407 26.4407 12.3463 26.4749 12.2857 26.6253C12.2552 26.6022 12.2227 26.5819 12.1886 26.5645C12.1231 26.5354 12.0332 26.4919 12.0017 26.4335C11.9833 26.5113 11.959 26.5876 11.9289 26.6616C11.8683 26.8242 11.7785 26.9845 11.7615 27.1058C11.6959 27.033 11.5747 26.8898 11.4071 26.9189C11.2396 26.948 11.1062 27.1762 11.0771 27.2418C11.0771 27.2005 11.0479 27.169 11.0407 27.2175C11.0358 27.2709 10.9436 27.829 10.4291 28.2805C10.4243 28.1664 10.4243 27.9139 10.4121 27.8315C10.3641 27.8795 10.3054 27.9504 9.95577 28.101C9.61353 28.2514 9.66777 28.4019 9.66777 28.4019C9.66777 28.4019 9.63865 28.1619 9.82313 27.9091C10.01 27.6568 10.1241 27.5378 10.1241 27.5184C10.1211 27.4987 10.1127 27.4802 10.0998 27.465C10.0755 27.4407 10.027 27.4115 10.027 27.3922C10.0561 27.3802 10.3449 27.2418 10.3279 26.9552C10.311 26.6981 10.2019 26.5645 10.1241 26.4699C10.1121 26.4578 10.2383 26.368 10.2212 26.3389C10.2091 26.3219 10.0539 26.2077 10.0343 26.1469C10.0389 26.1106 10.0471 26.0749 10.0587 26.0402C10.0756 25.9867 10.0878 25.9503 10.083 25.9139C10.0708 25.8533 10.0052 25.6858 9.98585 25.6688C10.0028 25.6736 10.1241 25.6688 10.1241 25.6688C10.1241 25.6688 10.0271 25.5135 10.01 25.4407C9.99289 25.3679 9.95657 25.176 9.93721 25.1397C9.97849 25.1445 10.0804 25.1517 10.0804 25.1397C10.0854 25.1032 9.99065 25.0426 10.0324 24.9957C10.0615 25.0005 10.1174 25.0248 10.1707 25.0928C10.1415 25.0151 10.0931 24.8647 9.99097 24.804C10.039 24.7871 10.2022 24.7432 10.3454 24.8282C10.4886 24.9131 10.5374 25.032 10.5374 25.032C10.5374 25.032 10.6223 25.0976 10.7535 25.1947C10.9039 25.3136 11.0956 25.4827 11.4015 25.6024C11.4671 25.6389 11.6345 25.6389 11.7559 25.6146C11.8088 25.602 11.8595 25.5815 11.9063 25.5539C11.9232 25.544 11.9412 25.5358 11.9598 25.5296C11.9337 25.4773 11.9037 25.4269 11.87 25.3791C11.9113 25.3791 11.9598 25.384 11.9598 25.384C11.9598 25.384 11.9889 25.3184 11.8579 25.192C11.887 25.1629 11.9235 25.144 11.9235 25.0949C11.8822 25.0901 11.8094 25.0295 11.7924 25.0051C11.8166 24.9882 11.8531 24.9323 11.8943 24.9154C11.8579 24.8863 11.7681 24.7648 11.7268 24.7528C11.7662 24.7382 11.8044 24.7203 11.8409 24.6994C11.8409 24.6994 11.6371 24.6459 11.5715 24.6023C11.5059 24.5543 11.4089 24.4712 11.3507 24.4469C11.2899 24.4226 11.1831 24.4106 11.1395 24.3619C11.1806 24.3741 11.2462 24.3619 11.2948 24.3619C11.3311 24.3619 11.3483 24.3667 11.3603 24.3667C11.3555 24.3498 11.3555 24.3133 11.4502 24.3013C11.4957 24.2944 11.5399 24.2805 11.5812 24.26C11.5812 24.26 11.4913 24.2552 11.3892 24.1581C11.2871 24.061 11.2023 23.9834 11.1441 23.9712C11.0835 23.9591 10.9694 24.0125 10.899 24.0075C10.8019 23.9955 10.7606 23.9469 10.7606 23.9469C10.7606 23.9469 10.4379 23.976 9.72185 23.5392C9.10281 23.1605 8.83337 22.8256 8.83337 22.8256C8.77544 22.8046 8.71944 22.7786 8.66601 22.7479C8.43305 22.6266 8.11017 22.3741 8.11993 22.0439L8.11865 22.0463Z" fill="#C2A44D"/>
<path fill-rule="evenodd" clip-rule="evenodd" d="M17.0484 7.47827C17.1045 7.49651 17.1544 7.53017 17.1924 7.57539C17.3065 7.70643 17.3793 7.95395 17.1196 8.21859C17.2215 8.25491 17.2636 8.26659 17.3525 8.25491C17.2628 8.36179 17.0589 8.58995 17.0468 8.78899C17.0346 8.95155 17.1365 9.00019 17.1365 9.00019C17.1365 9.00019 16.9812 9.17971 16.974 9.48019C17.0473 9.39746 17.1276 9.32113 17.214 9.25203C17.3937 9.10883 17.6412 8.94627 17.8087 8.84435C17.8064 8.88707 17.8122 8.92984 17.8257 8.97043C17.8257 8.97043 18.1386 8.71315 18.4017 8.82739C18.5205 8.88083 18.4671 9.04819 18.4671 9.04819C18.4671 9.04819 18.6298 8.98755 18.7439 9.10163C18.858 9.21571 19.0193 9.50995 19.102 9.62403C19.1383 9.67747 19.233 9.77939 19.33 9.93715C19.4624 10.158 19.573 10.3913 19.6602 10.6336C19.665 10.5074 19.6965 10.3109 20.0559 10.4346C20.4151 10.5608 20.8228 10.8255 21.165 11.3466C21.5073 11.8677 21.5921 12.456 21.7644 12.68C21.9391 12.896 22.1188 13.2552 22.1309 13.4058C22.1431 13.5564 22.0775 14.0416 22.4367 15.3548C22.5386 14.9471 22.694 14.0416 22.694 14.0416L22.7789 13.2431L22.8761 10.7722L20.2959 8.62867L18.2789 7.16499L16.9658 7.29123L17.0482 7.47811L17.0484 7.47827Z" fill="#CAA13E"/>
<path fill-rule="evenodd" clip-rule="evenodd" d="M21.8421 11.1554C21.8421 11.1554 21.8057 10.9154 21.1989 10.5074C20.5921 10.1045 20.1188 10.1045 19.682 9.76226C19.3469 9.49282 18.9975 8.87378 18.77 8.66994C18.549 8.4685 18.5127 7.88594 18.5127 7.88594L19.2578 7.26194L20.366 5.66018L21.3028 4.62866L21.7517 5.25266L22.3757 5.98562L22.7228 7.4565L22.849 9.60946L21.841 11.1555L21.8421 11.1554Z" fill="#B59544"/>
<path fill-rule="evenodd" clip-rule="evenodd" d="M22.5925 13.736C22.6109 13.4095 22.5705 13.0824 22.4735 12.7701C22.3135 12.2725 21.9639 11.389 21.8015 11.0581C21.7359 10.6915 21.7845 10.6624 21.8549 10.6211C21.9253 10.5799 22.1899 10.4291 22.3349 9.90034C22.4799 9.37154 22.9296 9.35426 22.9296 9.35426L23.2063 9.15042L23.6263 10.2013L23.9927 11.1504L24.1067 11.8762L24.1917 12.4951L23.9927 13.8034L23.0098 14.6917L22.5923 13.736H22.5925Z" fill="#C89D3A"/>
<path fill-rule="evenodd" clip-rule="evenodd" d="M8.87646 28.3183V28.2914C8.89689 28.2786 8.91492 28.2624 8.92974 28.2434C8.9467 28.2191 8.95902 28.19 8.97102 28.1828C8.99534 28.1706 9.10942 28.1348 9.17006 28.1463C9.2307 28.1578 9.39102 28.2239 9.47598 28.2191C9.6507 28.2143 9.85454 28.0807 10.1774 28.1415C10.6629 28.2312 10.7769 28.5613 11.0585 28.7482C11.2505 28.8794 11.4493 28.821 11.4784 28.821H11.5438C11.556 28.821 11.6457 28.7191 11.6944 28.724C11.7915 28.7288 11.8011 28.809 11.8617 28.8138C12.0049 28.8308 12.2817 28.741 12.4201 28.7775C12.4612 28.7903 12.4985 28.8129 12.5289 28.8433C12.5593 28.8737 12.582 28.911 12.5949 28.952C12.624 29.0418 12.5997 29.1559 12.5293 29.2215C12.3789 29.3597 12.2357 29.4909 12.2065 29.6055C12.2436 29.6337 12.2791 29.6638 12.3131 29.6957C11.1122 29.3897 9.95671 28.9271 8.87646 28.3197V28.3183Z" fill="#CEB052"/>
<path fill-rule="evenodd" clip-rule="evenodd" d="M21.8008 23.4687C21.8008 23.4687 22.1793 22.9639 22.3105 22.7138C22.4416 22.456 21.8955 19.192 21.8955 19.192L22.9926 15.5975L22.9633 14.4275C22.9633 14.4275 23.0168 13.3474 23.143 12.8789C23.2936 13.1484 23.7621 13.4736 23.864 13.646C23.912 13.3157 24.075 12.6192 24.0509 11.8765C24.1406 12.0148 24.3566 13.4056 24.3566 13.4056L24.5726 14.3424L24.8542 15.3376L25.1673 16.3887L25.3542 17.1144L25.4609 17.2892L25.5509 17.5949L25.6358 17.9251L25.8809 18.6994L26.0249 19.3352L26.139 20.4882C26.1638 20.5765 26.1817 20.6666 26.1925 20.7576C26.1973 20.8839 26.1755 20.9567 26.1755 20.9786C26.1755 21.0005 26.2168 21.2552 26.1998 21.4471C26.1755 21.6391 26.1755 21.7893 26.0249 21.9271C25.8744 22.0648 25.7798 22.8882 25.7798 22.8882L25.5104 22.7087C25.5104 22.7087 25.5638 22.4634 25.4376 22.2402C25.3113 22.017 25.0662 21.9707 24.9278 22.0072C24.7896 22.0364 24.5129 22.0799 24.423 22.1576C24.3381 22.2352 24.1294 22.4756 23.9376 22.5848C23.6976 22.7288 23.3065 22.7402 23.0979 22.7887C22.8867 22.8367 22.6537 22.9807 22.4085 23.1479C22.2161 23.2724 22.0131 23.3795 21.8017 23.4679L21.8008 23.4687Z" fill="#CCA847"/>
<path fill-rule="evenodd" clip-rule="evenodd" d="M21.8008 28.772C21.8008 28.772 21.8168 28.7824 21.8477 28.7994C23.5721 27.9915 25.1171 26.8463 26.3917 25.4314C26.3777 24.9402 26.3597 24.4367 26.3398 24.2501C26.2987 23.8544 26.3278 23.4516 26.3157 23.2186C26.3035 22.9856 26.1725 22.0365 26.1118 21.7914C26.0462 21.5463 25.9198 21.4248 25.9006 21.4248C25.8837 21.4298 25.7816 21.8861 25.7816 22.0008C25.7816 22.1156 25.7573 22.3917 25.7573 22.4621C25.7403 22.4572 25.7331 22.4141 25.7331 22.3965C25.7088 22.4572 25.6797 22.564 25.6675 22.5762C25.6553 22.5884 25.6845 22.4743 25.6675 22.45C25.6505 22.4256 25.6195 22.4378 25.6262 22.3772C25.6291 22.3412 25.6348 22.3055 25.6432 22.2704C25.6432 22.2704 25.5704 22.3772 25.5171 22.649C25.4637 22.9184 25.4637 22.9258 25.4443 22.95C25.4273 22.9792 25.3302 23.0762 25.3253 23.1127C25.3205 23.1781 25.4152 23.2437 25.4224 23.28C25.4272 23.3408 25.3374 23.6223 25.3083 23.76C25.2792 23.8978 25.2913 24.1677 25.2603 24.3061C25.236 24.4324 25.2123 24.5052 25.1293 24.5584C25.1899 24.5706 25.2481 24.5876 25.2481 24.5876C25.2481 24.5876 25.3331 24.9468 25.1171 25.2527C25.0395 25.3594 25.0201 25.408 24.9376 25.5052C24.7749 25.6847 24.6486 25.8892 24.6365 26.0221C24.6281 25.9829 24.6224 25.9431 24.6195 25.9031C24.6195 25.9031 24.3672 26.1968 24.2603 26.3644C24.1221 26.5804 23.9302 26.5682 23.8763 26.6216C23.8224 26.6751 23.8107 26.772 23.8283 26.8498C23.7803 26.8618 23.6901 26.8789 23.6293 27.0658C23.6001 27.1628 23.5273 27.2578 23.4133 27.3231C23.2992 27.3884 23.1608 27.408 23.0904 27.425C23.151 27.442 23.1753 27.442 23.2045 27.4613C23.1681 27.522 23.0006 27.6167 22.8137 27.7381C22.6269 27.8522 22.5369 28.0196 22.4909 28.1288C22.4429 28.2308 22.372 28.2964 22.2579 28.3085C22.3059 28.3376 22.3769 28.4055 22.4133 28.4274C22.3598 28.4396 22.2693 28.4396 22.1075 28.578C21.9376 28.7188 21.8793 28.76 21.8016 28.7722L21.8008 28.772Z" fill="#C39D3C"/>
<path fill-rule="evenodd" clip-rule="evenodd" d="M18.4237 29.8968C18.5166 29.8317 18.6173 29.7783 18.7233 29.738C19.1019 29.5876 19.5024 29.5584 19.6601 29.51C19.8107 29.462 19.9296 29.3957 20.1165 29.3594C20.1115 29.402 20.1073 29.442 20.1029 29.4797C19.5519 29.6529 18.9908 29.7922 18.4229 29.8968H18.4237Z" fill="#D2BA6B"/>
<path fill-rule="evenodd" clip-rule="evenodd" d="M25.4062 19.9396C25.4062 19.9396 25.3286 20.3594 25.1902 20.624C25.0518 20.8887 24.9022 21.2551 24.9022 21.2551C24.9031 21.1725 24.9128 21.0903 24.9313 21.0098C24.7565 21.1117 24.3317 21.357 24.2113 21.4661C24.0972 21.568 23.9054 21.7477 23.8569 21.8327C23.971 21.4978 24.0898 21.1968 24.1093 21.0584C23.9346 21.1847 23.119 21.857 22.6943 22.3012L21.3714 23.3716C21.2188 23.4539 21.0616 23.5275 20.9006 23.592C20.6726 23.689 20.4031 23.7716 20.2041 23.8493C20.2575 23.7061 20.3423 23.5797 20.4613 23.4584C20.5876 23.3396 20.9662 22.9293 21.0244 22.7384C21.0778 22.5394 21.09 22.4205 21.0196 22.253C20.954 22.27 20.8036 22.2773 20.7017 22.3064C20.5997 22.3356 20.4905 22.4447 20.4905 22.4447C20.4905 22.4447 20.5681 22.0005 20.7356 21.5807C20.6093 21.5855 20.3933 21.6218 20.3933 21.6218C20.3933 21.6218 20.6943 21.117 21.2093 20.7652C21.0516 20.7987 20.8973 20.8466 20.7482 20.9082C20.4473 21.0344 20.1172 21.2213 19.8721 21.3232C20.0103 21.1312 20.9812 19.7456 21.559 18.4543C22.135 17.1655 22.3502 16.8354 22.4764 16.1437C22.5418 15.8015 22.5244 15.2957 22.5418 14.8428C22.5588 14.3936 22.6146 13.9908 22.5783 13.7213C22.7287 13.9082 23.2919 14.4349 23.3113 15.6122C23.3282 16.7893 22.7726 18.3792 22.1826 19.2359C22.3266 19.2772 22.6998 19.3258 23.0831 18.6599C23.4665 17.994 23.4618 17.808 23.6002 17.5312C23.6172 17.6696 23.6122 17.7181 23.6122 17.7181C23.6122 17.7181 24.1706 17.041 24.4351 16.189C24.4886 16.5556 24.6463 16.8784 24.3986 17.5508C24.1778 18.1575 23.889 18.3056 23.889 18.3056C23.889 18.3056 24.0322 18.2813 24.2433 18.1551C24.2797 18.2448 24.2725 18.3471 24.3332 18.3832C24.3938 18.4194 24.4764 18.4804 24.4886 18.5386C24.554 18.4415 24.6559 18.3176 24.6876 18.2255C24.6633 18.4175 24.6463 19.257 24.7356 19.6842C24.9226 19.6672 25.1143 19.6551 25.2453 19.3176C25.1556 19.6479 25.1556 19.8468 25.2162 20.1284C25.3158 20.0605 25.4055 19.9391 25.4055 19.9391L25.4062 19.9396Z" fill="#C0993A"/>
<path fill-rule="evenodd" clip-rule="evenodd" d="M19.0997 6.56083C19.0997 6.56083 18.9128 6.63843 18.5949 6.63843C18.3182 6.63843 18.3958 6.53171 17.9638 6.53171C17.2989 6.53171 14.976 6.91571 14.5681 6.91027C14.3035 6.90547 15.4613 7.02435 15.4613 7.02435L18.4201 7.06563L19.0147 7.01763L19.2357 6.56803L19.0997 6.56083Z" fill="#A88F33"/>
<path fill-rule="evenodd" clip-rule="evenodd" d="M11.427 12.3448C11.427 12.3448 11.0483 12.6336 10.8881 12.8546C10.728 13.0755 10.643 13.221 10.4609 13.4007C10.5037 13.4023 10.5464 13.3966 10.5872 13.3837C10.5872 13.3837 10.5872 13.4317 10.5581 13.4443C10.5832 13.4415 10.6087 13.4444 10.6326 13.4527C10.6565 13.461 10.6783 13.4745 10.6963 13.4923C10.6429 13.5215 10.4973 13.6672 10.6113 13.8395C10.6963 13.9706 10.876 13.9826 10.876 13.9826C10.876 13.9826 10.8347 14.1016 11.007 14.0895C11.3784 14.0725 11.7934 13.9098 11.9851 13.9511C12.1771 13.9991 12.2862 14.0167 12.4221 14.2522C12.5661 14.4851 12.6915 14.5216 12.6915 14.5216C12.6915 14.5216 12.7765 14.3055 12.7571 13.9827C12.8268 13.8088 12.8654 13.624 12.8712 13.4367L12.7449 12.5071L12.1941 11.8104L11.4805 12.2061L11.427 12.3443V12.3448Z" fill="#E3C571"/>
<path fill-rule="evenodd" clip-rule="evenodd" d="M12.1045 12.2064C12.1045 12.2064 12.1579 12.3327 12.3813 12.3447C12.357 12.3981 12.357 12.4055 12.3643 12.4466C12.3691 12.4879 12.3763 12.5485 12.3763 12.5485C12.4009 12.5366 12.4231 12.5203 12.4419 12.5005C12.4541 12.5539 12.4298 12.6387 12.4419 12.6995C12.4494 12.7365 12.4616 12.7724 12.4783 12.8063C12.4818 12.798 12.4859 12.7899 12.4904 12.7821C12.4952 12.7699 12.5384 12.9131 12.6579 13.0221C12.6578 13.0053 12.662 12.9888 12.6699 12.9741C12.6718 13.0045 12.6818 13.0339 12.6991 13.0591C12.6901 13.0548 12.6819 13.0491 12.6749 13.0421C12.6749 13.0421 12.6869 13.4261 12.7525 13.6247C12.7635 13.6118 12.7732 13.598 12.7816 13.5834C12.7816 13.5714 12.7768 13.6903 12.7647 13.7754C12.7477 13.8603 12.7599 13.9792 12.7599 13.9792C12.8036 13.9448 12.8517 13.9162 12.9029 13.8943C12.9757 13.865 13.0949 13.7752 13.1675 13.5762C13.2097 13.4635 13.2422 13.3474 13.2647 13.2291C13.2881 13.2743 13.3043 13.3229 13.3127 13.3731C13.3176 13.4338 13.4317 13.4023 13.4317 13.4023L13.456 13.1376L13.6 12.5381L13.7311 12.1667L14.3621 11.1839L15.5023 10.3058L16.4975 10.5339L17.3371 9.39315L15.8906 8.52419L14.5216 8.66738L13.2792 10.3882L12.2842 11.949L12.1045 12.2063V12.2064Z" fill="#D8B65B"/>
<path fill-rule="evenodd" clip-rule="evenodd" d="M19.2745 9.71618C19.2745 9.71618 19.1895 9.73314 18.9444 9.86018C18.6993 9.98722 18.5293 10.0275 18.4346 10.2144C18.3399 10.4013 18.3327 10.5495 18.3327 10.5495C18.3327 10.5495 18.5002 10.4767 18.5973 10.4523C18.6993 10.4282 18.8133 10.4354 18.8012 10.4767C18.7895 10.505 18.7733 10.5312 18.7532 10.5543C18.7532 10.5543 18.9452 10.5495 18.9401 10.6442C18.9349 10.7389 18.9037 10.8432 18.8674 10.8893C18.8309 10.9373 18.6805 11.0083 18.6636 11.0642C18.6223 11.1783 18.6805 11.1831 18.6586 11.2752C18.6417 11.3651 18.5617 11.5399 18.2994 11.8456C18.03 12.1515 17.9154 12.3675 17.9154 12.3675C17.9154 12.3675 17.7844 12.1224 17.7164 11.9112C17.6684 11.9354 17.4106 12.0786 17.4106 12.0786L16.8135 9.99858L16.8255 9.86018C16.8255 9.86018 16.8789 9.79474 16.8911 9.6733C16.8013 9.64418 16.7892 9.61986 16.6701 9.50594C16.5511 9.39202 16.4541 9.25346 16.2553 9.15874C16.2261 9.1053 16.1897 9.03266 16.0441 9.00338C15.8985 8.9741 15.8111 8.9501 15.8111 8.9501C15.8111 8.9501 15.8887 8.92082 15.9252 8.86018C15.8353 8.87234 15.7626 8.90146 15.566 8.89666C15.3669 8.8917 15.345 8.8845 15.2359 8.90146C15.1268 8.91842 14.9959 8.96706 14.9471 8.79954C14.8937 8.75826 14.7796 8.79474 14.6825 8.93778C14.5853 9.08082 14.5514 9.19506 14.3645 9.2509C14.3514 9.33328 14.3226 9.41237 14.2796 9.48386C14.2261 9.57378 14.1412 9.66354 14.0271 9.79698C13.8474 10.0082 13.8765 10.3552 13.5901 10.6199C13.3013 10.8843 13.6381 9.88674 13.6381 9.88674L14.0993 8.78274L15.4124 7.49874L17.4513 7.3605L17.6503 8.4165L18.6455 8.75874L19.2741 9.71746L19.2745 9.71618Z" fill="#D3AE4D"/>
<path fill-rule="evenodd" clip-rule="evenodd" d="M19.5972 9.94915L18.7404 8.71379L18.1408 8.25251C18.1408 8.25251 17.7136 7.46627 17.6845 7.44195C17.6602 7.42499 17.2573 7.38131 17 7.36435L17.048 7.48323C17.1042 7.50147 17.1541 7.53512 17.192 7.58035C17.3061 7.71139 17.3789 7.95891 17.1192 8.22355C17.2212 8.25987 17.2632 8.27155 17.3522 8.25987C17.2624 8.36675 17.0586 8.59491 17.0464 8.79395C17.0343 8.95651 17.1362 9.00499 17.1362 9.00499C17.1362 9.00499 16.9808 9.18467 16.9736 9.48499C17.047 9.40225 17.1273 9.32592 17.2136 9.25683C17.3933 9.11283 17.6408 8.95091 17.8084 8.84899C17.8061 8.89176 17.8118 8.93458 17.8253 8.97523C17.8253 8.97523 18.1383 8.71795 18.4013 8.83203C18.5202 8.88547 18.4668 9.05299 18.4668 9.05299C18.4668 9.05299 18.6295 8.99235 18.7436 9.10643C18.8576 9.22051 19.0202 9.51411 19.1028 9.62835C19.1391 9.68179 19.2338 9.78371 19.3308 9.94131C19.4632 10.1622 19.5739 10.3955 19.661 10.6379C19.6658 10.5408 19.6853 10.405 19.853 10.405L19.5981 9.94867L19.5972 9.94915Z" fill="#CAA13E"/>
<path fill-rule="evenodd" clip-rule="evenodd" d="M6.75254 13.4589C6.75254 13.4589 6.6919 13.3083 6.75254 13.0147C6.81318 12.7211 6.9079 12.5827 6.93942 12.1507C6.97094 11.7187 7.25254 11.1799 7.25254 11.1799L8.03158 10.8256L8.58262 10.976L8.74518 11.7139L8.04854 12.0979C8.04854 12.0979 8.01222 12.2605 7.81558 12.3915C7.61894 12.5226 7.3471 12.6245 7.28166 12.7581C7.24254 12.8399 7.21399 12.9264 7.1967 13.0154C7.1967 13.0154 6.99766 12.9741 6.87878 13.1051C6.75254 13.2387 6.75734 13.3576 6.75254 13.4595V13.4589Z" fill="#F4EFC8"/>
<path fill-rule="evenodd" clip-rule="evenodd" d="M8.32522 13.2623C8.32522 13.2623 8.25962 13.3035 8.21114 13.4063C8.16314 13.3287 8.04842 12.8674 8.04362 12.4523C8.03882 12.0373 8.01402 11.9344 8.11002 11.7914C8.20602 11.6483 8.5825 11.4976 8.52906 11.24C8.47562 10.9949 8.25226 10.893 7.97802 10.9634C7.78602 11.0114 7.64314 11.4197 7.4441 11.6235C7.29354 11.7789 7.11402 11.7546 7.06554 11.8395C6.99994 11.9536 7.06058 12.0677 7.04122 12.1405C7.03626 12.1648 6.97562 12.2959 6.86634 12.4536C6.64554 12.7715 6.27178 13.2207 6.22314 13.6235C6.2401 13.3954 6.2281 13.3906 6.28874 13.1381L6.25226 13.0775L6.49226 12.2911L6.64762 11.6431L6.99482 10.5579L7.60634 9.44883L8.20106 8.78371L8.81994 8.82499L8.89274 9.75459L9.24714 11.4999L9.99226 12.4173L8.79802 13.221L8.32474 13.2623H8.32522Z" fill="#EBCC73"/>
<path fill-rule="evenodd" clip-rule="evenodd" d="M8.69687 13.592C8.69687 13.592 8.59495 13.6163 8.55847 13.597C8.52199 13.5776 8.48583 13.5557 8.49783 13.5314C8.50983 13.5071 8.57543 13.4659 8.57543 13.4464C8.57677 13.4288 8.57119 13.4113 8.55987 13.3977C8.54855 13.3841 8.53238 13.3755 8.51479 13.3736C8.45895 13.3664 8.44199 13.4027 8.44199 13.4027C8.44199 13.4027 8.38855 13.3616 8.34503 13.3547C8.37077 13.3516 8.39668 13.3499 8.42263 13.3498C8.35555 13.3194 8.2844 13.299 8.21143 13.2891C8.27207 13.2528 8.39111 13.1459 8.46871 13.1459C8.54631 13.1459 8.59495 13.1339 8.58279 13.0927C8.57063 13.0514 8.50999 12.9907 8.44455 12.9664C8.46871 12.9373 8.48583 12.8936 8.42759 12.7744C8.36679 12.6555 8.39111 12.5754 8.41063 12.5464C8.42759 12.5099 8.48823 12.4445 8.51735 12.4032C8.54647 12.3619 8.57079 12.3061 8.61927 12.277C8.64359 12.26 8.72119 12.229 8.79895 12.1994C8.88391 12.1703 8.95431 12.1338 9.00279 12.1703C9.05623 12.2066 9.03191 12.2552 9.03191 12.2552C9.03191 12.2552 9.19943 12.1944 9.34983 12.2722C9.50039 12.3448 9.86695 12.3911 9.86695 12.3911L9.99831 12.6557L9.12935 13.4008L8.77015 13.5805L8.69735 13.5925L8.69687 13.592Z" fill="#E5C66B"/>
<path fill-rule="evenodd" clip-rule="evenodd" d="M9.90265 12.3739C9.90265 12.3739 9.63321 12.5536 9.57257 12.6191C9.60889 12.624 9.66953 12.6483 9.64521 12.6847C9.61609 12.721 9.44137 12.8472 9.34425 12.9663C9.24233 13.0851 9.14521 13.2357 9.11129 13.3085C9.07497 13.3739 8.79817 13.5658 8.70361 13.5899C8.90265 13.5899 9.30313 13.3448 9.45353 13.3448C9.44873 13.4176 9.49481 13.5002 9.57977 13.5074C9.66473 13.5146 9.90985 13.5608 10.2399 13.357C10.57 13.1579 10.4609 13.0098 10.5991 12.9128C10.8638 12.7379 10.9705 12.5826 11.1161 12.4856C11.2617 12.3887 11.3371 12.3666 11.3371 12.3666C11.3371 12.3666 11.3419 12.2938 11.3851 12.3011C11.3969 12.3025 11.4081 12.3071 11.4175 12.3143C11.4269 12.3216 11.4342 12.3313 11.4385 12.3424C11.4385 12.3424 11.691 12.1627 12.0145 12.1143C12.0069 12.1109 12.0009 12.1049 11.9975 12.0973C11.9975 12.0973 12.0217 12.0851 12.0267 12.073C12.0267 12.073 12.0436 12.0487 12.0558 12.0608C12.0679 12.073 12.0849 12.1627 12.1092 12.1992C12.1627 12.1749 12.2646 11.9467 12.2646 11.9467L12.5099 11.2453V10.6045L12.3179 10.641L10.8779 11.2525L10.0039 12.1579L9.90201 12.3739H9.90265Z" fill="#E6BD62"/>
<path fill-rule="evenodd" clip-rule="evenodd" d="M14.0486 9.23075C14.1265 9.21185 14.2011 9.18155 14.2702 9.14083C14.2411 9.21859 14.2411 9.30355 14.1148 9.48803C13.9886 9.67251 13.9838 9.69923 13.8819 9.89091C13.7799 10.0899 13.7678 10.3763 13.6707 10.5024C13.7142 10.4813 13.7609 10.4674 13.8089 10.4613C13.8089 10.4613 13.7119 10.5463 13.6707 10.636C13.6294 10.7258 13.5566 10.9127 13.3771 11.0269C13.1975 11.1411 12.9692 11.2138 12.7241 11.4832C12.4788 11.7477 12.2265 12.0827 12.1001 12.2032C12.1657 12.0891 12.2555 11.861 12.2798 11.7106C12.3041 11.5602 12.2748 11.3803 12.3161 11.1815C12.3574 10.9826 12.3574 10.8392 12.5561 10.492C12.7548 10.1448 13.095 8.93859 13.095 8.93859L13.8279 8.70563L14.0489 9.22995L14.0486 9.23075Z" fill="#B6933F"/>
<path fill-rule="evenodd" clip-rule="evenodd" d="M13.5192 8.7866C13.5192 8.7866 13.2984 9.10452 13.2377 9.38612C13.1771 9.66772 13.2328 9.6434 13.1965 9.7818C13.1747 9.86618 13.1747 9.95469 13.1965 10.0391C13.2729 9.91588 13.3776 9.81266 13.5019 9.73796C13.7107 9.61188 13.8806 9.52196 13.9819 9.41524C14.0838 9.30116 14.1688 9.11428 14.3896 8.97108C14.2998 8.95892 14.1736 8.91764 14.1496 8.92308C14.2395 8.82116 14.5088 8.6658 14.7806 8.47892C15.0501 8.28692 15.0331 8.20948 15.4701 8.0178C15.3269 8.04212 15.2589 8.00564 15.1398 8.0178C15.1878 7.91588 15.3558 7.86724 15.5238 7.69988C15.6918 7.53252 15.4171 7.28484 15.4171 7.28484L14.1371 8.05908L13.5182 8.78724L13.5192 8.7866Z" fill="#C49937"/>
<path fill-rule="evenodd" clip-rule="evenodd" d="M10.0459 8.20883L10.075 7.97587L10.4416 7.38851L10.8251 6.35699V4.94675L10.796 4.13123L10.8566 3.59715L10.9027 3.42739L10.9513 3.36179L11.2643 3.52435L11.6965 4.11171L11.7377 5.24531L11.3177 7.03411L10.1187 8.34243L10.0459 8.20883Z" fill="#DFC068"/>
<path fill-rule="evenodd" clip-rule="evenodd" d="M11.0002 3.29619C11.0002 3.29619 10.8082 3.30115 10.7673 4.09971C10.7263 4.89827 10.7065 5.31811 10.6773 5.71379C10.6482 6.10947 10.5804 6.34963 10.5463 6.58275C10.5122 6.81587 10.4929 7.13363 10.3837 7.32787C10.3357 7.41763 10.2332 7.69923 9.99286 7.91043C9.72342 8.14339 9.32086 8.30611 9.2599 8.31827C9.15302 8.34243 8.61174 8.39587 8.39094 8.51731C8.31334 8.55859 8.17974 8.60707 8.03174 8.74547C7.73798 9.00995 7.34726 9.48323 7.06566 10.0536C6.63366 10.9056 6.20166 13.3109 6.20166 13.3109L6.29878 13.1484C6.29878 13.1484 6.31094 12.9324 6.52694 12.5536C6.73814 12.1751 6.6775 11.7503 6.9711 11.0245C7.08518 10.7479 7.22838 10.3887 7.4031 10.0828C7.6799 9.58515 8.01478 9.15795 8.35222 8.92499C8.9031 8.54643 9.50998 8.46387 9.50998 8.46387L10.1629 8.03187C10.1629 8.03187 10.277 7.81107 10.4276 7.55859C10.6386 7.20435 10.9076 6.80867 10.9663 6.23347C11.0562 5.38147 10.8401 4.82323 10.8522 4.31843C10.8644 3.81363 10.8692 3.44227 10.9713 3.35235C11.0733 3.26243 11.0004 3.29651 11.0004 3.29651L11.0002 3.29619Z" fill="#A88F33"/>
<path fill-rule="evenodd" clip-rule="evenodd" d="M10.9998 7.10691C10.9998 7.10691 11.2878 6.39811 11.4197 5.76947C11.444 5.64323 11.4925 5.51715 11.5046 5.41523C11.5653 4.82051 11.5822 4.57539 11.5046 4.25011C11.444 4.01011 11.211 3.79379 11.0896 3.62611C10.9707 3.45123 10.9149 3.38611 10.9392 3.34931C10.9635 3.31251 11.0581 3.25235 11.1502 3.25955C11.2482 3.2624 11.3446 3.28515 11.4335 3.3264C11.5224 3.36766 11.6019 3.42657 11.6673 3.49955C11.8542 3.71555 12.0022 4.44867 12.0022 4.44867L12.1579 5.41603L12.5536 6.63443L11.0001 7.10787L10.9998 7.10691Z" fill="#C99E3D"/>
<path fill-rule="evenodd" clip-rule="evenodd" d="M13.7064 6.36915C13.7064 6.36915 13.653 6.39331 13.556 6.36915C13.5602 6.40877 13.5533 6.44877 13.5362 6.48473C13.519 6.5207 13.4923 6.55124 13.4589 6.57299C13.357 6.53171 12.4029 6.61427 12.4029 6.61427C12.4029 6.61427 11.9588 6.53651 11.8204 5.94915C11.7234 5.55827 11.8932 5.01955 11.8373 4.66515C11.7524 4.14323 11.6335 4.04115 11.6213 3.87875C11.6092 3.71635 11.597 3.67491 11.597 3.57299C11.5436 3.56083 11.512 3.54387 11.4588 3.54387C11.4466 3.49587 11.4708 3.45395 11.4175 3.36899C11.4466 3.38115 11.6456 3.40547 11.8786 3.62627C12.0706 3.80595 12.0706 3.87139 12.0996 3.90787C12.1359 3.94419 12.4296 4.19587 12.5559 4.44675C12.6821 4.69763 12.9272 5.49763 12.9831 5.62867C13 5.68211 13.0365 5.73555 13.1271 5.85683C13.2679 6.03171 13.4741 6.32083 13.7071 6.36883L13.7064 6.36915Z" fill="#B58634"/>
<path fill-rule="evenodd" clip-rule="evenodd" d="M12.1338 3.92003C12.2808 4.15755 12.4129 4.404 12.5293 4.65795C12.6725 4.98067 12.7575 5.24531 12.9371 5.46131C12.84 5.17987 12.6677 4.62643 12.5658 4.42979C12.4517 4.22179 12.2187 3.99779 12.1338 3.92019V3.92003Z" fill="#A88F33"/>
<path fill-rule="evenodd" clip-rule="evenodd" d="M10.4831 7.91042C10.4831 7.91042 10.238 7.97106 9.78168 8.21138C9.63112 8.28898 9.48808 8.35442 9.34968 8.41522C8.99016 8.57778 8.60456 8.72802 8.29864 8.8109C8.32296 8.84002 8.33496 8.85202 8.33496 8.85202C8.33496 8.85202 8.33496 8.97106 8.40056 9.0389C8.36424 9.07538 7.87864 9.40546 8.022 10.5098C8.11896 10.4735 8.23304 10.4248 8.25 10.4248C8.27928 10.4298 8.28648 10.5098 8.3228 10.5098C8.35912 10.5098 8.47816 10.4618 8.6044 10.2986C8.5996 10.3642 8.5268 11.0243 8.91752 11.4685C8.99032 11.3835 9.1748 11.1019 9.1748 11.1019L9.1796 11.0122C9.1796 11.0122 9.19656 10.6991 9.29864 10.4127C9.40072 10.1263 9.5996 9.91506 9.5996 9.91506L10.6382 8.43202L10.4828 7.91026L10.4831 7.91042Z" fill="#E6C367"/>
<path fill-rule="evenodd" clip-rule="evenodd" d="M9.51213 10.088C9.46458 10.1216 9.4122 10.1478 9.35677 10.1656C9.33981 10.105 9.31549 9.89619 9.45869 9.69235C9.62621 9.44707 9.99261 9.12915 10.0945 8.87635C10.1601 8.71363 10.131 8.30595 10.7136 7.78403C11.2961 7.26211 11.5241 7.08259 11.5241 7.08259L12.4659 6.60931L13.6237 7.06563L13.0485 9.32003L12.6019 10.376L10.8259 10.0412L9.51197 10.088H9.51213Z" fill="#DCBA5A"/>
<path fill-rule="evenodd" clip-rule="evenodd" d="M10.1899 9.47586L10.4109 9.19922V9.00258C10.4109 9.00258 10.656 8.93698 10.9205 8.66754C11.185 8.3981 11.5515 7.88114 11.8744 7.91266C12.1973 7.94914 12.2288 8.6141 12.241 8.80114C12.2531 8.98818 12.2944 9.41266 12.3599 9.64098C12.4327 9.86914 11.5735 10.7331 11.5735 10.7331L10.9899 11.1773L10.1899 9.47586Z" fill="#E9CE77"/>
<path fill-rule="evenodd" clip-rule="evenodd" d="M10.8735 11.7792C10.8735 11.7792 11.0532 11.4976 10.9215 11.437C10.9991 11.2623 11.1423 11.0778 11.1423 11.0778C11.1423 11.0778 11.2443 10.8255 11.5743 10.5147C11.9044 10.204 12.1084 9.99763 12.1619 9.78899C12.1948 9.65301 12.2127 9.51383 12.2153 9.37395C12.251 9.4031 12.2892 9.42907 12.3294 9.45155C12.3828 9.47587 12.6351 9.68451 12.5988 10.1045C12.5625 10.5245 12.4068 10.6992 12.4068 10.6992C12.4068 10.6992 12.2564 10.8496 12.1497 10.9274C12.0355 11.005 11.9943 11.0947 11.8025 11.1021C11.8222 11.0864 11.8444 11.0741 11.8681 11.0656C11.8681 11.0656 11.6691 11.0415 11.5622 11.1384C11.4553 11.2354 11.2281 11.5341 11.114 11.624C10.9999 11.6968 10.874 11.7794 10.874 11.7794L10.8735 11.7792Z" fill="#CDAE50"/>
<path fill-rule="evenodd" clip-rule="evenodd" d="M18.9443 7.05827C18.6576 6.95376 18.3562 6.8948 18.0512 6.88355C17.5415 6.86659 16.7963 6.89571 16.0658 6.90051C15.2794 6.90531 14.5658 6.63107 13.5755 6.58259C13.413 6.48547 12.9995 6.06067 11.709 6.96115C11.7866 6.95635 12.6459 6.76211 12.9443 7.13603C13.2453 7.50739 13.1603 8.13843 13.1192 8.28883C13.0415 8.62387 12.789 9.11171 12.6872 9.45395C12.5855 9.79619 12.6095 9.97603 12.5367 10.216C12.4639 10.456 12.3037 10.5752 12.3983 10.8519C12.5245 10.7743 12.5903 10.7743 12.8011 10.301C13.012 9.82771 12.9687 9.49027 13.3183 9.08979C13.6605 8.68691 14.2303 8.13587 14.4469 7.99747C14.6635 7.85907 16.3837 6.96595 18.1848 7.81795C18.6192 7.77187 18.9445 7.05811 18.9445 7.05811L18.9443 7.05827Z" fill="#D2A83E"/>
<path fill-rule="evenodd" clip-rule="evenodd" d="M12.4343 6.72803C12.4325 6.70979 12.4285 6.69184 12.4223 6.67459C12.4054 6.63909 12.3833 6.60635 12.3567 6.57747C12.3567 6.57747 11.9295 6.49987 11.7135 6.52403C11.3347 6.56531 10.9925 7.03379 10.8324 7.27411C10.6722 7.51443 10.4732 7.88563 10.2572 8.07747C10.2595 8.05878 10.2552 8.03985 10.245 8.02403C10.245 8.02403 10.2571 8.04099 10.233 8.06531C10.2088 8.08963 10.2087 8.10163 10.2208 8.11331L10.2573 8.14963C10.2693 8.14963 10.6043 7.99907 11.0607 7.57363C11.5461 7.12947 11.9175 6.90163 12.1117 6.82355C12.2153 6.77953 12.3236 6.74748 12.4344 6.72803H12.4343Z" fill="#C29637"/>
<path fill-rule="evenodd" clip-rule="evenodd" d="M20.721 4.90308C20.721 4.90308 20.6432 5.00004 20.5461 5.10692C20.3301 5.33508 20.0485 5.5922 19.8082 5.85684C19.5802 6.10932 19.3229 6.30596 19.034 6.63604C18.745 6.96612 18.41 7.33252 18.3252 7.4394C18.2476 7.54628 18.1869 7.721 18.1869 7.81076C18.1456 7.78164 18.0972 7.75012 18.0972 7.75012C18.1176 7.78822 18.142 7.82405 18.17 7.857C18.2306 7.94196 18.3252 8.049 18.3738 8.11428C18.4335 8.19738 18.4763 8.29136 18.4999 8.39092C18.529 8.39572 18.7159 8.4322 18.949 8.04868C19.1821 7.66516 19.4877 7.24532 19.4877 7.24532L19.9732 6.52436L20.2791 5.91284L20.6631 5.22836L20.7215 4.90308H20.721Z" fill="#AC8132"/>
<path fill-rule="evenodd" clip-rule="evenodd" d="M21.2186 4.41283C21.2186 4.41283 20.9248 4.65283 20.8108 4.79683C20.6967 4.94083 20.4268 5.31875 20.4268 5.31875L20.5239 5.30659L21.0167 4.86979L21.2087 4.52755L21.2184 4.41347L21.2186 4.41283Z" fill="#A88F33"/>
<path fill-rule="evenodd" clip-rule="evenodd" d="M21.1287 23.7016C21.1287 23.7016 21.1239 23.5026 21.2356 23.3837C21.3497 23.2647 21.6385 23.0899 21.9201 22.4346C22.2017 21.7792 22.233 21.6312 22.233 21.6312C22.233 21.6312 21.7282 22.0632 21.417 22.1651C21.4898 22.0146 21.5311 21.9079 21.5676 21.8301C21.5263 21.7938 21.3516 21.7525 21.3346 21.7331C21.4316 21.636 21.485 21.3981 21.6817 21.2403C21.9342 21.0483 22.3953 20.7184 22.7537 20.4243C23.1121 20.1303 23.8167 19.4463 23.9066 19.2472C23.9601 19.3248 23.9721 19.3733 23.9721 19.3733C23.9721 19.3733 23.6178 19.8346 23.4334 20.1282C23.2706 20.3807 23.2828 20.5239 23.2828 20.5239L23.6178 20.3799C23.6178 20.3799 23.7148 20.7391 23.2756 21.2853C23.4676 21.2125 23.545 21.2562 23.6542 21.1954C23.4745 21.3096 23.227 21.465 22.994 21.892C22.7658 22.3192 22.4551 22.8168 21.931 23.1274C21.4212 23.4551 21.1274 23.7002 21.1274 23.7002L21.1287 23.7016Z" fill="#A67A2E"/>
<path fill-rule="evenodd" clip-rule="evenodd" d="M19.8131 7.31091C19.8131 7.31091 19.614 7.72579 19.5849 8.04867C19.5801 8.12643 19.5606 8.18707 19.5606 8.27683C19.5558 8.56563 19.5775 8.88851 19.5126 9.03891C19.4883 8.97827 19.4761 8.93699 19.4518 8.91283C19.4155 9.01475 19.3499 9.33267 19.2964 9.45155C19.2723 9.37395 19.2188 9.10451 19.2238 8.78659C19.2287 8.46867 19.2358 8.40787 19.2358 8.34243C19.2238 8.43939 19.1582 8.57059 19.1339 8.64819C19.0975 8.58275 19.0563 8.49779 19.0076 8.42739C18.9785 8.47539 18.9422 8.54627 18.9107 8.58275C18.9057 8.55363 18.8937 8.47587 18.8863 8.36675C18.8815 8.24051 18.8742 8.07795 18.8815 8.04387C18.8935 7.97843 18.9956 7.72115 19.2116 7.48563C19.4689 7.20403 19.7335 6.66291 19.8111 6.49539C19.8887 6.32787 20.2188 5.63139 20.2188 5.63139H20.4713L20.1047 6.46627C20.1047 6.46627 19.8839 6.92259 19.7699 7.09027C19.6558 7.25795 19.4155 7.73843 19.3086 7.92531C19.3862 7.82339 19.4518 7.76995 19.5295 7.67283C19.6047 7.60483 19.8134 7.31123 19.8134 7.31123L19.8131 7.31091Z" fill="#8C6228"/>
<path fill-rule="evenodd" clip-rule="evenodd" d="M21.2233 4.38115C21.1821 4.50808 21.1169 4.62594 21.0313 4.72835C20.8808 4.90803 20.5579 5.14819 20.4003 5.33987C20.2563 5.52675 19.9683 6.03651 20.0992 6.64083C20.1472 6.50979 20.2376 6.25011 20.4779 5.95635C20.7182 5.66259 20.9755 5.32531 21.1019 5.06323C21.228 4.79859 21.2449 4.58995 21.2449 4.58995L21.2929 4.52931L21.2638 4.39091L21.2225 4.38115H21.2233Z" fill="#CBA94C"/>
<path fill-rule="evenodd" clip-rule="evenodd" d="M26.1386 20.4807C26.1386 20.4807 26.0415 20.2162 26.0123 19.9759C25.9832 19.7356 26.0603 19.6879 25.9711 19.4128C25.9176 19.2453 25.8207 19.2688 25.7963 19.2453C25.772 19.2218 25.755 18.9687 25.7598 18.8303C25.7646 18.6919 25.7551 18.5124 25.7307 18.4346C25.6944 18.4055 25.6701 18.3812 25.6167 18.2016C25.556 18.022 25.5269 17.9322 25.4978 17.8789C25.4686 17.8256 25.3835 17.777 25.3835 17.7236C25.3835 17.6167 25.4807 17.561 25.4807 17.5316C25.4759 17.4709 25.403 17.5196 25.3835 17.5024C25.3594 17.4733 25.4443 17.2986 25.4128 17.2743C25.4007 17.2623 25.3157 17.3642 25.2938 17.3351C25.2694 17.3058 25.2403 17.017 25.1967 16.8253C25.1555 16.6384 25.1117 16.5026 25.1069 16.4468C25.1021 16.3933 24.7718 15.4516 24.6918 15.2234C24.6274 15.0306 24.5731 14.8345 24.5293 14.636C24.505 14.522 24.488 14.2888 24.4758 14.3132C24.4637 14.3375 24.471 14.4564 24.4515 14.4516C24.4346 14.4466 24.3739 14.0317 24.3546 13.9661C24.3376 13.9005 24.2355 13.6781 24.2106 13.5172C24.1863 13.3544 24.133 12.9296 24.0965 12.6408C24.06 12.352 24.0431 12.2332 24.0431 12.1608C24.049 11.9839 24.0393 11.8069 24.0139 11.6317C23.9659 11.3258 23.8699 10.9544 23.7858 10.7386C23.6232 10.3308 23.191 9.28707 23.1138 9.02739C23.1138 8.96179 23.1987 8.99827 23.1987 8.99827C23.1987 8.99827 23.4098 9.52739 23.5651 9.93507C23.7157 10.3429 23.8589 10.7021 23.8954 10.7386C23.9245 10.7749 24.1527 11.1754 24.2546 11.8308C24.3565 12.4861 24.3928 13.0904 24.4536 13.4933C24.4827 13.6853 24.507 13.889 24.5677 14.0928C24.6331 14.3138 24.7351 14.542 24.8687 14.8914C24.9827 15.1852 25.0677 15.4303 25.1138 15.6415C25.1672 15.9109 25.1672 16.1148 25.1987 16.2484C25.228 16.3624 25.2715 16.5904 25.3736 16.9204C25.4757 17.2503 25.6259 17.6752 25.7278 17.9397C25.927 18.4688 26.0158 18.9106 26.0459 19.1461C26.0725 19.3888 26.1624 20.2287 26.1381 20.481L26.1386 20.4807Z" fill="#A88F33"/>
<path fill-rule="evenodd" clip-rule="evenodd" d="M21.2356 4.35203L21.2235 4.38115C21.2235 4.38115 21.2598 4.39331 21.2526 4.44195C21.2531 4.5085 21.249 4.575 21.2404 4.64099C21.2284 4.72595 21.2041 4.79139 21.1993 4.84483C21.1993 4.95891 21.2163 5.08995 21.0553 5.41523C21.0073 5.50499 20.9777 5.58259 20.9534 5.63603C20.8927 5.76707 20.8806 5.78659 20.8271 5.84723C20.9121 5.79923 21.218 5.60723 21.3732 5.63603C21.2665 5.69667 21.1038 5.81571 21.0019 5.97107C21.0262 5.97587 21.1281 5.99539 21.2899 5.97107C21.5593 5.92979 21.8603 5.83267 22.1247 5.85203C22.4137 5.86899 22.2996 5.50499 22.2996 5.50499L21.9662 4.77203L21.3351 4.32803L21.2356 4.35219V4.35203Z" fill="#BE9C44"/>
<path fill-rule="evenodd" clip-rule="evenodd" d="M22.881 9.84244C22.881 9.84244 22.5994 9.56084 22.4853 8.59444C22.3712 7.62356 22.3956 6.19444 22.3956 6.19444L22.1674 5.6362C22.1674 5.6362 22.1194 5.26484 21.9999 5.1266C21.8804 4.98836 21.6456 4.75524 21.5388 4.64116C21.4319 4.52708 21.3106 4.37172 21.2378 4.3474C21.2741 4.28676 21.4368 3.94452 22.0605 3.93972C22.6842 3.93492 22.8765 4.28196 22.9416 4.4082C23.0068 4.53444 23.3008 5.0802 23.41 6.1202C23.5119 7.15892 23.5168 7.23668 23.4999 7.59588C23.4877 7.79492 23.4221 8.25604 23.3079 8.74868C23.2036 9.16628 23.0895 9.63236 22.8807 9.8434L22.881 9.84244Z" fill="#A17C34"/>
<path fill-rule="evenodd" clip-rule="evenodd" d="M21.9981 10.6701C22.0919 10.6769 22.1857 10.6557 22.2675 10.6093C22.3573 10.6045 22.6826 10.6458 22.9325 10.3279C22.9495 10.4005 22.9933 10.5973 22.8791 10.772C22.9399 10.7112 23.0296 10.6871 23.0418 10.6701C23.0466 10.7599 23.1315 11.0365 22.7723 11.7088C22.8693 11.6021 22.9834 11.6069 23.0853 11.5947C23.0903 11.721 23.1581 12.1456 22.9786 12.3739C22.8597 12.5293 22.6655 12.4807 22.6655 12.4807C22.6683 12.4468 22.6683 12.4127 22.6655 12.3787C22.6607 12.3131 22.6363 12.2477 22.6535 12.204C22.5596 12.1612 22.4741 12.1019 22.401 12.0291C22.1898 11.8301 21.9155 11.4904 21.8962 11.2379C21.8719 10.9563 22.1243 10.8957 22.1243 10.8957C22.1032 10.8768 22.0852 10.8546 22.0709 10.8301C22.0587 10.789 22.0466 10.7234 21.9981 10.6701Z" fill="#8C6228"/>
<path fill-rule="evenodd" clip-rule="evenodd" d="M20.1259 7.61667C20.1259 7.61667 20.1138 7.59971 20.0483 7.67731C20.0605 7.59971 20.0727 7.52675 20.0775 7.45635C20.1084 7.39117 20.1485 7.33073 20.1965 7.27683C20.16 7.34947 20.1357 7.41507 20.1357 7.41507C20.1357 7.41507 20.2256 7.24755 20.3567 7.14563C20.4464 7.07283 20.5605 7.03891 20.609 6.97091C20.6624 6.89811 20.6503 6.88595 20.6624 6.87379C20.6624 6.87379 20.7815 6.79619 20.9635 6.56787C20.9877 6.53875 21.0242 6.50723 21.0485 6.47811C21.0896 6.46115 21.1867 6.41747 21.3008 6.35907C21.4199 6.29363 21.5533 6.20387 21.6359 6.16707C21.7984 6.09427 21.9709 6.10163 22.0509 5.98739C22.1115 5.97043 22.177 5.78835 22.165 5.63315C22.2547 5.66947 22.7159 5.95587 22.8738 6.58211C22.9879 7.02627 22.7839 7.71075 22.6989 8.04099C22.6139 8.37123 22.6019 8.61619 22.4829 8.76659C22.3323 8.96579 21.8471 9.24659 21.728 9.38563C21.6261 9.49971 21.3203 9.78851 21.3323 9.99715C21.3445 10.1525 21.5362 10.2371 21.5776 10.2666C21.6191 10.296 21.6187 10.3322 21.6965 10.3146C21.7743 10.297 21.8032 10.2611 21.8349 10.2611C21.8712 10.2659 21.8712 10.2733 21.8882 10.2733C21.9005 10.2729 21.9127 10.2713 21.9247 10.2683C21.9247 10.2683 21.9125 10.4893 21.3955 10.5563C21.3591 10.5613 21.3227 10.5733 21.2765 10.5807C21.3373 10.5515 21.3736 10.5515 21.4392 10.4618C21.3664 10.4496 21.1576 10.4375 21.1042 10.4205C21.1211 10.3914 21.177 10.3136 21.2231 10.2773C21.2643 10.241 21.2183 10.2293 21.1819 10.2482C21.1194 10.2907 21.0594 10.3369 21.0023 10.3864C20.9416 10.4399 20.8882 10.5127 20.7911 10.5784C20.7619 10.4813 20.7667 10.2968 20.881 10.1634C20.8517 10.1682 20.7959 10.2531 20.7426 10.2362C20.7329 10.1477 20.7387 10.0581 20.7595 9.97155C20.7887 9.86227 20.9464 9.67059 20.9464 9.67059L21.7085 8.30883L21.8711 7.27731L20.1259 7.61635V7.61667Z" fill="#92723A"/>
<path fill-rule="evenodd" clip-rule="evenodd" d="M20.0847 7.67491C20.0847 7.67491 20.0435 7.70403 20.126 7.75987C20.1139 7.77683 20.0847 7.83747 20.0483 7.87875C20.0071 7.92675 19.9633 7.95651 19.9463 7.99779C19.91 8.08275 19.8809 8.14099 19.8809 8.17747C19.8809 8.21395 19.8687 8.44691 19.7668 8.59731C19.7303 8.65075 19.6891 8.74051 19.6599 8.80115C19.5993 8.90787 19.5459 8.99315 19.5337 9.04115C19.5095 9.12611 19.4926 9.35907 19.4926 9.35907C19.4926 9.35907 19.546 9.29347 19.5654 9.26931C19.5361 9.32995 19.5046 9.39539 19.4585 9.44403C19.4876 9.41971 19.5726 9.35907 19.7158 9.23283C19.9148 9.06547 20.2255 8.78387 20.6043 8.56083C20.49 8.60211 20.3931 8.60211 20.3155 8.61427C20.3761 8.55363 20.9222 7.91283 21.2086 7.85219C21.226 7.83014 21.2346 7.80246 21.2329 7.77443L20.9876 7.75027L20.49 7.85699L20.4174 7.47299L20.0847 7.67443V7.67491Z" fill="#B18E3E"/>
<path fill-rule="evenodd" clip-rule="evenodd" d="M20.8762 9.85938C20.8762 9.85938 20.8106 9.92482 20.75 10.0875C20.7033 10.0388 20.6633 9.98408 20.6309 9.92482C20.5412 9.77442 20.4029 9.58258 20.0801 9.69186C20.0753 9.58994 20.0679 9.5365 20.0801 9.4637C20.1335 9.4517 20.2961 9.32066 20.4586 9.12882C20.5729 8.99778 20.6796 8.84722 20.7524 8.65554C20.8004 8.61906 20.8834 8.55842 20.9924 8.48802C21.1477 8.3813 21.3346 8.23554 21.3637 8.07298C21.2909 8.1021 21.1356 8.1749 20.9025 8.1629C20.9924 8.12162 21.1306 8.07794 21.1137 7.89826C21.1501 7.87394 21.1793 7.85698 21.1793 7.85698C21.1519 7.84786 21.1231 7.84374 21.0943 7.84482C21.0893 7.82786 21.0821 7.8037 21.0409 7.8157C20.9996 7.8277 20.9929 7.82786 20.9874 7.84482C20.9705 7.84978 20.9146 7.84482 20.8733 7.8741C20.8321 7.90338 20.718 8.00018 20.6743 8.01714C20.6913 7.98802 20.7154 7.9445 20.7154 7.9445C20.7154 7.9445 20.5965 7.9565 20.5116 7.9925C20.3562 8.04594 20.1767 8.14306 19.9946 8.23762C20.0116 8.2085 20.0189 8.18962 20.0309 8.18418C20.0429 8.17874 20.0722 8.17218 20.0722 8.16722C20.0722 8.16226 20.0602 8.11922 20.0674 8.10178C20.1219 7.98646 20.1861 7.87603 20.2594 7.7717C20.3444 7.65746 20.3613 7.4949 20.3613 7.4949L20.7327 7.30802L21.7764 7.06802L22.4537 7.1093L22.3687 7.57778L21.9687 8.3957L21.6265 9.14082L21.2356 9.5973L20.8764 9.85938H20.8762Z" fill="#543E26"/>
<path fill-rule="evenodd" clip-rule="evenodd" d="M22.568 7.83203C22.568 7.83203 22.1602 8.33683 22.0461 8.41459C22.1189 8.25923 22.568 7.33443 22.7306 7.07715C22.6943 7.04803 22.6456 7.04803 22.7597 6.59715C22.6628 6.82515 22.6287 6.94419 22.5487 7.00483C22.4687 7.06547 22.4588 7.04611 22.4047 7.04611C22.4149 7.02764 22.4191 7.00644 22.4167 6.98547C22.4167 6.98547 22.0744 6.94419 21.8407 6.94419C21.6069 6.94419 21.1442 7.07043 20.8868 7.17235C20.6829 7.25731 20.5688 7.25731 20.496 7.31059C20.4232 7.37123 20.382 7.43683 20.3455 7.45379C20.3164 7.47075 20.1781 7.51443 20.1464 7.56051C20.1173 7.60851 20.0688 7.66243 20.0688 7.67459C20.0688 7.68675 20.0567 7.70387 20.0932 7.69155C20.1052 7.68675 20.1951 7.63811 20.297 7.57747C20.4352 7.49987 20.6028 7.41011 20.7242 7.35667C21.0712 7.21827 21.1805 7.24259 21.3357 7.21347C21.4983 7.18435 21.7314 7.11635 21.8866 7.11635C22.042 7.11155 22.3357 7.11635 22.4037 7.12851C22.3746 7.15283 22.3503 7.18195 22.3624 7.28387C22.3624 7.31299 22.3381 7.34451 22.3144 7.41491C22.2418 7.61395 22.1034 7.94403 22.0264 8.11155C21.9197 8.33955 21.7984 8.53139 21.7384 8.65027C21.6784 8.76915 21.5464 9.08227 21.4157 9.24979C21.285 9.41731 21.2167 9.51923 21.1757 9.55571C21.1348 9.59219 20.8407 9.80803 20.8626 9.88579C20.916 9.86883 21.2535 9.74179 21.4984 9.46595C21.7434 9.19011 21.7922 9.02179 21.9839 8.87123C22.1756 8.72067 22.3261 8.46835 22.4159 8.25971C22.4911 8.06547 22.4741 8.00483 22.5687 7.83251L22.568 7.83203Z" fill="#806031"/>
<path fill-rule="evenodd" clip-rule="evenodd" d="M13.7791 11.5997C13.7791 11.5997 13.7257 11.8205 13.6042 11.9298C13.4854 12.0367 13.2742 12.1288 13.25 12.3085C13.2209 12.488 13.4612 12.5779 13.4612 12.5779C13.4612 12.5779 13.33 12.7939 13.33 12.9565C13.33 13.124 13.3252 13.1555 13.3422 13.3157C13.3229 13.3281 13.3065 13.3445 13.2942 13.3637C13.2942 13.3637 13.3062 13.5191 13.4252 13.616C13.5442 13.713 13.646 13.7714 13.7066 13.7471C13.7159 13.7668 13.724 13.7871 13.731 13.8079C13.731 13.8079 13.8209 13.5797 13.8815 13.3807C13.9422 13.1768 13.9956 13.2058 14.0198 12.9315C14.0439 12.6573 14.3078 12.1864 14.3078 12.1864L14.4878 11.784L14.1942 11.5559L13.7791 11.5995V11.5997Z" fill="#B6903C"/>
<path fill-rule="evenodd" clip-rule="evenodd" d="M14.3253 11.9952C14.2647 12.0574 14.2088 12.1239 14.1581 12.1943C14.0805 12.3011 14.0198 12.3981 13.9058 12.4395C13.7917 12.481 13.7189 12.4807 13.7261 12.5949C13.7333 12.7091 13.8402 12.7575 13.9008 12.8157C13.9664 12.8763 14.0198 12.9783 13.9907 13.0925C14.027 13.0755 14.0926 13.056 14.1533 12.925C14.2139 12.7939 14.6381 11.9954 14.6381 11.9954H14.3253V11.9952Z" fill="#685026"/>
<path fill-rule="evenodd" clip-rule="evenodd" d="M15.9979 10.153C15.9979 10.153 16.0342 10.056 15.9979 9.98562C15.9614 9.91282 15.7406 9.8885 15.6313 9.80594C15.5173 9.72098 15.3789 9.66194 15.2648 9.69922C15.2817 9.65794 15.3497 9.56802 15.2939 9.54866C15.2405 9.5317 15.0416 9.62146 14.9881 9.66274C14.9347 9.70402 14.8133 9.7525 14.7891 9.78178C14.7649 9.81106 14.7235 9.86674 14.6992 9.84242C14.6749 9.82546 14.6629 9.78178 14.6216 9.80594C14.5803 9.8301 14.3816 9.99282 14.3449 10.0875C14.3083 10.1823 14.2259 10.3935 13.9784 10.6336C13.7309 10.8738 13.624 11.0293 13.6968 11.1191C13.7696 11.2088 13.8037 11.1434 13.8158 11.221C13.8252 11.2972 13.8211 11.3744 13.8037 11.4491C13.7745 11.5754 13.7261 11.6943 13.7915 11.7186C13.959 11.772 14.1217 11.6706 14.1581 11.7016C14.2309 11.7671 14.1168 12.0026 14.2891 12.0487C14.464 12.0967 14.6363 12.0074 14.6363 12.0074L15.2721 11.6651L15.8838 11.3424L16.1968 10.7234L16.0289 10.2064L15.9969 10.153H15.9979Z" fill="#D4B968"/>
<path fill-rule="evenodd" clip-rule="evenodd" d="M15.398 11.6312C15.398 11.6312 15.2911 11.4687 15.4223 11.3253C15.5535 11.1819 15.7402 11.1215 15.813 11.0317C15.7992 11.0146 15.7806 11.002 15.7596 10.9954C15.8079 10.9089 15.8816 10.8394 15.9708 10.7962C15.9345 10.7599 15.8858 10.7307 15.8325 10.7307C15.7135 10.7307 15.6405 10.8035 15.5314 10.8035C15.4247 10.8035 15.4125 10.7501 15.4125 10.7501C15.4125 10.7501 15.5922 10.7331 15.5751 10.653C15.5581 10.568 15.5271 10.568 15.5271 10.568C15.5271 10.568 15.8741 10.424 15.9348 10.3472C15.9954 10.2704 15.9882 10.1797 16.0004 10.1434C16.0415 10.1434 16.2818 10.0171 16.3789 10.0706C16.4761 10.124 16.4081 10.2696 16.4081 10.2696C16.4081 10.2696 16.702 10.0487 16.8517 9.83202C16.9828 9.84418 17.0437 9.74226 17.1397 9.74226C17.2588 9.74226 17.4457 9.90482 17.482 10.2519C17.5063 10.4509 17.5426 10.565 17.5063 10.917C17.4893 11.116 17.4941 11.541 17.5543 11.7519C17.5954 11.9194 17.6925 11.9024 17.6925 11.9024C17.6776 11.9535 17.6481 11.999 17.6076 12.0335C17.542 12.0941 17.5348 12.2544 17.542 12.3151C17.5516 12.3594 17.5638 12.4031 17.5785 12.4461C17.5785 12.4461 17.5009 12.5359 17.4813 12.5967C17.4644 12.6573 17.3844 12.6986 17.326 12.6986C17.2676 12.6986 17.2969 12.6936 17.2193 12.6986C17.1417 12.7035 17.1173 12.7155 17.0687 12.6986C17.0201 12.6816 16.9837 12.6621 17.0033 12.5066C17.0202 12.3512 16.4037 11.9896 16.4037 11.9896L15.3957 11.6304L15.398 11.6312Z" fill="#CCA849"/>
<path fill-rule="evenodd" clip-rule="evenodd" d="M14.2405 13.1652C14.2405 13.1652 14.4613 13.4589 15.3692 13.4589C15.8012 13.4589 15.9517 13.4176 16.0412 13.3933C16.1383 13.369 16.5023 13.226 16.8689 12.7938C17.1989 12.4031 17.1261 12.2429 17.1261 12.2429L16.9341 12.2138L16.3101 12.2988L14.4637 13.0852L14.2397 13.1652H14.2405Z" fill="#585136"/>
<path fill-rule="evenodd" clip-rule="evenodd" d="M14.9173 13.238C14.9173 13.238 14.1309 13.4128 14.1309 12.9152C14.1309 12.4298 14.6163 11.92 14.7377 11.8303C14.864 11.7404 15.1649 11.6383 15.1649 11.6383H15.8907L16.0289 12.0048L15.9683 12.796L14.9173 13.2378V13.238Z" fill="#252211"/>
<path fill-rule="evenodd" clip-rule="evenodd" d="M15.6431 11.7866C15.6431 11.7866 15.4927 11.6482 15.1504 11.8346C14.8082 12.021 14.5314 12.4106 14.5144 12.7644C14.4975 13.0773 14.7717 13.3104 15.1989 13.3226C15.5168 13.3346 15.7087 13.2983 15.8058 13.2746C15.7815 13.2455 15.6552 13.0877 15.6552 13.0877L15.6432 11.7868L15.6431 11.7866Z" fill="#C3B378"/>
<path fill-rule="evenodd" clip-rule="evenodd" d="M15.495 11.864C15.495 11.864 15.4587 11.8349 15.351 11.8932C15.2613 11.9412 15.1302 12.068 15.0283 12.1578C14.9627 12.2112 14.9214 12.2354 14.8843 12.2767C14.7337 12.4564 14.6075 12.7501 14.6805 12.8957C14.7534 13.0413 14.9936 13.2088 15.6053 13.0948L15.4933 11.8642L15.495 11.864Z" fill="#E6D89C"/>
<path fill-rule="evenodd" clip-rule="evenodd" d="M15.2961 12.1652C15.2961 12.1652 15.1989 12.3157 15.1989 12.556C15.1989 12.8012 15.3373 13.1919 15.8471 13.221C16.2378 13.2453 16.4999 12.658 16.7839 12.4298C16.9999 12.2551 17.1309 12.2501 17.1309 12.2501C17.1309 12.2501 16.9101 12.0101 16.3204 11.6992C15.7378 11.3861 15.0849 11.3448 14.7305 11.8255C14.898 11.8133 15.4393 11.6749 15.4393 11.6749L15.7039 11.7599L15.2961 12.1653V12.1652Z" fill="#252211"/>
<path fill-rule="evenodd" clip-rule="evenodd" d="M16.0584 12.4831C16.0414 12.4467 16.0292 12.3981 16.0996 12.3861C16.17 12.3741 16.2016 12.3811 16.2259 12.4341C16.2502 12.4871 16.2739 12.5312 16.2379 12.5531C16.2016 12.5725 16.1068 12.5531 16.0582 12.4827L16.0584 12.4831ZM15.9443 12.1408C15.9443 12.1408 15.92 12.1578 15.9321 12.1239C15.9369 12.0827 15.9686 12.0098 16.0462 12.0269C16.1238 12.044 16.107 12.1288 16.0942 12.1531C16.0814 12.1775 16.0166 12.2186 15.968 12.2011C15.9618 12.1996 15.9561 12.1966 15.9513 12.1924C15.9465 12.1882 15.9428 12.1829 15.9404 12.177C15.938 12.1711 15.9371 12.1647 15.9377 12.1584C15.9382 12.152 15.9403 12.1459 15.9436 12.1405L15.9443 12.1408Z" fill="#6F674D"/>
<path fill-rule="evenodd" clip-rule="evenodd" d="M9.37402 12.296C9.37402 12.296 9.56602 12.44 9.78906 12.4344C10.0099 12.4295 10.2939 12.2015 10.4249 12.0557C10.5025 11.9707 10.5689 11.881 10.6409 11.8106C10.7017 11.7499 10.7428 11.7208 10.7719 11.6795C10.8132 11.6315 10.8569 11.5413 10.8788 11.512C10.8254 11.5533 10.7478 11.6263 10.6676 11.6747C10.59 11.7227 10.4225 11.813 10.3545 11.8373C10.2891 11.8616 9.60938 12.2213 9.60938 12.2213L9.37402 12.296Z" fill="#AC924C"/>
<path fill-rule="evenodd" clip-rule="evenodd" d="M9.66748 10.5026C9.66748 10.5026 9.7742 10.4298 9.9806 10.3835C10.1796 10.3355 10.5801 10.2986 10.5801 10.2986L10.9102 10.4426L11.0412 10.9402L10.8012 11.4573L10.4955 11.6493L10.1483 11.0911L9.66828 10.5035L9.66748 10.5026Z" fill="#9F8E57"/>
<path fill-rule="evenodd" clip-rule="evenodd" d="M9.23533 10.9468L9.12109 11.032C9.12109 11.032 9.15037 10.9786 9.17453 10.816C9.19869 10.6535 9.32509 10.2578 9.50957 10.0296C9.69405 9.80147 9.68925 9.81363 9.68925 9.81363C9.67228 9.81053 9.65484 9.81108 9.63809 9.81524C9.62134 9.81941 9.60568 9.8271 9.59213 9.83779C9.61645 9.78403 9.77181 9.59203 9.92717 9.49603C10.0825 9.40003 10.1432 9.36979 10.3057 9.44803C10.4683 9.52627 10.5096 9.56691 10.6286 9.56211C10.7477 9.55731 10.8494 9.43107 10.8494 9.43107C10.8494 9.43107 10.8737 9.50867 10.784 9.68835C10.6942 9.86803 10.3398 10.2344 10.3398 10.2344L9.60189 10.7392L9.23533 10.9472V10.9468Z" fill="#EAC970"/>
<path fill-rule="evenodd" clip-rule="evenodd" d="M9.7814 10.4419C9.7814 10.4419 10.3155 10.5147 10.478 10.3643C10.4828 10.3813 10.5024 10.3813 10.5024 10.3935C10.5011 10.4026 10.4968 10.4111 10.4902 10.4176C10.5079 10.4148 10.5257 10.4132 10.5436 10.4128C10.565 10.4192 10.587 10.4233 10.6092 10.425C10.6272 10.4246 10.645 10.4229 10.6627 10.42C10.661 10.4321 10.6569 10.4437 10.6506 10.4541C10.6444 10.4646 10.6361 10.4737 10.6262 10.4808C10.6505 10.4808 10.6742 10.4856 10.6742 10.505C10.6742 10.5243 10.679 10.5827 10.6499 10.5949C10.6258 10.6016 10.6001 10.5998 10.5771 10.5899C10.579 10.6359 10.5915 10.6808 10.6136 10.7211C10.6616 10.8109 10.764 10.9131 10.9016 10.8837C10.9016 10.8837 10.9742 11.0584 10.6684 11.4467C10.6273 11.5002 10.5835 11.573 10.5302 11.6336C10.5092 11.6795 10.4931 11.7275 10.4822 11.7768C10.4822 11.7768 10.9993 11.5778 11.1473 11.1239C11.2979 10.6675 11.327 10.2186 11.2979 9.79875C11.2929 9.67971 11.2736 9.59491 11.2444 9.53411C11.1716 9.38355 10.9676 9.40787 10.8852 9.49283C10.7662 9.61187 10.5672 9.90787 10.2905 10.1117C10.0089 10.3155 9.99692 10.3517 9.78076 10.4419H9.7814Z" fill="#D7BC6B"/>
<path fill-rule="evenodd" clip-rule="evenodd" d="M9.14064 11.0973C9.14064 11.0973 9.03872 11.1579 8.98528 11.3853C8.93184 11.6183 9.03328 11.9023 9.092 11.992C9.15072 12.0818 9.284 12.3271 9.56048 12.3392C9.62891 12.3389 9.69658 12.3248 9.75952 12.2979C9.85603 12.2537 9.94657 12.1974 10.029 12.1304C10.148 12.0407 10.245 11.9631 10.2328 11.9557C10.2037 11.9435 9.49984 11.361 9.49984 11.361L9.2352 11.0656L9.14048 11.0976L9.14064 11.0973Z" fill="#585136"/>
<path fill-rule="evenodd" clip-rule="evenodd" d="M9.80606 12.0632C9.80606 12.0632 9.94926 12.0512 10.0342 11.9978C10.1192 11.9443 9.53662 11.3667 9.53662 11.3667L9.5779 11.9907L9.80606 12.0632Z" fill="#453A25"/>
<path fill-rule="evenodd" clip-rule="evenodd" d="M9.18702 11.0535C9.18702 11.0535 9.11422 11.1919 9.11422 11.2283C9.10206 11.3472 9.13854 11.721 9.16766 11.8399C9.19678 11.9661 9.35454 12.1578 9.55854 12.1578C9.68462 12.1578 9.8595 12.0802 9.8595 12.0608C9.8595 12.0365 9.67982 12.0128 9.63134 11.9224C9.60222 11.8744 9.59006 11.7551 9.58334 11.6344C9.57854 11.5568 9.57854 11.4719 9.60766 11.4424C9.67326 11.3696 9.68526 11.1608 9.68526 11.1608L9.91822 10.728H9.61182L9.24526 10.9562L9.18702 11.0535Z" fill="#84754B"/>
<path fill-rule="evenodd" clip-rule="evenodd" d="M9.09717 11.1871C9.09717 11.1871 9.33717 10.8691 9.55349 10.7962C9.76981 10.7232 9.86661 10.7671 9.86661 10.7671L9.74037 11.0899L9.56069 11.289L9.57285 11.3909C9.57285 11.3909 9.54357 11.6603 9.72325 11.8472C9.90293 12.0341 10.0364 12.0269 10.1141 12.0269C10.1919 12.0269 10.4151 11.9613 10.5292 11.6919C10.6311 11.4395 10.716 11.1159 10.5122 10.7914C10.313 10.4685 9.96117 10.456 9.89317 10.456C9.82517 10.456 9.29125 10.4827 9.09717 11.1866V11.1871Z" fill="#252211"/>
<path fill-rule="evenodd" clip-rule="evenodd" d="M15.2599 12.2671C15.1701 12.2258 15.2551 11.9735 15.3448 11.8957C15.4346 11.8179 15.5487 11.7283 15.7479 11.716C15.8205 11.7112 15.8909 11.7573 15.8789 11.8059C15.862 11.8957 15.7357 12.0219 15.6216 12.1117C15.4639 12.2355 15.3618 12.3131 15.2599 12.2671Z" fill="#F7F7E7"/>
<path fill-rule="evenodd" clip-rule="evenodd" d="M10.4054 10.8909C10.471 10.8861 10.5559 10.9389 10.5729 11.01C10.5898 11.0876 10.5316 11.2429 10.4054 11.2429C10.3034 11.2429 10.25 11.1167 10.25 11.0804C10.2511 11.0505 10.2595 11.0213 10.2743 10.9954C10.2791 10.988 10.2913 10.9031 10.4054 10.8909Z" fill="#F8F6DE"/>
<path fill-rule="evenodd" clip-rule="evenodd" d="M9.4587 10.9467C9.4587 10.9467 9.29118 11.0243 9.21358 11.1867C9.15813 11.3067 9.14136 11.4409 9.16558 11.5707C9.17774 11.6314 9.23838 11.7818 9.27966 11.8352C9.32094 11.8887 9.37678 11.9251 9.41806 11.9202C9.45934 11.9152 9.54414 11.8061 9.54414 11.7407C9.54414 11.6752 9.5491 11.3984 9.6291 11.2479C9.6995 11.0975 9.45918 10.9469 9.45918 10.9469L9.4587 10.9467Z" fill="#D4C38B"/>
<path fill-rule="evenodd" clip-rule="evenodd" d="M9.483 10.9346C9.45388 10.9516 9.4054 10.9759 9.4174 11.0074C9.42956 11.0365 9.53148 11.0554 9.56796 11.1264C9.60924 11.1992 9.60924 11.2768 9.59708 11.3133C9.62878 11.2983 9.65755 11.2777 9.68204 11.2525C9.73548 11.1919 9.80092 11.1095 9.85676 11.1095C9.89324 11.1095 9.92956 11.1264 9.96364 11.1264C10.0171 11.1264 10.0704 11.1095 10.0777 11.0536C10.0897 10.9808 9.9758 10.9152 9.9102 10.9274C9.92236 10.8794 9.93932 10.8085 9.88588 10.7599C9.83244 10.7112 9.66508 10.7964 9.6286 10.8207C9.59212 10.845 9.483 10.9348 9.483 10.9348V10.9346Z" fill="#E2D59D"/>
<path fill-rule="evenodd" clip-rule="evenodd" d="M13.3398 16.0341L13.699 15.928L13.8009 16.0008C13.8009 16.0008 13.8736 16.1562 13.9878 16.1755C13.9513 16.2531 13.8566 16.3195 13.8616 16.3746C13.8665 16.4296 13.915 16.4717 13.915 16.4717C13.915 16.4717 13.5921 17.0056 14.2281 17.5437C14.0776 17.6043 13.8859 17.6877 13.784 17.7357C13.8566 17.7527 14.012 17.7837 14.0776 17.8426C14.1432 17.9015 14.1432 17.9202 14.2038 17.9567C14.2644 17.9931 14.3008 18.0416 14.2888 18.0634C14.2475 18.0391 14.1091 17.9664 14.0849 18.0343C14.0608 18.1021 13.4854 18.0755 13.4854 18.0755L12.5145 18.2624C12.5145 18.2624 12.5508 18.1653 12.4489 18.0755C12.33 17.9688 12.1844 18.0803 12.0291 17.9615C11.8252 17.8061 11.8179 17.6264 11.7524 17.5586C11.8179 17.5173 11.9515 17.4567 12.2694 17.4146C12.2572 17.3903 12.216 17.3175 12.2403 17.252C12.2694 17.1671 12.3907 17.1136 12.3544 17.012C12.4078 16.9999 12.432 16.9999 12.5656 16.8323C12.6918 16.6648 12.7694 16.6285 12.8665 16.6163C12.9636 16.6042 13.0219 16.6163 13.2016 16.4488C13.3276 16.3299 13.2865 16.228 13.2865 16.228C13.2865 16.228 13.3689 16.2013 13.34 16.0338L13.3398 16.0341Z" fill="#CBAC5A"/>
<path fill-rule="evenodd" clip-rule="evenodd" d="M12.2794 16.088C12.2842 16.0637 12.3037 16.0516 12.4347 16.0637C12.5658 16.0759 13.3959 15.9861 13.6216 15.974C13.8498 15.957 14.6531 15.969 15.044 16.0516C15.4349 16.1341 15.8304 16.2312 16.0221 16.2797C16.2141 16.3332 16.2746 16.3524 16.2672 16.3767C16.2624 16.401 16.2192 16.4247 16.1944 16.418C16.1703 16.4132 15.5343 16.2189 15.3378 16.178C15.1413 16.137 14.4615 16.0274 14.0898 16.034C13.7427 16.0389 13.6043 16.0292 13.3107 16.0631C13.017 16.0996 12.5315 16.148 12.3859 16.1287C12.2419 16.1117 12.2717 16.1117 12.2791 16.0874L12.2794 16.088Z" fill="#D6BC6F"/>
<path fill-rule="evenodd" clip-rule="evenodd" d="M14.2328 17.9904C14.2328 17.9904 14.7304 18.2599 14.9101 18.59C15.0411 18.8351 14.8325 18.9565 14.8325 18.9565C14.8325 18.9565 15.1141 18.9565 15.0776 19.1119C15.0606 19.2088 14.5922 19.4709 14.279 19.6093C13.9611 19.7477 13.9733 19.7405 13.8179 19.7647C13.6674 19.789 13.2547 19.7167 13.1698 19.8375C13.0848 19.9583 13.1218 20.0828 13.1454 20.1021C13.1698 20.1191 13.3664 20.1434 13.3664 20.1434C13.3664 20.1434 13.3251 20.2575 12.9174 20.2696C12.5098 20.2818 12.4077 20.3108 12.3834 20.3546C12.359 20.3957 12.461 20.3716 12.648 20.4026C12.8349 20.4317 13.097 20.4506 13.097 20.4506C13.097 20.4506 13.012 20.5234 12.7912 20.5816C12.5387 20.6471 12.143 20.7079 12.0242 20.7807C12.0848 20.822 12.1747 20.8826 12.2162 20.8874C12.1142 20.9117 11.9709 20.9652 11.9467 20.9845C11.983 21.0088 12.0317 21.038 12.0317 21.038C12.0317 21.038 11.8277 21.2831 11.7088 21.3439C11.5899 21.4047 10.9054 21.7224 10.6699 21.6618C10.0826 21.5064 10.0098 20.8632 9.86656 20.8148C9.65056 20.742 9.54864 20.8874 9.3568 20.7855C9.44176 20.7248 9.488 20.6885 9.57776 20.6472C9.48064 20.5992 8.97824 20.2807 8.97824 20.2807C8.9257 20.1662 8.86739 20.0544 8.80352 19.9458C8.7064 19.7783 8.56352 19.5549 8.45632 19.3583C8.22336 18.9263 8.2112 18.7272 8 18.4821C8.03648 18.4341 8.16256 18.4408 8.16256 18.4408L9.93216 19.0234L13.0699 19.1143L13.8859 17.9493L14.233 17.9906L14.2328 17.9904Z" fill="#DFC677"/>
<path fill-rule="evenodd" clip-rule="evenodd" d="M9.58496 19.7671C9.6039 19.7882 9.62597 19.8062 9.6504 19.8205C9.7112 19.8618 9.80096 19.9104 9.8616 19.9831C9.88592 19.9468 9.94656 19.8812 10.0536 19.9831C10.1606 20.085 10.2936 20.0124 10.3763 20.0365C10.4613 20.0658 10.4661 20.0778 10.4661 20.0778C10.4661 20.0778 10.5141 20.0365 10.6214 19.9928C10.687 19.9685 10.7646 19.9516 10.8496 19.9274C10.9272 19.9104 11.0122 19.8861 11.0706 19.8861C11.124 19.9224 11.3157 20.1261 12.0851 19.8255C12.8109 19.5439 12.9782 19.5124 13.0997 19.5559C13.1118 19.5268 13.124 19.4709 13.3109 19.4783C13.3109 19.4007 13.1555 19.136 13.1555 19.136L12.2987 18.8424H11.8301L10.4248 19.0997L9.64608 19.544L9.58544 19.768L9.58496 19.7671Z" fill="#C4A859"/>
<path fill-rule="evenodd" clip-rule="evenodd" d="M9.1167 19.2744C9.1167 19.2744 9.13366 19.4055 9.3279 19.5439C9.5199 19.6821 9.58022 19.7647 9.58022 19.7647C9.58022 19.7647 9.6167 19.7167 9.64582 19.6677C9.67494 19.6143 9.69926 19.5536 9.74774 19.5367C9.84486 19.4954 10.0657 19.573 10.1143 19.5608C10.1556 19.5488 10.1434 19.4639 10.1871 19.4639C10.289 19.4589 10.3545 19.5293 10.3909 19.5293C10.4274 19.5293 10.517 19.5245 10.5292 19.5051C10.5413 19.4858 10.5461 19.2842 10.6845 19.1871C10.8351 19.0803 11.0196 19.1264 11.0685 19.1507C11.0685 19.1871 11.0733 19.277 11.1705 19.2818C11.2676 19.2866 11.2772 19.2696 11.3625 19.2987C11.4477 19.3279 11.5493 19.2939 11.5954 19.437C11.6367 19.425 11.7338 19.4128 11.7095 19.2744C11.7575 19.2381 11.7994 19.2138 11.9015 19.0706C11.9258 19.0343 11.9669 18.993 11.9986 18.9395C12.0836 18.9395 12.1855 18.9226 12.3213 19.0415C12.2801 19.0706 12.2557 19.0895 12.2437 19.1191C12.2793 19.1542 12.3117 19.1924 12.3407 19.2331C12.3772 19.2811 12.4015 19.34 12.4476 19.3522C12.5495 19.3813 12.717 19.34 12.9039 19.3522C13.0836 19.3643 13.234 19.4298 13.2996 19.4711C13.3239 19.4591 13.3239 19.4541 13.3845 19.4663C13.4452 19.4784 13.4913 19.4832 13.4258 19.4056C13.4621 19.4226 13.5034 19.4591 13.5399 19.4226C13.5764 19.3861 13.6053 19.3328 13.7073 19.3207C13.8092 19.3085 13.8457 19.3255 13.8869 19.2187C13.9404 19.0877 13.7559 19.0877 13.7559 19.0877C13.7559 19.0877 13.8409 19.0099 13.9356 18.908C14.0497 18.8013 14.1807 18.6629 14.2122 18.493C14.2657 18.1799 13.9599 18.1387 13.9599 18.1387L12.4769 18.5951L10.6637 18.5051L9.11766 19.2746L9.1167 19.2744Z" fill="#927D49"/>
<path fill-rule="evenodd" clip-rule="evenodd" d="M7.78415 14.9904C7.78415 14.9904 7.73615 15.0511 7.70655 15.1943C7.67695 15.3375 7.68959 15.3205 7.66527 15.4224C7.64095 15.5243 7.34223 16.5389 7.45423 16.8811C7.56623 17.2234 7.76015 17.3496 7.88143 17.6263C7.90575 17.6869 7.92943 17.7234 7.94207 17.7768C7.98335 17.9563 7.94703 18.0947 7.99551 18.2744C8.01247 18.3351 8.05631 18.4055 8.12175 18.4783C8.26575 18.6287 8.50047 18.7719 8.60175 18.8738C8.74479 19.0243 8.94879 19.3303 9.20847 19.3592C9.34687 19.3762 9.54351 19.3179 9.70607 19.221C9.85007 19.1311 9.93903 19.005 10.0901 18.933C10.1968 18.8795 10.3109 18.8602 10.4128 18.8359C10.624 18.7946 10.8158 18.7879 10.9299 18.8115C11.1046 18.848 11.5173 18.9743 11.7459 18.9743C11.9246 18.9714 12.1022 18.9469 12.275 18.9015C12.6221 18.7995 13.0419 18.6247 13.3187 18.5471C13.4813 18.4991 13.6123 18.4864 13.7459 18.4573C13.9741 18.4039 14.1658 18.3311 14.275 18.1927C14.2022 18.1077 14.1125 17.9767 13.6269 17.9815C13.076 17.9936 12.44 18.2994 12.1269 18.348C11.8138 18.3967 11.6779 18.4378 11.3283 18.3115C10.9856 18.184 10.9742 18.0997 10.9742 18.0997C10.9742 18.0997 10.6144 17.848 10.4638 17.2064C10.3133 16.5648 10.4638 16.0973 10.8547 15.653C10.9566 15.5389 10.9323 15.437 10.9323 15.437C10.9323 15.437 11.1896 15.0899 11.1192 14.765C11.0416 14.4421 10.544 14.5077 10.544 14.5077L7.78431 14.9904H7.78415Z" fill="#6E6342"/>
<path fill-rule="evenodd" clip-rule="evenodd" d="M8.19889 16.0706C8.17749 16.1108 8.16742 16.1561 8.16977 16.2016C8.17457 16.2671 8.19409 16.352 8.39057 16.5439C8.55809 16.7112 8.52161 16.8981 8.52161 16.8981C8.52161 16.8981 8.60593 16.9151 8.83473 16.808C9.01441 16.7231 9.07473 16.8736 9.07473 16.8736C9.12703 16.8462 9.18372 16.8281 9.24225 16.8202C9.29527 16.8153 9.34659 16.7989 9.39265 16.7722C9.39265 16.7722 9.60385 16.9882 9.78833 17.0901C9.95585 17.18 10.053 17.2407 10.1355 17.18C10.2131 17.1266 10.2131 17.0173 10.2082 16.9688C10.1889 16.9241 10.1645 16.8817 10.1355 16.8426C10.0821 16.765 9.99713 16.6751 9.99153 16.6026C9.97937 16.4352 10.1178 16.236 10.0885 16.1875C10.0592 16.1391 9.95025 16.1269 9.68081 16.224C9.40177 16.3162 8.19777 16.0711 8.19777 16.0711L8.19889 16.0706Z" fill="#39331F"/>
<path fill-rule="evenodd" clip-rule="evenodd" d="M8.83493 17.1556C8.83493 17.1556 8.69669 17.0245 8.74517 16.3885C8.80386 16.3877 8.86246 16.3933 8.91989 16.4055C8.91989 16.4055 8.99525 16.8983 8.83493 17.1556Z" fill="#292311"/>
<path fill-rule="evenodd" clip-rule="evenodd" d="M7.84979 14.505C7.86908 14.4907 7.88697 14.4746 7.90323 14.457C7.85523 14.5467 7.63363 14.9059 7.81331 15.4715C7.99299 16.0346 8.44435 16.4544 9.00019 16.4739C9.55603 16.4935 9.84819 16.2215 10.1823 15.8138C10.3133 15.6512 10.4639 15.4472 10.5973 15.309C10.7964 15.0928 10.9517 15.0322 10.9517 14.8235C10.9517 14.3963 10.5148 14.2045 9.87155 14.0128C9.22835 13.8211 8.64819 13.8448 8.34723 13.976C8.05363 14.1191 7.92739 14.2696 7.84963 14.5051L7.84979 14.505Z" fill="#252211"/>
<path fill-rule="evenodd" clip-rule="evenodd" d="M9.91503 17.3472L9.96303 17.3229C9.96303 17.3229 9.97503 17.1309 10.0528 17.136C10.1304 17.1482 10.1669 17.2503 10.1595 17.2866C10.1547 17.3229 10.1353 17.3837 10.0576 17.3763C9.95567 17.3787 9.91455 17.3472 9.91455 17.3472H9.91503Z" fill="#3F3824"/>
<path fill-rule="evenodd" clip-rule="evenodd" d="M9.69922 16.5317C9.69922 16.5317 9.74722 16.5147 9.80594 16.573C9.85394 16.573 10.0632 16.5487 10.1288 16.5899C10.1944 16.6312 10.2138 16.6675 10.2138 16.6675C10.2138 16.6675 9.96866 16.721 9.83506 16.6675C9.69922 16.6215 9.69922 16.5317 9.69922 16.5317Z" fill="#2D2815"/>
<path fill-rule="evenodd" clip-rule="evenodd" d="M10.779 16.568C10.779 16.5559 10.648 16.4661 10.5096 16.4368C10.4853 16.432 10.4803 16.449 10.4616 16.449C10.4494 16.4442 10.4446 16.4077 10.4446 16.4077L10.3659 16.4492C10.3659 16.4492 10.3538 16.4661 10.395 16.4972C10.4314 16.5263 10.4922 16.5506 10.5091 16.5991C10.5261 16.6476 10.5261 16.6645 10.5334 16.6719C10.5382 16.6767 10.6232 16.6719 10.6645 16.6476C10.7058 16.6232 10.7835 16.5836 10.7786 16.5676L10.779 16.568Z" fill="#82764F"/>
<path fill-rule="evenodd" clip-rule="evenodd" d="M9.55322 17.0608C9.55322 17.0608 9.57738 16.8935 9.7401 16.8861C9.90746 16.874 9.93914 17.0365 9.93914 17.0365L9.84202 17.1336C9.84202 17.1312 9.76922 17.0293 9.55402 17.0608H9.55322Z" fill="#2D2816"/>
<path fill-rule="evenodd" clip-rule="evenodd" d="M10.6093 16.3399C10.6093 16.3399 10.5193 16.437 10.3205 16.4661C10.3035 16.4418 10.267 16.3933 10.3205 16.3157C10.3739 16.2381 10.4345 16.2138 10.4952 16.2379C10.5219 16.2423 10.5469 16.2542 10.5671 16.2722C10.5873 16.2903 10.602 16.3138 10.6093 16.3399Z" fill="#574F35"/>
<path fill-rule="evenodd" clip-rule="evenodd" d="M10.9757 16.4589C10.9806 16.4346 10.9637 16.4298 10.9757 16.4176C10.9877 16.4055 11.0534 16.3813 11.0656 16.3933C11.0704 16.3983 11.0656 16.4176 11.0656 16.4413C11.0656 16.465 11.0656 16.4893 11.0535 16.5068C11.0365 16.5311 10.988 16.5432 10.9637 16.536C10.9394 16.5288 10.9346 16.4948 10.9346 16.488C10.9466 16.4832 10.9757 16.4711 10.9757 16.4589ZM11.3901 16.1968C11.3901 16.1847 11.4314 16.1604 11.4557 16.1604C11.492 16.1604 11.492 16.1895 11.497 16.1968C11.509 16.2016 11.509 16.1919 11.5211 16.2138C11.5333 16.2357 11.5504 16.2744 11.5381 16.2988C11.5258 16.3231 11.4775 16.3399 11.4655 16.3351C11.4485 16.3229 11.395 16.2138 11.3901 16.1968Z" fill="#82764F"/>
<path fill-rule="evenodd" clip-rule="evenodd" d="M10.5557 16.5147C10.5557 16.5147 10.6091 16.5267 10.6819 16.5875C10.6576 16.6045 10.6211 16.6239 10.6211 16.6239C10.6211 16.6239 10.6163 16.568 10.5557 16.5146V16.5147Z" fill="#6E6342"/>
<path fill-rule="evenodd" clip-rule="evenodd" d="M10.437 15.9807C10.4248 15.9687 10.4733 15.9395 10.5024 15.9443C10.5315 15.9491 10.5437 15.9687 10.5752 15.9735C10.6067 15.9783 10.6117 15.9613 10.6232 15.9491C10.6347 15.937 10.6767 15.9443 10.6839 15.9491C10.6883 15.9545 10.6924 15.9602 10.696 15.9661C10.6965 15.9569 10.6989 15.9478 10.7031 15.9396C10.7072 15.9313 10.7131 15.924 10.7202 15.9181C10.7295 15.9113 10.7402 15.9066 10.7516 15.9045C10.7629 15.9024 10.7746 15.9029 10.7858 15.9059C10.7906 15.9229 10.8149 15.9835 10.8101 15.9957C10.8053 16.0079 10.7325 16.025 10.7202 16.0127C10.7323 16.0419 10.7858 16.1026 10.793 16.1146C10.8002 16.1266 10.7395 16.1559 10.7154 16.1511C10.6815 16.1487 10.4727 16.0272 10.4363 15.9811L10.437 15.9807ZM10.7549 15.5778C10.7504 15.5656 10.7418 15.5553 10.7306 15.5487C10.7136 15.5439 10.6578 15.5487 10.6578 15.5778C10.6578 15.6069 10.7058 15.7698 10.7597 15.8546C10.8205 15.9395 10.8616 16.0098 10.9029 16.0293C10.9159 16.0352 10.9306 16.036 10.9441 16.0315C10.9576 16.027 10.9689 16.0175 10.9757 16.005C10.9805 15.9928 10.9927 15.9031 10.9879 15.6919C10.9831 15.4807 10.9757 15.2768 10.9635 15.2647C10.9514 15.2525 10.9029 15.2527 10.8859 15.2768C10.869 15.301 10.7597 15.5415 10.7547 15.5778H10.7549Z" fill="#585136"/>
<path fill-rule="evenodd" clip-rule="evenodd" d="M10.5387 16.8205C10.5387 16.8205 10.4538 16.7671 10.3712 16.8035C10.2936 16.84 10.2984 16.9832 10.2984 16.9832C10.3159 16.9901 10.3347 16.9925 10.3533 16.9904C10.372 16.9883 10.3898 16.9816 10.4053 16.9711C10.4587 16.9347 10.5266 16.8741 10.5387 16.8207V16.8205Z" fill="#574F35"/>
<path fill-rule="evenodd" clip-rule="evenodd" d="M10.6989 17.0124C10.6941 16.9644 10.6509 16.9644 10.6509 16.9396C10.6539 16.9277 10.6607 16.9172 10.6704 16.9097C10.68 16.9022 10.6919 16.8982 10.7042 16.8983C10.7285 16.8983 10.7522 16.9274 10.7819 16.9463C10.811 16.9632 10.8547 16.9943 10.8595 17.0312C10.8643 17.0682 10.8115 17.1695 10.7528 17.1695C10.6941 17.1695 10.7115 17.0602 10.6994 17.0117L10.6989 17.0124ZM11.1674 16.9468C11.1674 16.9468 11.0702 16.9759 11.0774 16.9468C11.0846 16.9176 11.1067 16.9104 11.1382 16.9104C11.1543 16.8937 11.1758 16.8833 11.1989 16.8812C11.2121 16.8805 11.225 16.8848 11.2352 16.8933C11.2352 16.8933 11.3008 16.8642 11.3202 16.8812C11.3395 16.8981 11.3251 16.8981 11.3371 16.9176C11.3524 16.9393 11.3624 16.9642 11.3664 16.9904C11.3664 17.0098 11.2936 17.0511 11.2352 17.0439C11.1674 17.0293 11.1794 16.9589 11.1674 16.9468ZM11.7328 16.8375C11.7328 16.8375 11.7619 16.8544 11.7378 16.874C11.7208 16.8909 11.6358 16.922 11.5629 16.9274C11.4901 16.9274 11.4246 16.9394 11.4246 16.9152C11.4246 16.8911 11.4853 16.8424 11.5216 16.8303C11.5289 16.8211 11.5381 16.8138 11.5487 16.8087C11.5592 16.8037 11.5707 16.8011 11.5824 16.8012C11.6115 16.8012 11.7254 16.789 11.7571 16.7842C11.7862 16.7792 11.8106 16.7962 11.7934 16.8205C11.7862 16.8375 11.7328 16.8375 11.7328 16.8375ZM11.9003 16.088C11.9003 16.088 11.8638 16.1656 11.8227 16.1656C11.7814 16.1608 11.7814 16.1487 11.7814 16.1365C11.7814 16.1196 11.8227 16.0759 11.8178 16.0637C11.8058 16.0637 11.7765 16.0637 11.7814 16.0346C11.7814 16.0103 11.8227 15.9812 11.859 15.9866C11.8865 15.964 11.9207 15.9513 11.9562 15.9503C11.9974 15.9503 12.0338 15.9623 12.0338 15.9866C12.0338 16.0109 11.9858 16.0642 11.9682 16.0765C11.9488 16.0959 11.9245 16.1085 11.9003 16.0885V16.088ZM11.3469 17.5224C11.3469 17.5224 11.2989 17.5274 11.2989 17.5516C11.2989 17.5637 11.3109 17.5637 11.328 17.5565C11.3379 17.556 11.3476 17.5543 11.3571 17.5516C11.3619 17.5565 11.3619 17.5807 11.3984 17.5807C11.4284 17.5766 11.4572 17.5667 11.4834 17.5516C11.5125 17.5396 11.5368 17.5272 11.5368 17.5036C11.5246 17.4623 11.5003 17.4428 11.464 17.4428C11.4454 17.4416 11.4268 17.4458 11.4106 17.4549C11.4106 17.4549 11.3984 17.4306 11.3571 17.4549C11.3158 17.4792 11.3206 17.4792 11.3328 17.4914C11.3546 17.5108 11.3474 17.5234 11.3474 17.5234L11.3469 17.5224ZM11.0726 17.7749C11.0726 17.7628 11.1333 17.7384 11.1502 17.7458C11.1672 17.7506 11.2157 17.8428 11.2157 17.8525C11.2157 17.8647 11.155 17.8938 11.1307 17.8938C11.1064 17.8938 11.0653 17.8525 11.0653 17.8458C11.0653 17.841 11.0944 17.8338 11.0944 17.8288C11.1016 17.8168 11.0726 17.7876 11.0726 17.7754V17.7749ZM10.8806 17.4205C10.8928 17.4157 10.8928 17.4036 10.9098 17.3914C10.9151 17.3879 10.9211 17.3856 10.9274 17.3848C10.9338 17.3839 10.9402 17.3846 10.9462 17.3866C10.9505 17.379 10.9564 17.3724 10.9636 17.3673C10.9707 17.3622 10.9789 17.3588 10.9875 17.3573C11.0166 17.3525 11.041 17.3573 11.0355 17.3695C11.0355 17.406 11.0598 17.4301 11.0598 17.4592C11.0598 17.4884 11.0429 17.5248 10.9822 17.5492C10.9216 17.5661 10.839 17.5661 10.8269 17.5613C10.8147 17.5565 10.8026 17.5079 10.8147 17.4836C10.8269 17.4592 10.8608 17.4327 10.8803 17.4205H10.8806Z" fill="#82764F"/>
<path fill-rule="evenodd" clip-rule="evenodd" d="M10.9583 17.437C10.9583 17.437 10.917 17.4613 10.917 17.4735C10.9133 17.4852 10.9117 17.4975 10.9122 17.5098C10.9122 17.517 10.9656 17.505 10.9728 17.4976C10.9752 17.4928 10.9583 17.4496 10.9583 17.437Z" fill="#6E6342"/>
<path fill-rule="evenodd" clip-rule="evenodd" d="M10.5969 17.3229C10.621 17.3279 10.6623 17.3229 10.6938 17.3351C10.7182 17.3472 10.7351 17.3715 10.7108 17.4007C10.6865 17.4298 10.6628 17.4735 10.6089 17.4661C10.5482 17.4613 10.49 17.4298 10.49 17.4055C10.489 17.3901 10.491 17.3746 10.496 17.3601C10.501 17.3455 10.5089 17.332 10.5191 17.3205C10.5434 17.3011 10.5554 17.3133 10.5967 17.3229H10.5969Z" fill="#585136"/>
<path fill-rule="evenodd" clip-rule="evenodd" d="M10.5679 17.3472C10.5679 17.3472 10.4903 17.4079 10.4708 17.4371C10.4465 17.4663 10.3276 17.6167 10.2913 17.6482C10.3034 17.6269 10.3171 17.6066 10.3324 17.5875C10.2844 17.6182 10.2484 17.6645 10.2305 17.7186C10.2014 17.8085 10.3932 17.857 10.5193 17.8935C10.6454 17.9299 10.6942 17.9415 10.6942 17.9415C10.6478 17.8717 10.6079 17.7978 10.5751 17.7207C10.5271 17.6066 10.5023 17.5944 10.5339 17.541C10.5582 17.4876 10.5947 17.4512 10.5947 17.4099C10.5801 17.3715 10.5679 17.3472 10.5679 17.3472Z" fill="#574F35"/>
<path fill-rule="evenodd" clip-rule="evenodd" d="M7.8011 17.5391C7.81877 17.5423 7.83688 17.5423 7.85454 17.5391C7.89086 17.5341 8.26958 17.3951 8.66526 17.42C8.96147 17.4379 9.25506 17.4862 9.54142 17.564C10.039 17.6951 10.6579 17.9548 11.0584 18.1029C11.1651 18.144 11.2696 18.217 11.3464 18.246C11.6523 18.365 11.6643 18.365 11.844 18.3965C12.0552 18.4256 12.2712 18.3552 12.4969 18.3068C12.7736 18.246 13.2469 18.2168 13.6619 18.1562C13.7961 18.1376 13.9285 18.1076 14.0576 18.0664C14.0576 18.0664 13.7275 18.3965 12.9361 18.5154C12.6163 18.564 12.2912 18.5681 11.9702 18.5276C11.7177 18.5032 11.5504 18.4668 11.4241 18.4304C11.2809 18.3892 10.9872 18.2799 10.6256 18.1904C10.3731 18.1248 10.0915 18.0764 9.76878 18.0157C8.97262 17.87 8.10862 17.7026 7.80078 17.54L7.8011 17.5391Z" fill="#252211"/>
<path fill-rule="evenodd" clip-rule="evenodd" d="M6.90787 16.0391C6.71587 16.2016 6.51219 16.357 6.31331 16.5074L5.71379 16.968C5.50995 17.1184 5.31091 17.2738 5.10691 17.4243C4.90291 17.5749 4.69923 17.7179 4.48291 17.8563C4.67491 17.6938 4.87859 17.5432 5.08243 17.3952C5.28627 17.2472 5.49763 17.1021 5.69427 16.952L6.29379 16.4907C6.50003 16.3403 6.69907 16.185 6.90787 16.0394V16.0391ZM5.84723 17.7381C5.84723 17.7381 6.06323 17.5584 6.33267 17.3061C6.66755 16.9931 7.07779 16.5925 7.20883 16.5199L5.84707 17.7383L5.84723 17.7381Z" fill="#CFB66C"/>
<path fill-rule="evenodd" clip-rule="evenodd" d="M5.84717 17.7379C5.95405 17.6312 6.06813 17.5269 6.18221 17.4248L6.35693 17.2744C6.41037 17.2264 6.47117 17.1725 6.52445 17.1191C6.63117 17.0123 6.73565 16.8981 6.84237 16.789C6.89526 16.7341 6.95119 16.6822 7.00989 16.6336C7.03923 16.6077 7.07183 16.5856 7.10685 16.568C7.13613 16.5511 7.16765 16.52 7.20877 16.5146C7.18461 16.5511 7.15549 16.568 7.13117 16.5995C7.10205 16.6239 7.07773 16.653 7.05357 16.6771C7.00013 16.7306 6.93949 16.7791 6.88605 16.8277C6.77197 16.9248 6.65309 17.0197 6.53901 17.1213C6.42493 17.2229 6.31821 17.3325 6.20397 17.4344C6.08029 17.5389 5.96621 17.6408 5.84717 17.7384V17.7379ZM7.29869 16.7671C7.29869 16.7671 6.50749 17.5415 6.34477 17.6675L7.29869 16.7671Z" fill="#CFB66C"/>
<path fill-rule="evenodd" clip-rule="evenodd" d="M7.29865 16.7671C7.22747 16.8495 7.15116 16.9273 7.07017 17L6.83017 17.2282C6.75257 17.3058 6.67961 17.3836 6.59721 17.4612C6.51225 17.534 6.43465 17.6052 6.34473 17.6724L6.57769 17.4442C6.65545 17.3666 6.74041 17.3012 6.82297 17.2234L7.05593 16.9952C7.13593 16.9152 7.21369 16.8375 7.29865 16.7671ZM7.33497 17.1869C7.26204 17.3905 7.1761 17.5891 7.07769 17.7816C6.87385 18.1895 6.56809 18.6991 6.43449 18.9589L7.33497 17.1869Z" fill="#CFB66C"/>
<path fill-rule="evenodd" clip-rule="evenodd" d="M7.33509 17.1871C7.33509 17.2768 7.31077 17.3546 7.28165 17.4322C7.25327 17.5099 7.2209 17.586 7.18469 17.6604C7.14821 17.7332 7.10693 17.8109 7.06565 17.8813C7.02437 17.9517 6.97589 18.0244 6.93941 18.0973L6.69429 18.5293C6.60933 18.6733 6.52677 18.8181 6.43701 18.9565C6.49765 18.8012 6.58021 18.6556 6.65797 18.5124C6.74293 18.3684 6.82053 18.2244 6.89797 18.0754C6.93578 18.0012 6.9698 17.9251 6.99989 17.8474C7.03621 17.7696 7.07253 17.6968 7.10181 17.6264C7.13813 17.5488 7.16725 17.4759 7.20373 17.4056C7.24485 17.3303 7.27893 17.2575 7.33477 17.1871H7.33509Z" fill="#CFB66C"/>
<path fill-rule="evenodd" clip-rule="evenodd" d="M8.19913 19.1773C8.19913 19.1773 7.95913 19.4952 7.98313 19.8981C8.04857 19.6871 8.13113 19.3642 8.19913 19.1773ZM8.42729 19.496C8.42729 19.496 8.34233 20.36 8.27193 20.7848C8.37145 20.2938 8.39081 20.3351 8.42729 19.496ZM10.0171 20.8359C10.0171 20.8359 9.65785 21.8919 9.65049 22.1853C9.72825 21.8835 9.87865 21.2671 10.0171 20.8351V20.8359Z" fill="#DEC270"/>
<path fill-rule="evenodd" clip-rule="evenodd" d="M10.8569 19.112C10.8569 19.112 11.4395 20.0731 11.8765 20.8935C11.7582 20.4807 11.4862 19.7236 10.8569 19.112Z" fill="#CBAF59"/>
<path fill-rule="evenodd" clip-rule="evenodd" d="M12.4224 20.5269C12.7422 21.0923 13.0307 21.6749 13.2864 22.272C13.2379 21.8594 13.1067 21.1532 12.4224 20.5269Z" fill="#E3C677"/>
<path fill-rule="evenodd" clip-rule="evenodd" d="M17.0245 21.944C17.1215 21.8834 17.3133 21.5532 17.4808 21.4708C17.6482 21.3858 17.7744 21.3688 17.925 21.2013C18.0754 21.0264 18.117 20.9197 18.4467 20.7815C18.908 20.5823 18.5907 20.325 18.5907 20.325C18.6416 20.2751 18.6959 20.2289 18.7533 20.1868C18.8723 20.097 19.0106 19.9877 18.9986 19.7959C18.9816 19.4732 18.921 19.0047 18.6563 18.7328C18.9136 18.6794 19.4063 18.6431 19.7123 18.5655C20.0666 18.4756 20.2293 18.3493 20.2293 18.3493C20.2293 18.3493 20.0255 18.0023 20.3555 17.6528C20.6856 17.3034 20.9551 17.0946 21.1541 16.7037C20.9259 16.6746 20.5781 16.5533 19.6904 16.8906C19.7383 16.9131 19.7846 16.9391 19.8288 16.9682C19.8288 16.9682 19.2827 17.1188 19.0837 17.2863C18.7365 17.5799 18.6928 17.8202 18.3167 17.9999C17.9405 18.1796 17.5618 18.1309 17.2488 18.2765C16.9359 18.4221 16.8896 18.546 16.7754 18.5994C16.7997 18.6285 16.7706 18.677 16.8167 18.7183C16.7875 18.7596 16.6176 19.0362 16.4453 19.0362C16.4623 19.1018 16.6079 19.1503 16.6079 19.1503C16.6079 19.1503 16.5011 19.228 16.2293 19.2474C16.3675 19.3914 16.4987 19.5484 16.8603 19.7765C16.8312 19.8372 16.7098 19.9271 16.7584 20.0412C16.8119 20.1552 16.9504 20.3106 17.5035 20.4368C17.2219 20.4488 16.892 20.5144 16.4475 20.4538C16.0034 20.4004 15.9306 20.3688 15.6563 20.4368C15.6855 20.466 15.7631 20.466 15.8311 20.5436C15.7583 20.5484 15.3019 20.4901 15.1466 20.6941C14.984 20.9052 14.9136 21.2524 14.9258 21.4853C14.8408 21.5266 14.7583 21.5994 14.7995 21.75C14.8408 21.9005 15.0568 21.949 15.1952 22.0436C15.3335 22.1455 15.3456 22.1818 15.4768 22.1576C15.6151 22.1285 15.8189 21.9903 15.9379 21.9903C16.057 21.9903 16.1418 22.08 16.1418 22.08C16.1418 22.08 16.4647 21.9247 16.4962 21.9538C16.5253 21.9829 16.501 22.1698 16.5325 22.1989C16.5645 22.2208 16.9282 22.0048 17.0253 21.944H17.0245Z" fill="#ECD592"/>
<path fill-rule="evenodd" clip-rule="evenodd" d="M24.08 12.2308C22.5631 8.31331 18.813 7.58755 18.813 7.58755H8.11393L8.15521 11.5778H10.2859V20.488H8.11377V24.4711H18.5168C21.024 24.4711 23.0338 21.9516 23.0338 21.9516C26.2522 17.3837 24.0799 12.2308 24.0799 12.2308H24.08ZM18.5727 19.2671C18.5727 19.2671 17.7566 20.4444 16.8688 20.4444H15.0928L15.0507 11.5876H17.3299C17.3299 11.5876 18.3859 11.8084 19.1237 13.8981C19.1237 13.8981 20.1018 16.8901 18.5727 19.2671Z" fill="white" fill-opacity="0.8"/>
</g>
</g>
</g>
<defs>
<clipPath id="clip0_145_284">
<rect width="30" height="30.02" fill="white" transform="translate(0.830078 0.910034)"/>
</clipPath>
<clipPath id="clip1_145_284">
<rect width="30" height="30.02" fill="white" transform="translate(0.830078 0.910034)"/>
</clipPath>
<clipPath id="clip2_145_284">
<rect width="30" height="30" fill="white" transform="translate(0.830078 0.920029)"/>
</clipPath>
</defs>
</svg>
