<svg width="31" height="31" viewBox="0 0 31 31" fill="none" xmlns="http://www.w3.org/2000/svg">
<g clip-path="url(#clip0_145_415)">
<g clip-path="url(#clip1_145_415)">
<g clip-path="url(#clip2_145_415)">
<path d="M15.8301 30.92C24.1143 30.92 30.8301 24.2043 30.8301 15.92C30.8301 7.63576 24.1143 0.920029 15.8301 0.920029C7.54581 0.920029 0.830078 7.63576 0.830078 15.92C0.830078 24.2043 7.54581 30.92 15.8301 30.92Z" fill="#0088CC"/>
<path fill-rule="evenodd" clip-rule="evenodd" d="M11.6515 10.8307H20.0622C20.3836 10.8307 20.6515 10.8843 20.9729 11.045C21.3479 11.2057 21.5622 11.4736 21.6693 11.6879C21.6693 11.6879 21.6693 11.7415 21.7229 11.7415C21.8836 12.0093 21.9908 12.3307 21.9908 12.7057C21.9908 13.0272 21.9372 13.3486 21.7229 13.67L16.4193 22.7772C16.3122 22.9915 16.0979 23.0986 15.8301 23.0986C15.6158 23.0986 15.4015 22.9915 15.2408 22.7772L10.0443 13.67C9.93721 13.4557 9.72292 13.1879 9.72292 12.7593C9.66935 12.3843 9.77649 12.0629 9.93721 11.7415C10.0979 11.42 10.3658 11.1522 10.7408 11.045C11.0622 10.8307 11.4372 10.8307 11.6515 10.8307ZM15.1872 12.1165H11.6515C11.4372 12.1165 11.3301 12.1165 11.2765 12.17C11.1693 12.2236 11.1158 12.2772 11.0622 12.3843C11.0086 12.4379 11.0086 12.545 11.0086 12.6522C11.0086 12.7057 11.0622 12.7593 11.1693 12.9736L15.1872 19.9379V12.1165ZM16.4729 12.1165V19.9915L20.5443 12.9736C20.5979 12.8665 20.5979 12.7593 20.5979 12.6522C20.5979 12.545 20.5979 12.4379 20.5443 12.3843C20.4908 12.3307 20.4908 12.2772 20.4372 12.2772L20.3836 12.2236C20.2765 12.17 20.1693 12.17 20.0086 12.17H16.4729V12.1165Z" fill="white"/>
</g>
</g>
</g>
<defs>
<clipPath id="clip0_145_415">
<rect width="30" height="30.02" fill="white" transform="translate(0.830078 0.910034)"/>
</clipPath>
<clipPath id="clip1_145_415">
<rect width="30" height="30.02" fill="white" transform="translate(0.830078 0.910034)"/>
</clipPath>
<clipPath id="clip2_145_415">
<rect width="30" height="30" fill="white" transform="translate(0.830078 0.920029)"/>
</clipPath>
</defs>
</svg>
